<?xml version="1.0" encoding="utf-8"?>
<svg version="1.1" xmlns:xlink="http://www.w3.org/1999/xlink" width="12px" height="12px" viewBox="1246 776  12 12" xmlns="http://www.w3.org/2000/svg">
  <path d="M 1252 776  C 1255.36 776  1258 778.64  1258 782  C 1258 785.36  1255.36 788  1252 788  C 1248.64 788  1246 785.36  1246 782  C 1246 778.64  1248.64 776  1252 776  Z " fill-rule="nonzero" fill="#f0f0f0" stroke="none" />
  <path d="M 1252 776.5  C 1255.08 776.5  1257.5 778.92  1257.5 782  C 1257.5 785.08  1255.08 787.5  1252 787.5  C 1248.92 787.5  1246.5 785.08  1246.5 782  C 1246.5 778.92  1248.92 776.5  1252 776.5  Z " stroke-width="1" stroke="#797979" fill="none" />
  <path d="M 1252 785  C 1250.32 785  1249 783.68  1249 782  C 1249 780.32  1250.32 779  1252 779  C 1253.68 779  1255 780.32  1255 782  C 1255 783.68  1253.68 785  1252 785  " fill-rule="nonzero" fill="#797979" stroke="none" />
</svg>