<?xml version="1.0" encoding="utf-8"?>
<svg version="1.1" xmlns:xlink="http://www.w3.org/1999/xlink" width="439px" height="300px" xmlns="http://www.w3.org/2000/svg">
  <defs>
    <mask fill="white" id="clip60">
      <path d="M 0 293.877551020408  L 0 116.920033319451  L 0 6.12244897959184  C 0 2.69387755102039  3.86319999999998 0  8.78 0  L 430.22 0  C 435.1368 0  439 2.69387755102039  439 6.12244897959184  L 439 293.877551020408  C 439 297.30612244898  435.1368 300  430.22 300  L 8.78 300  C 3.86319999999998 300  0 297.30612244898  0 293.877551020408  Z " fill-rule="evenodd" />
    </mask>
  </defs>
  <g transform="matrix(1 0 0 1 -1083 -616 )">
    <path d="M 0 293.877551020408  L 0 116.920033319451  L 0 6.12244897959184  C 0 2.69387755102039  3.86319999999998 0  8.78 0  L 430.22 0  C 435.1368 0  439 2.69387755102039  439 6.12244897959184  L 439 293.877551020408  C 439 297.30612244898  435.1368 300  430.22 300  L 8.78 300  C 3.86319999999998 300  0 297.30612244898  0 293.877551020408  Z " fill-rule="nonzero" fill="#ff3399" stroke="none" fill-opacity="0.0980392156862745" transform="matrix(1 0 0 1 1083 616 )" />
    <path d="M 0 293.877551020408  L 0 116.920033319451  L 0 6.12244897959184  C 0 2.69387755102039  3.86319999999998 0  8.78 0  L 430.22 0  C 435.1368 0  439 2.69387755102039  439 6.12244897959184  L 439 293.877551020408  C 439 297.30612244898  435.1368 300  430.22 300  L 8.78 300  C 3.86319999999998 300  0 297.30612244898  0 293.877551020408  Z " stroke-width="2" stroke-dasharray="9,4" stroke="#ff3399" fill="none" transform="matrix(1 0 0 1 1083 616 )" mask="url(#clip60)" />
  </g>
</svg>