<?xml version="1.0" encoding="utf-8"?>
<svg version="1.1" xmlns:xlink="http://www.w3.org/1999/xlink" width="151px" height="60px" xmlns="http://www.w3.org/2000/svg">
  <g transform="matrix(1 0 0 1 -2559 -1418 )">
    <path d="M 2560 1428  A 9 9 0 0 1 2569 1419 L 2700 1419  A 9 9 0 0 1 2709 1428 L 2709 1468  A 9 9 0 0 1 2700 1477 L 2569 1477  A 9 9 0 0 1 2560 1468 L 2560 1428  Z " fill-rule="nonzero" fill="#f4f5f6" stroke="none" />
    <path d="M 2559.5 1428  A 9.5 9.5 0 0 1 2569 1418.5 L 2700 1418.5  A 9.5 9.5 0 0 1 2709.5 1428 L 2709.5 1468  A 9.5 9.5 0 0 1 2700 1477.5 L 2569 1477.5  A 9.5 9.5 0 0 1 2559.5 1468 L 2559.5 1428  Z " stroke-width="1" stroke="#07c160" fill="none" stroke-opacity="0.996078431372549" />
  </g>
</svg>