<?xml version="1.0" encoding="utf-8"?>
<svg version="1.1" xmlns:xlink="http://www.w3.org/1999/xlink" width="219px" height="211px" xmlns="http://www.w3.org/2000/svg">
  <g transform="matrix(1 0 0 1 -1217 -330 )">
    <path d="M 1218 334  A 3 3 0 0 1 1221 331 L 1432 331  A 3 3 0 0 1 1435 334 L 1435 537  A 3 3 0 0 1 1432 540 L 1221 540  A 3 3 0 0 1 1218 537 L 1218 334  Z " fill-rule="nonzero" fill="#ff3399" stroke="none" fill-opacity="0.0980392156862745" />
    <path d="M 1217.5 334  A 3.5 3.5 0 0 1 1221 330.5 L 1432 330.5  A 3.5 3.5 0 0 1 1435.5 334 L 1435.5 537  A 3.5 3.5 0 0 1 1432 540.5 L 1221 540.5  A 3.5 3.5 0 0 1 1217.5 537 L 1217.5 334  Z " stroke-width="1" stroke-dasharray="9,4" stroke="#ff3399" fill="none" stroke-dashoffset="0.5" />
  </g>
</svg>