<?xml version="1.0" encoding="utf-8"?>
<svg version="1.1" xmlns:xlink="http://www.w3.org/1999/xlink" width="19px" height="18px" preserveAspectRatio="xMinYMid meet" viewBox="1449 238  19 16" xmlns="http://www.w3.org/2000/svg">
  <path d="M 1110 136.5  L 1280 136.5  A 5 5 0 0 1 1285.5 141.5 L 1285.5 241  A 5 5 0 0 0 1290.5 246.5 L 1457 246.5  " stroke-width="1" stroke="#d9001b" fill="none" stroke-opacity="0.764705882352941" />
  <path d="M 1112 133.5  A 3 3 0 0 0 1109 136.5 A 3 3 0 0 0 1112 139.5 A 3 3 0 0 0 1115 136.5 A 3 3 0 0 0 1112 133.5 Z M 1456 252.8  L 1462 246.5  L 1456 240.2  L 1456 252.8  Z " fill-rule="nonzero" fill="#d9001b" stroke="none" fill-opacity="0.764705882352941" />
</svg>