<?xml version="1.0" encoding="utf-8"?>
<svg version="1.1" xmlns:xlink="http://www.w3.org/1999/xlink" width="296px" height="140px" xmlns="http://www.w3.org/2000/svg">
  <g transform="matrix(1 0 0 1 -726 -426 )">
    <path d="M 727 430  A 3 3 0 0 1 730 427 L 1018 427  A 3 3 0 0 1 1021 430 L 1021 562  A 3 3 0 0 1 1018 565 L 730 565  A 3 3 0 0 1 727 562 L 727 430  Z " fill-rule="nonzero" fill="#ff3399" stroke="none" fill-opacity="0.0980392156862745" />
    <path d="M 726.5 430  A 3.5 3.5 0 0 1 730 426.5 L 1018 426.5  A 3.5 3.5 0 0 1 1021.5 430 L 1021.5 562  A 3.5 3.5 0 0 1 1018 565.5 L 730 565.5  A 3.5 3.5 0 0 1 726.5 562 L 726.5 430  Z " stroke-width="1" stroke-dasharray="9,4" stroke="#ff3399" fill="none" stroke-dashoffset="0.5" />
  </g>
</svg>