<?xml version="1.0" encoding="utf-8"?>
<svg version="1.1" xmlns:xlink="http://www.w3.org/1999/xlink" width="79px" height="30px" xmlns="http://www.w3.org/2000/svg">
  <g transform="matrix(1 0 0 1 -2 0 )">
    <path d="M 3 5  A 4 4 0 0 1 7 1 L 76 1  A 4 4 0 0 1 80 5 L 80 25  A 4 4 0 0 1 76 29 L 7 29  A 4 4 0 0 1 3 25 L 3 5  Z " fill-rule="nonzero" fill="#ffffff" stroke="none" fill-opacity="0" />
    <path d="M 2.5 5  A 4.5 4.5 0 0 1 7 0.5 L 76 0.5  A 4.5 4.5 0 0 1 80.5 5 L 80.5 25  A 4.5 4.5 0 0 1 76 29.5 L 7 29.5  A 4.5 4.5 0 0 1 2.5 25 L 2.5 5  Z " stroke-width="1" stroke="#b30e0e" fill="none" stroke-opacity="0.996078431372549" />
  </g>
</svg>