<?xml version="1.0" encoding="utf-8"?>
<svg version="1.1" xmlns:xlink="http://www.w3.org/1999/xlink" width="235px" height="100px" xmlns="http://www.w3.org/2000/svg">
  <g transform="matrix(1 0 0 1 -751 -490 )">
    <path d="M 752 494  A 3 3 0 0 1 755 491 L 982 491  A 3 3 0 0 1 985 494 L 985 586  A 3 3 0 0 1 982 589 L 755 589  A 3 3 0 0 1 752 586 L 752 494  Z " fill-rule="nonzero" fill="#ff3399" stroke="none" fill-opacity="0.0980392156862745" />
    <path d="M 751.5 494  A 3.5 3.5 0 0 1 755 490.5 L 982 490.5  A 3.5 3.5 0 0 1 985.5 494 L 985.5 586  A 3.5 3.5 0 0 1 982 589.5 L 755 589.5  A 3.5 3.5 0 0 1 751.5 586 L 751.5 494  Z " stroke-width="1" stroke-dasharray="9,4" stroke="#ff3399" fill="none" stroke-dashoffset="0.5" />
  </g>
</svg>