<?xml version="1.0" encoding="utf-8"?>
<svg version="1.1" xmlns:xlink="http://www.w3.org/1999/xlink" width="18px" height="18px" preserveAspectRatio="xMinYMid meet" viewBox="-788 284  18 16" xmlns="http://www.w3.org/2000/svg">
  <defs>
    <mask fill="white" id="clip62">
      <path d="M -803.5 300  L -754.5 300  L -754.5 330  L -803.5 330  Z M -803.5 280  L -754.5 280  L -754.5 351  L -803.5 351  Z " fill-rule="evenodd" />
    </mask>
  </defs>
  <path d="M -778.5 300  L -778.5 290  M -778.5 330  L -778.5 337  " stroke-width="1" stroke="#d9001b" fill="none" stroke-opacity="0.764705882352941" />
  <path d="M -778.5 289  A 3 3 0 0 0 -781.5 292 A 3 3 0 0 0 -778.5 295 A 3 3 0 0 0 -775.5 292 A 3 3 0 0 0 -778.5 289 Z M -784.8 336  L -778.5 342  L -772.2 336  L -784.8 336  Z " fill-rule="nonzero" fill="#d9001b" stroke="none" fill-opacity="0.764705882352941" mask="url(#clip62)" />
</svg>