<?xml version="1.0" encoding="utf-8"?>
<svg version="1.1" xmlns:xlink="http://www.w3.org/1999/xlink" width="100px" height="100px" xmlns="http://www.w3.org/2000/svg">
  <g transform="matrix(1 0 0 1 829 -189 )">
    <path d="M -779 189  C -751 189  -729 211  -729 239  C -729 267  -751 289  -779 289  C -807 289  -829 267  -829 239  C -829 211  -807 189  -779 189  Z " fill-rule="nonzero" fill="#ffffff" stroke="none" />
    <path d="M -779 189.5  C -751.28 189.5  -729.5 211.28  -729.5 239  C -729.5 266.72  -751.28 288.5  -779 288.5  C -806.72 288.5  -828.5 266.72  -828.5 239  C -828.5 211.28  -806.72 189.5  -779 189.5  Z " stroke-width="1" stroke="#797979" fill="none" />
  </g>
</svg>