<?xml version="1.0" encoding="utf-8"?>
<svg version="1.1" xmlns:xlink="http://www.w3.org/1999/xlink" width="18px" height="19px" preserveAspectRatio="xMidYMin meet" viewBox="-787 1362  16 19" xmlns="http://www.w3.org/2000/svg">
  <defs>
    <mask fill="white" id="clip82">
      <path d="M -803.5 1322  L -754.5 1322  L -754.5 1352  L -803.5 1352  Z M -803.5 1290  L -754.5 1290  L -754.5 1384  L -803.5 1384  Z " fill-rule="evenodd" />
    </mask>
  </defs>
  <path d="M -778.5 1322  L -778.5 1300  M -778.5 1352  L -778.5 1370  " stroke-width="1" stroke="#d9001b" fill="none" stroke-opacity="0.764705882352941" />
  <path d="M -778.5 1299  A 3 3 0 0 0 -781.5 1302 A 3 3 0 0 0 -778.5 1305 A 3 3 0 0 0 -775.5 1302 A 3 3 0 0 0 -778.5 1299 Z M -784.8 1369  L -778.5 1375  L -772.2 1369  L -784.8 1369  Z " fill-rule="nonzero" fill="#d9001b" stroke="none" fill-opacity="0.764705882352941" mask="url(#clip82)" />
</svg>