<?xml version="1.0" encoding="utf-8"?>
<svg version="1.1" xmlns:xlink="http://www.w3.org/1999/xlink" width="18px" height="19px" preserveAspectRatio="xMidYMin meet" viewBox="-667 496  16 19" xmlns="http://www.w3.org/2000/svg">
  <defs>
    <mask fill="white" id="clip73">
      <path d="M -737.5 455  L -688.5 455  L -688.5 485  L -737.5 485  Z M -788 433  L -650 433  L -650 518  L -788 518  Z " fill-rule="evenodd" />
    </mask>
  </defs>
  <path d="M -778.5 443  L -778.5 465  A 5 5 0 0 0 -773.5 470.5 L -664 470.5  A 5 5 0 0 1 -658.5 475.5 L -658.5 504  " stroke-width="1" stroke="#d9001b" fill="none" stroke-opacity="0.764705882352941" mask="url(#clip73)" />
  <path d="M -778.5 442  A 3 3 0 0 0 -781.5 445 A 3 3 0 0 0 -778.5 448 A 3 3 0 0 0 -775.5 445 A 3 3 0 0 0 -778.5 442 Z M -664.8 503  L -658.5 509  L -652.2 503  L -664.8 503  Z " fill-rule="nonzero" fill="#d9001b" stroke="none" fill-opacity="0.764705882352941" mask="url(#clip73)" />
</svg>