<?xml version="1.0" encoding="utf-8"?>
<svg version="1.1" xmlns:xlink="http://www.w3.org/1999/xlink" width="18px" height="19px" preserveAspectRatio="xMidYMin meet" viewBox="-787 1033  16 19" xmlns="http://www.w3.org/2000/svg">
  <defs>
    <mask fill="white" id="clip85">
      <path d="M -803.5 1004  L -754.5 1004  L -754.5 1034  L -803.5 1034  Z M -803.5 984  L -754.5 984  L -754.5 1055  L -803.5 1055  Z " fill-rule="evenodd" />
    </mask>
  </defs>
  <path d="M -778.5 1004  L -778.5 994  M -778.5 1034  L -778.5 1041  " stroke-width="1" stroke="#d9001b" fill="none" stroke-opacity="0.764705882352941" />
  <path d="M -778.5 993  A 3 3 0 0 0 -781.5 996 A 3 3 0 0 0 -778.5 999 A 3 3 0 0 0 -775.5 996 A 3 3 0 0 0 -778.5 993 Z M -784.8 1040  L -778.5 1046  L -772.2 1040  L -784.8 1040  Z " fill-rule="nonzero" fill="#d9001b" stroke="none" fill-opacity="0.764705882352941" mask="url(#clip85)" />
</svg>