<?xml version="1.0" encoding="utf-8"?>
<svg version="1.1" xmlns:xlink="http://www.w3.org/1999/xlink" width="18px" height="18px" preserveAspectRatio="xMinYMid meet" viewBox="-788 1470  18 16" xmlns="http://www.w3.org/2000/svg">
  <defs>
    <mask fill="white" id="clip87">
      <path d="M -803.5 1490  L -754.5 1490  L -754.5 1520  L -803.5 1520  Z M -803.5 1466  L -754.5 1466  L -754.5 1544  L -803.5 1544  Z " fill-rule="evenodd" />
    </mask>
  </defs>
  <path d="M -778.5 1490  L -778.5 1476  M -778.5 1520  L -778.5 1530  " stroke-width="1" stroke="#d9001b" fill="none" stroke-opacity="0.764705882352941" />
  <path d="M -778.5 1475  A 3 3 0 0 0 -781.5 1478 A 3 3 0 0 0 -778.5 1481 A 3 3 0 0 0 -775.5 1478 A 3 3 0 0 0 -778.5 1475 Z M -784.8 1529  L -778.5 1535  L -772.2 1529  L -784.8 1529  Z " fill-rule="nonzero" fill="#d9001b" stroke="none" fill-opacity="0.764705882352941" mask="url(#clip87)" />
</svg>