<?xml version="1.0" encoding="utf-8"?>
<svg version="1.1" xmlns:xlink="http://www.w3.org/1999/xlink" width="19px" height="18px" preserveAspectRatio="xMinYMid meet" viewBox="-971 551  19 16" xmlns="http://www.w3.org/2000/svg">
  <defs>
    <mask fill="white" id="clip92">
      <path d="M -1043.5 556  L -994.5 556  L -994.5 586  L -1043.5 586  Z M -1043.5 550  L -949 550  L -949 653  L -1043.5 653  Z " fill-rule="evenodd" />
    </mask>
  </defs>
  <path d="M -1018.5 643  L -1018.5 564  A 5 5 0 0 1 -1013.5 559.5 L -963 559.5  " stroke-width="1" stroke="#d9001b" fill="none" stroke-opacity="0.764705882352941" mask="url(#clip92)" />
  <path d="M -1018.5 638  A 3 3 0 0 0 -1021.5 641 A 3 3 0 0 0 -1018.5 644 A 3 3 0 0 0 -1015.5 641 A 3 3 0 0 0 -1018.5 638 Z M -964 565.8  L -958 559.5  L -964 553.2  L -964 565.8  Z " fill-rule="nonzero" fill="#d9001b" stroke="none" fill-opacity="0.764705882352941" mask="url(#clip92)" />
</svg>