<?xml version="1.0" encoding="utf-8"?>
<svg version="1.1" xmlns:xlink="http://www.w3.org/1999/xlink" width="239px" height="67px" xmlns="http://www.w3.org/2000/svg">
  <g transform="matrix(1 0 0 1 -1117 -183 )">
    <path d="M 1118 187  A 3 3 0 0 1 1121 184 L 1352 184  A 3 3 0 0 1 1355 187 L 1355 246  A 3 3 0 0 1 1352 249 L 1121 249  A 3 3 0 0 1 1118 246 L 1118 187  Z " fill-rule="nonzero" fill="#ff3399" stroke="none" fill-opacity="0.0980392156862745" />
    <path d="M 1117.5 187  A 3.5 3.5 0 0 1 1121 183.5 L 1352 183.5  A 3.5 3.5 0 0 1 1355.5 187 L 1355.5 246  A 3.5 3.5 0 0 1 1352 249.5 L 1121 249.5  A 3.5 3.5 0 0 1 1117.5 246 L 1117.5 187  Z " stroke-width="1" stroke-dasharray="9,4" stroke="#ff3399" fill="none" stroke-dashoffset="0.5" />
  </g>
</svg>