<?xml version="1.0" encoding="utf-8"?>
<svg version="1.1" xmlns:xlink="http://www.w3.org/1999/xlink" width="287px" height="136px" xmlns="http://www.w3.org/2000/svg">
  <g transform="matrix(1 0 0 1 -959 -1032 )">
    <path d="M 960 1036  A 3 3 0 0 1 963 1033 L 1242 1033  A 3 3 0 0 1 1245 1036 L 1245 1164  A 3 3 0 0 1 1242 1167 L 963 1167  A 3 3 0 0 1 960 1164 L 960 1036  Z " fill-rule="nonzero" fill="#ff3399" stroke="none" fill-opacity="0.0980392156862745" />
    <path d="M 959.5 1036  A 3.5 3.5 0 0 1 963 1032.5 L 1242 1032.5  A 3.5 3.5 0 0 1 1245.5 1036 L 1245.5 1164  A 3.5 3.5 0 0 1 1242 1167.5 L 963 1167.5  A 3.5 3.5 0 0 1 959.5 1164 L 959.5 1036  Z " stroke-width="1" stroke-dasharray="9,4" stroke="#ff3399" fill="none" stroke-dashoffset="0.5" />
  </g>
</svg>