<?xml version="1.0" encoding="utf-8"?>
<svg version="1.1" xmlns:xlink="http://www.w3.org/1999/xlink" width="300px" height="163px" xmlns="http://www.w3.org/2000/svg">
  <g transform="matrix(1 0 0 1 -1440 -1365 )">
    <path d="M 1441 1369  A 3 3 0 0 1 1444 1366 L 1736 1366  A 3 3 0 0 1 1739 1369 L 1739 1524  A 3 3 0 0 1 1736 1527 L 1444 1527  A 3 3 0 0 1 1441 1524 L 1441 1369  Z " fill-rule="nonzero" fill="#ff3399" stroke="none" fill-opacity="0.0980392156862745" />
    <path d="M 1440.5 1369  A 3.5 3.5 0 0 1 1444 1365.5 L 1736 1365.5  A 3.5 3.5 0 0 1 1739.5 1369 L 1739.5 1524  A 3.5 3.5 0 0 1 1736 1527.5 L 1444 1527.5  A 3.5 3.5 0 0 1 1440.5 1524 L 1440.5 1369  Z " stroke-width="1" stroke-dasharray="9,4" stroke="#ff3399" fill="none" stroke-dashoffset="0.5" />
  </g>
</svg>