<?xml version="1.0" encoding="utf-8"?>
<svg version="1.1" xmlns:xlink="http://www.w3.org/1999/xlink" width="320px" height="114px" xmlns="http://www.w3.org/2000/svg">
  <g transform="matrix(1 0 0 1 -643 -54 )">
    <path d="M 644 58  A 3 3 0 0 1 647 55 L 959 55  A 3 3 0 0 1 962 58 L 962 164  A 3 3 0 0 1 959 167 L 647 167  A 3 3 0 0 1 644 164 L 644 58  Z " fill-rule="nonzero" fill="#ff3399" stroke="none" fill-opacity="0.0980392156862745" />
    <path d="M 643.5 58  A 3.5 3.5 0 0 1 647 54.5 L 959 54.5  A 3.5 3.5 0 0 1 962.5 58 L 962.5 164  A 3.5 3.5 0 0 1 959 167.5 L 647 167.5  A 3.5 3.5 0 0 1 643.5 164 L 643.5 58  Z " stroke-width="1" stroke-dasharray="9,4" stroke="#ff3399" fill="none" stroke-dashoffset="0.5" />
  </g>
</svg>