<?xml version="1.0" encoding="utf-8"?>
<svg version="1.1" xmlns:xlink="http://www.w3.org/1999/xlink" width="24px" height="24px" xmlns="http://www.w3.org/2000/svg">
  <g transform="matrix(1 0 0 1 -1120 -1576 )">
    <path d="M 1132 1576.5  C 1138.44 1576.5  1143.5 1581.56  1143.5 1588  C 1143.5 1594.44  1138.44 1599.5  1132 1599.5  C 1125.56 1599.5  1120.5 1594.44  1120.5 1588  C 1120.5 1581.56  1125.56 1576.5  1132 1576.5  Z " fill-rule="nonzero" fill="#07c160" stroke="none" fill-opacity="0.996078431372549" />
    <path d="M 1132 1576.5  C 1138.44 1576.5  1143.5 1581.56  1143.5 1588  C 1143.5 1594.44  1138.44 1599.5  1132 1599.5  C 1125.56 1599.5  1120.5 1594.44  1120.5 1588  C 1120.5 1581.56  1125.56 1576.5  1132 1576.5  Z " stroke-width="1" stroke="#07c160" fill="none" stroke-opacity="0.996078431372549" />
  </g>
</svg>