<?xml version="1.0" encoding="utf-8"?>
<svg version="1.1" xmlns:xlink="http://www.w3.org/1999/xlink" width="7px" height="16px" xmlns="http://www.w3.org/2000/svg">
  <g transform="matrix(1 0 0 1 -510 -279 )">
    <path d="M 6.49420917167969 8.686  C 6.77975084335938 8.19  6.77975084335938 7.81  6.49420917167969 7.314  C 5.21857584335937 5.091333328125  3.94165917167969 2.87  2.6647425 0.647333328125  C 2.43465183848589 0.246240396805341  2.01839101507845 0.000535031068930374  1.56897159200965 0.000535031068930374  C 1.33739276964208 0.000535031068930374  1.11018230398886 0.0660315853891819  0.911709171679687 0.19  C 0.306392101800791 0.570937770339711  0.110863055942274 1.38829191462441  0.474092500000001 2.019333328125  C 1.61882582832031 4.01266665625  2.7648425 6.006  3.91085917167969 7.999333328125  L 0.474092500000001 13.980666671875  C 0.111238265301837 14.6117660285926  0.306697542600693 15.4288285250501  0.911709171679687 15.81  C 1.51615917167969 16.188666671875  2.30027584335937 15.983333328125  2.6647425 15.352666671875  C 3.94165917167969 13.13  5.21857582832031 10.908666671875  6.49420917167969 8.686  Z " fill-rule="nonzero" fill="#555555" stroke="none" transform="matrix(1 0 0 1 510 279 )" />
  </g>
</svg>