<?xml version="1.0" encoding="utf-8"?>
<svg version="1.1" xmlns:xlink="http://www.w3.org/1999/xlink" width="396px" height="285px" xmlns="http://www.w3.org/2000/svg">
  <g transform="matrix(1 0 0 1 -91 -567 )">
    <path d="M 92 571  A 3 3 0 0 1 95 568 L 483 568  A 3 3 0 0 1 486 571 L 486 848  A 3 3 0 0 1 483 851 L 95 851  A 3 3 0 0 1 92 848 L 92 571  Z " fill-rule="nonzero" fill="#ff3399" stroke="none" fill-opacity="0.0980392156862745" />
    <path d="M 91.5 571  A 3.5 3.5 0 0 1 95 567.5 L 483 567.5  A 3.5 3.5 0 0 1 486.5 571 L 486.5 848  A 3.5 3.5 0 0 1 483 851.5 L 95 851.5  A 3.5 3.5 0 0 1 91.5 848 L 91.5 571  Z " stroke-width="1" stroke-dasharray="9,4" stroke="#ff3399" fill="none" stroke-dashoffset="0.5" />
  </g>
</svg>