<?xml version="1.0" encoding="utf-8"?>
<svg version="1.1" xmlns:xlink="http://www.w3.org/1999/xlink" width="284px" height="161px" xmlns="http://www.w3.org/2000/svg">
  <g transform="matrix(1 0 0 1 -1861 -372 )">
    <path d="M 1861 372  L 2145 372  L 2145 533  L 1861 533  L 1861 372  " fill-rule="nonzero" fill="#cccccc" stroke="none" />
    <path d="M 1872 383  L 2134 383  L 2134 522  L 1872 522  L 1872 383  " fill-rule="nonzero" fill="#ffffff" stroke="none" />
    <path d="M 2020.755 420.3  C 2013.993 420.3  2008.68 414.987  2008.68 408.225  C 2008.68 401.463  2013.993 396.15  2020.755 396.15  C 2027.517 396.15  2032.83 401.463  2032.83 408.225  C 2032.83 414.987  2027.517 420.3  2020.755 420.3  " fill-rule="nonzero" fill="#cccccc" stroke="none" />
    <path d="M 1876 518  L 1876 445.95  L 1939.5 413.2  L 2028.4 473.441549295775  L 2079.2 432.85  L 2130 473.441549295775  L 2130 518  L 1876 518  " fill-rule="nonzero" fill="#169bd5" stroke="none" />
  </g>
</svg>