<?xml version="1.0" encoding="utf-8"?>
<svg version="1.1" xmlns:xlink="http://www.w3.org/1999/xlink" width="206px" height="18px" viewBox="720 478  206 18" xmlns="http://www.w3.org/2000/svg">
  <defs>
    <mask fill="white" id="clip48">
      <path d="M 862 439  L 982 439  L 982 545  L 862 545  Z M 714 425  L 1123 425  L 1123 545  L 714 545  Z " fill-rule="evenodd" />
    </mask>
  </defs>
  <g transform="matrix(0.994521895368273 -0.104528463267654 0.104528463267652 0.994521895368274 -46.3968814994355 88.6947622249297 )">
    <path d="M 724.816670623811 472.762987616609  C 757.203695888001 482.311454228743  790.392735601725 488.891706116182  823.97290353072 492.422278586308  C 856.634641105781 495.831763020345  889.55414467326 495.991035354934  922.247344167511 492.89775354475  C 954.937460486518 489.772056730021  987.236632570655 483.409465631652  1018.66991211703 473.903539980408  C 1049.70382134853 464.493226340196  1079.85552273858 452.387507059054  1108.78057756552 437.724672126661  L 1108.32041329165 436.836792767579  C 1079.4499004464 451.471391733978  1049.35521823654 463.553947092124  1018.38008789268 472.946460016581  C 987.010415153489 482.433124282741  954.776611552914 488.78284269539  922.152655832514 491.902246455123  C 889.525616964124 494.989235496897  856.672736541429 494.83028137438  824.077096459208 491.42772141257  C 790.558009702529 487.90354826862  757.429331882197 481.335308287728  725.10118438345 471.804313971835  L 724.816670623811 472.762987616609  Z M 726.878305660538 469.845774602032  C 725.221451411046 469.845774602032  723.878305660538 471.18892035254  723.878305660538 472.845774602032  C 723.878305660538 474.502628851524  725.221451411046 475.845774602032  726.878305660538 475.845774602032  C 728.535159910031 475.845774602032  729.878305660538 474.502628851524  729.878305660538 472.845774602032  C 729.878305660538 471.18892035254  728.535159910031 469.845774602032  726.878305660538 469.845774602032  Z M 1110.54828688928 443.347400962139  L 1113 435  L 1104.782049262 432.144253920982  L 1110.54828688928 443.347400962139  Z " fill-rule="nonzero" fill="#d9001b" stroke="none" fill-opacity="0.764705882352941" mask="url(#clip48)" />
  </g>
</svg>