<?xml version="1.0" encoding="utf-8"?>
<svg version="1.1" xmlns:xlink="http://www.w3.org/1999/xlink" width="62px" height="62px" xmlns="http://www.w3.org/2000/svg">
  <g transform="matrix(1 0 0 1 -819 -1964 )">
    <path d="M 51.1015625 26.27734375  C 51.5859375 25.79296875  51.828125 25.1875  51.828125 24.4609375  C 51.828125 23.7074652777778  51.5859375 23.0885416666667  51.1015625 22.6041666666667  L 47.4283854166667 18.9713541666667  C 46.9171006944444 18.4600694444444  46.3116319444444 18.2044270833333  45.6119791666667 18.2044270833333  C 44.9123263888889 18.2044270833333  44.3068576388889 18.4600694444444  43.7955729166667 18.9713541666667  L 27.3268229166667 35.3997395833333  L 18.2044270833333 26.27734375  C 17.6931423611111 25.7660590277778  17.0876736111111 25.5104166666667  16.3880208333333 25.5104166666667  C 15.6883680555556 25.5104166666667  15.0828993055556 25.7660590277778  14.5716145833333 26.27734375  L 10.8984375 29.91015625  C 10.4140625 30.39453125  10.171875 31.0134548611111  10.171875 31.7669270833333  C 10.171875 32.4934895833333  10.4140625 33.0989583333333  10.8984375 33.5833333333333  L 25.5104166666667 48.1953125  C 26.0217013888889 48.7065972222222  26.6271701388889 48.9622395833333  27.3268229166667 48.9622395833333  C 28.0533854166667 48.9622395833333  28.6723090277778 48.7065972222222  29.18359375 48.1953125  L 51.1015625 26.27734375  Z M 57.8424479166667 15.439453125  C 60.6141493055556 20.1890190972222  62 25.3758680555555  62 31  C 62 36.6241319444444  60.6141493055556 41.8109809027778  57.8424479166667 46.560546875  C 55.0707465277778 51.3101128472222  51.3101128472222 55.0707465277778  46.560546875 57.8424479166667  C 41.8109809027778 60.6141493055556  36.6241319444444 62  31 62  C 25.3758680555556 62  20.1890190972222 60.6141493055556  15.439453125 57.8424479166667  C 10.6898871527778 55.0707465277778  6.92925347222222 51.3101128472222  4.15755208333333 46.560546875  C 1.38585069444444 41.8109809027778  0 36.6241319444444  0 31  C 0 25.3758680555555  1.38585069444444 20.1890190972222  4.15755208333333 15.439453125  C 6.92925347222222 10.6898871527778  10.6898871527778 6.92925347222222  15.439453125 4.15755208333333  C 20.1890190972222 1.38585069444444  25.3758680555556 0  31 0  C 36.6241319444444 0  41.8109809027778 1.38585069444444  46.560546875 4.15755208333333  C 51.3101128472222 6.92925347222222  55.0707465277778 10.6898871527778  57.8424479166667 15.439453125  Z " fill-rule="nonzero" fill="#f2f2f2" stroke="none" transform="matrix(1 0 0 1 819 1964 )" />
  </g>
</svg>