<?xml version="1.0" encoding="utf-8"?>
<svg version="1.1" xmlns:xlink="http://www.w3.org/1999/xlink" width="271px" height="94px" xmlns="http://www.w3.org/2000/svg">
  <g transform="matrix(1 0 0 1 -1080 -2391 )">
    <path d="M 1081 2395  A 3 3 0 0 1 1084 2392 L 1347 2392  A 3 3 0 0 1 1350 2395 L 1350 2481  A 3 3 0 0 1 1347 2484 L 1084 2484  A 3 3 0 0 1 1081 2481 L 1081 2395  Z " fill-rule="nonzero" fill="#ff3399" stroke="none" fill-opacity="0.0980392156862745" />
    <path d="M 1080.5 2395  A 3.5 3.5 0 0 1 1084 2391.5 L 1347 2391.5  A 3.5 3.5 0 0 1 1350.5 2395 L 1350.5 2481  A 3.5 3.5 0 0 1 1347 2484.5 L 1084 2484.5  A 3.5 3.5 0 0 1 1080.5 2481 L 1080.5 2395  Z " stroke-width="1" stroke-dasharray="9,4" stroke="#ff3399" fill="none" stroke-dashoffset="0.5" />
  </g>
</svg>