<?xml version="1.0" encoding="utf-8"?>
<svg version="1.1" xmlns:xlink="http://www.w3.org/1999/xlink" width="271px" height="97px" xmlns="http://www.w3.org/2000/svg">
  <g transform="matrix(1 0 0 1 -1080 -2551 )">
    <path d="M 1081 2555  A 3 3 0 0 1 1084 2552 L 1347 2552  A 3 3 0 0 1 1350 2555 L 1350 2644  A 3 3 0 0 1 1347 2647 L 1084 2647  A 3 3 0 0 1 1081 2644 L 1081 2555  Z " fill-rule="nonzero" fill="#ff3399" stroke="none" fill-opacity="0.0980392156862745" />
    <path d="M 1080.5 2555  A 3.5 3.5 0 0 1 1084 2551.5 L 1347 2551.5  A 3.5 3.5 0 0 1 1350.5 2555 L 1350.5 2644  A 3.5 3.5 0 0 1 1347 2647.5 L 1084 2647.5  A 3.5 3.5 0 0 1 1080.5 2644 L 1080.5 2555  Z " stroke-width="1" stroke-dasharray="9,4" stroke="#ff3399" fill="none" stroke-dashoffset="0.5" />
  </g>
</svg>