<?xml version="1.0" encoding="utf-8"?>
<svg version="1.1" xmlns:xlink="http://www.w3.org/1999/xlink" width="200px" height="100px" xmlns="http://www.w3.org/2000/svg">
  <g transform="matrix(1 0 0 1 -635 -15 )">
    <path d="M 636 19  A 3 3 0 0 1 639 16 L 831 16  A 3 3 0 0 1 834 19 L 834 111  A 3 3 0 0 1 831 114 L 639 114  A 3 3 0 0 1 636 111 L 636 19  Z " fill-rule="nonzero" fill="#ff3399" stroke="none" fill-opacity="0.0980392156862745" />
    <path d="M 635.5 19  A 3.5 3.5 0 0 1 639 15.5 L 831 15.5  A 3.5 3.5 0 0 1 834.5 19 L 834.5 111  A 3.5 3.5 0 0 1 831 114.5 L 639 114.5  A 3.5 3.5 0 0 1 635.5 111 L 635.5 19  Z " stroke-width="1" stroke-dasharray="9,4" stroke="#ff3399" fill="none" stroke-dashoffset="0.5" />
  </g>
</svg>