<?xml version="1.0" encoding="utf-8"?>
<svg version="1.1" xmlns:xlink="http://www.w3.org/1999/xlink" width="122px" height="122px" xmlns="http://www.w3.org/2000/svg">
  <g transform="matrix(1 0 0 1 -300 -1052 )">
    <path d="M 100.5546875 51.70703125  C 101.5078125 50.75390625  101.984375 49.5625  101.984375 48.1328125  C 101.984375 46.6501736111111  101.5078125 45.4322916666667  100.5546875 44.4791666666667  L 93.3268229166667 37.3307291666667  C 92.3207465277778 36.3246527777778  91.1293402777778 35.8216145833333  89.7526041666667 35.8216145833333  C 88.3758680555556 35.8216145833333  87.1844618055556 36.3246527777778  86.1783854166667 37.3307291666667  L 53.7721354166667 69.6575520833333  L 35.8216145833333 51.70703125  C 34.8155381944444 50.7009548611111  33.6241319444444 50.1979166666667  32.2473958333333 50.1979166666667  C 30.8706597222222 50.1979166666667  29.6792534722222 50.7009548611111  28.6731770833333 51.70703125  L 21.4453125 58.85546875  C 20.4921875 59.80859375  20.015625 61.0264756944444  20.015625 62.5091145833333  C 20.015625 63.9388020833333  20.4921875 65.1302083333333  21.4453125 66.0833333333333  L 50.1979166666667 94.8359375  C 51.2039930555556 95.8420138888889  52.3953993055556 96.3450520833333  53.7721354166667 96.3450520833333  C 55.2018229166667 96.3450520833333  56.4197048611111 95.8420138888889  57.42578125 94.8359375  L 100.5546875 51.70703125  Z M 113.819010416667 30.380859375  C 119.273003472222 39.7267795138889  122 49.9331597222222  122 61  C 122 72.0668402777778  119.273003472222 82.2732204861111  113.819010416667 91.619140625  C 108.365017361111 100.965060763889  100.965060763889 108.365017361111  91.619140625 113.819010416667  C 82.2732204861111 119.273003472222  72.0668402777778 122  61 122  C 49.9331597222222 122  39.7267795138889 119.273003472222  30.380859375 113.819010416667  C 21.0349392361111 108.365017361111  13.6349826388889 100.965060763889  8.18098958333333 91.619140625  C 2.72699652777778 82.2732204861111  0 72.0668402777778  0 61  C 0 49.9331597222222  2.72699652777778 39.7267795138889  8.18098958333333 30.380859375  C 13.6349826388889 21.0349392361111  21.0349392361111 13.6349826388889  30.380859375 8.18098958333333  C 39.7267795138889 2.72699652777777  49.9331597222222 0  61 0  C 72.0668402777778 0  82.2732204861111 2.72699652777777  91.619140625 8.18098958333333  C 100.965060763889 13.6349826388889  108.365017361111 21.0349392361111  113.819010416667 30.380859375  Z " fill-rule="nonzero" fill="#f2f2f2" stroke="none" transform="matrix(1 0 0 1 300 1052 )" />
  </g>
</svg>