<?xml version="1.0" encoding="utf-8"?>
<svg version="1.1" xmlns:xlink="http://www.w3.org/1999/xlink" width="19.0934453079644px" height="18px" viewBox="1140.47264498893 381.606851125226  19.0934453079644 18" xmlns="http://www.w3.org/2000/svg">
  <defs>
    <mask fill="white" id="clip19">
      <path d="M 892 342  L 1012 342  L 1012 400  L 892 400  Z M 740 342  L 1163 342  L 1163 400  L 740 400  Z " fill-rule="evenodd" />
    </mask>
  </defs>
  <g transform="matrix(-0.995158089270995 0.098287218693432 -0.0982872186934344 -0.995158089271 2332.86210517078 666.290213657967 )">
    <path d="M 749.995158089271 351.098287218693  L 1149.02420955365 390.508563906533  " stroke-width="1" stroke="#d9001b" fill="none" stroke-opacity="0.764705882352941" mask="url(#clip19)" />
    <path d="M 751.985474267813 348.29486165608  A 3 3 0 0 0 748.985474267813 351.29486165608 A 3 3 0 0 0 751.985474267813 354.29486165608 A 3 3 0 0 0 754.985474267813 351.29486165608 A 3 3 0 0 0 751.985474267813 348.29486165608 Z M 1147.40984198661 396.679772650247  L 1154 391  L 1148.64826094214 384.140780725432  L 1147.40984198661 396.679772650247  Z " fill-rule="nonzero" fill="#d9001b" stroke="none" fill-opacity="0.764705882352941" mask="url(#clip19)" />
  </g>
</svg>