<?xml version="1.0" encoding="utf-8"?>
<svg version="1.1" xmlns:xlink="http://www.w3.org/1999/xlink" width="408px" height="6px" viewBox="748 368  408 6" xmlns="http://www.w3.org/2000/svg">
  <defs>
    <mask fill="white" id="clip17">
      <path d="M 892 342  L 1012 342  L 1012 400  L 892 400  Z M 740 342  L 1163 342  L 1163 400  L 740 400  Z " fill-rule="evenodd" />
    </mask>
  </defs>
  <g transform="matrix(-0.995158089270999 0.0982872186934316 -0.0982872186934475 -0.995158089270999 1935.85505912126 646.634218923394 )">
    <path d="M 749.995158089271 351.098287218693  L 1149.02420955365 390.508563906533  " stroke-width="1" stroke="#d9001b" fill="none" stroke-opacity="0.764705882352941" mask="url(#clip17)" />
    <path d="M 751.985474267813 348.29486165608  A 3 3 0 0 0 748.985474267813 351.29486165608 A 3 3 0 0 0 751.985474267813 354.29486165608 A 3 3 0 0 0 754.985474267813 351.29486165608 A 3 3 0 0 0 751.985474267813 348.29486165608 Z M 1147.40984198661 396.679772650247  L 1154 391  L 1148.64826094214 384.140780725432  L 1147.40984198661 396.679772650247  Z " fill-rule="nonzero" fill="#d9001b" stroke="none" fill-opacity="0.764705882352941" mask="url(#clip17)" />
  </g>
</svg>