<?xml version="1.0" encoding="utf-8"?>
<svg version="1.1" xmlns:xlink="http://www.w3.org/1999/xlink" width="212px" height="98px" xmlns="http://www.w3.org/2000/svg">
  <g transform="matrix(1 0 0 1 -812 -970 )">
    <path d="M 813 974  A 3 3 0 0 1 816 971 L 1020 971  A 3 3 0 0 1 1023 974 L 1023 1064  A 3 3 0 0 1 1020 1067 L 816 1067  A 3 3 0 0 1 813 1064 L 813 974  Z " fill-rule="nonzero" fill="#ff3399" stroke="none" fill-opacity="0.0980392156862745" />
    <path d="M 812.5 974  A 3.5 3.5 0 0 1 816 970.5 L 1020 970.5  A 3.5 3.5 0 0 1 1023.5 974 L 1023.5 1064  A 3.5 3.5 0 0 1 1020 1067.5 L 816 1067.5  A 3.5 3.5 0 0 1 812.5 1064 L 812.5 974  Z " stroke-width="1" stroke-dasharray="9,4" stroke="#ff3399" fill="none" stroke-dashoffset="0.5" />
  </g>
</svg>