<?xml version="1.0" encoding="utf-8"?>
<svg version="1.1" xmlns:xlink="http://www.w3.org/1999/xlink" width="36px" height="36px" xmlns="http://www.w3.org/2000/svg">
  <g transform="matrix(1 0 0 1 -757 -607 )">
    <path d="M 775 607  C 785.08 607  793 614.92  793 625  C 793 635.08  785.08 643  775 643  C 764.92 643  757 635.08  757 625  C 757 614.92  764.92 607  775 607  Z " fill-rule="nonzero" fill="#ffffff" stroke="none" />
    <path d="M 775 607.5  C 784.8 607.5  792.5 615.2  792.5 625  C 792.5 634.8  784.8 642.5  775 642.5  C 765.2 642.5  757.5 634.8  757.5 625  C 757.5 615.2  765.2 607.5  775 607.5  Z " stroke-width="1" stroke="#797979" fill="none" />
  </g>
</svg>