<svg t="1594114757824" class="icon" viewBox="0 0 1024 1024" version="1.1" xmlns="http://www.w3.org/2000/svg" p-id="1785" width="32" height="32"><path d="M852.791534 172.653263c90.661023 90.661023 137.616931 204.077601 140.867725 340.249735-3.250794 136.172134-50.206702 249.227513-140.867725 340.249735-90.661023 90.661023-204.077601 137.616931-340.249735 140.867725-136.172134-3.250794-249.227513-50.206702-340.249735-140.867725C81.631041 762.130511 34.675132 648.713933 31.424339 512.902998c3.250794-135.810935 50.206702-249.227513 140.867725-340.249735 90.661023-90.661023 204.077601-137.616931 340.249735-140.867725C648.713933 35.036332 762.130511 81.99224 852.791534 172.653263zM557.691711 513.986596l161.817284-156.038095c6.501587-6.501587 9.752381-14.086772 9.752381-22.755556s-2.889594-16.253968-9.029982-22.755556c-6.140388-6.501587-13.364374-9.752381-22.033157-10.11358-8.668783-0.361199-16.253968 2.889594-22.755556 9.029982l-161.456085 155.676896L357.587302 305.935802c-6.501587-6.501587-14.086772-9.752381-22.755556-9.752381s-16.253968 2.889594-22.755556 9.029982c-6.501587 6.140388-9.752381 13.364374-10.11358 22.033157s2.889594 16.253968 9.029982 22.755556l155.676896 161.456085-161.817284 156.038095c-6.501587 6.501587-9.752381 14.086772-9.752381 22.755556s2.889594 16.253968 9.029982 22.755556c6.140388 6.501587 13.364374 9.752381 22.033157 10.11358 8.668783 0.361199 16.253968-2.889594 22.755556-9.029982l161.456085-155.676896 156.038095 161.817284c6.501587 6.501587 14.086772 9.752381 22.755556 9.752381s16.253968-2.889594 22.755556-9.029982c6.501587-6.140388 9.752381-13.364374 10.11358-22.033157 0.361199-8.668783-2.889594-16.253968-9.029982-22.755556L557.691711 513.986596z" p-id="1786"></path></svg>