<?xml version="1.0" encoding="utf-8"?>
<svg version="1.1" xmlns:xlink="http://www.w3.org/1999/xlink" width="204px" height="213px" xmlns="http://www.w3.org/2000/svg">
  <g transform="matrix(1 0 0 1 -896 -530 )">
    <path d="M 897 534  A 3 3 0 0 1 900 531 L 1096 531  A 3 3 0 0 1 1099 534 L 1099 739  A 3 3 0 0 1 1096 742 L 900 742  A 3 3 0 0 1 897 739 L 897 534  Z " fill-rule="nonzero" fill="#ff3399" stroke="none" fill-opacity="0.0980392156862745" />
    <path d="M 896.5 534  A 3.5 3.5 0 0 1 900 530.5 L 1096 530.5  A 3.5 3.5 0 0 1 1099.5 534 L 1099.5 739  A 3.5 3.5 0 0 1 1096 742.5 L 900 742.5  A 3.5 3.5 0 0 1 896.5 739 L 896.5 534  Z " stroke-width="1" stroke-dasharray="9,4" stroke="#ff3399" fill="none" stroke-dashoffset="0.5" />
  </g>
</svg>