<?xml version="1.0" encoding="utf-8"?>
<svg version="1.1" xmlns:xlink="http://www.w3.org/1999/xlink" width="32px" height="39px" xmlns="http://www.w3.org/2000/svg">
  <g transform="matrix(1 0 0 1 -672 -747 )">
    <path d="M 8.88888888888889 12.4090909090909  L 8.88888888888889 18  L 23.1111111111111 18  L 23.1111111111111 12.4090909090909  C 23.1111111111111 10.4517045454545  22.4166666666667 8.78053977272727  21.0277777777778 7.39559659090909  C 19.6388888888889 6.01065340909091  17.962962962963 5.31818181818182  16 5.31818181818182  C 14.037037037037 5.31818181818182  12.3611111111111 6.01065340909091  10.9722222222222 7.39559659090909  C 9.58333333333333 8.78053977272727  8.88888888888889 10.4517045454545  8.88888888888889 12.4090909090909  Z M 31.2222222222222 18.5028409090909  C 31.7407407407407 19.0198863636364  32 19.6477272727273  32 20.3863636363636  L 32 36.3409090909091  C 32 37.0795454545455  31.7407407407407 37.7073863636364  31.2222222222222 38.2244318181818  C 30.7037037037037 38.7414772727273  30.0740740740741 39  29.3333333333333 39  L 2.66666666666667 39  C 1.92592592592593 39  1.2962962962963 38.7414772727273  0.777777777777778 38.2244318181818  C 0.259259259259259 37.7073863636364  0 37.0795454545455  0 36.3409090909091  L 0 20.3863636363636  C 0 19.6477272727273  0.259259259259259 19.0198863636364  0.777777777777778 18.5028409090909  C 1.2962962962963 17.9857954545455  1.92592592592593 17.7272727272727  2.66666666666667 17.7272727272727  L 3.55555555555556 17.7272727272727  L 3.55555555555556 12.4090909090909  C 3.55555555555556 9.01136363636363  4.77777777777778 6.09375  7.22222222222222 3.65625  C 9.66666666666667 1.21875  12.5925925925926 0  16 0  C 19.4074074074074 0  22.3333333333333 1.21875  24.7777777777778 3.65625  C 27.2222222222222 6.09375  28.4444444444444 9.01136363636363  28.4444444444444 12.4090909090909  L 28.4444444444444 17.7272727272727  L 29.3333333333333 17.7272727272727  C 30.0740740740741 17.7272727272727  30.7037037037037 17.9857954545455  31.2222222222222 18.5028409090909  Z " fill-rule="nonzero" fill="#000000" stroke="none" fill-opacity="0.643137254901961" transform="matrix(1 0 0 1 672 747 )" />
  </g>
</svg>