<?xml version="1.0" encoding="utf-8"?>
<svg version="1.1" xmlns:xlink="http://www.w3.org/1999/xlink" width="112px" height="39px" xmlns="http://www.w3.org/2000/svg">
  <g transform="matrix(1 0 0 1 -184 -1451 )">
    <path d="M 185 1455  A 3 3 0 0 1 188 1452 L 292 1452  A 3 3 0 0 1 295 1455 L 295 1486  A 3 3 0 0 1 292 1489 L 188 1489  A 3 3 0 0 1 185 1486 L 185 1455  Z " fill-rule="nonzero" fill="#ff3399" stroke="none" fill-opacity="0.0980392156862745" />
    <path d="M 184.5 1455  A 3.5 3.5 0 0 1 188 1451.5 L 292 1451.5  A 3.5 3.5 0 0 1 295.5 1455 L 295.5 1486  A 3.5 3.5 0 0 1 292 1489.5 L 188 1489.5  A 3.5 3.5 0 0 1 184.5 1486 L 184.5 1455  Z " stroke-width="1" stroke-dasharray="9,4" stroke="#ff3399" fill="none" stroke-dashoffset="0.5" />
  </g>
</svg>