<?xml version="1.0" encoding="utf-8"?>
<svg version="1.1" xmlns:xlink="http://www.w3.org/1999/xlink" width="379px" height="153px" xmlns="http://www.w3.org/2000/svg">
  <g transform="matrix(1 0 0 1 -48 -555 )">
    <path d="M 49 559  A 3 3 0 0 1 52 556 L 423 556  A 3 3 0 0 1 426 559 L 426 704  A 3 3 0 0 1 423 707 L 52 707  A 3 3 0 0 1 49 704 L 49 559  Z " fill-rule="nonzero" fill="#ff3399" stroke="none" fill-opacity="0.0980392156862745" />
    <path d="M 48.5 559  A 3.5 3.5 0 0 1 52 555.5 L 423 555.5  A 3.5 3.5 0 0 1 426.5 559 L 426.5 704  A 3.5 3.5 0 0 1 423 707.5 L 52 707.5  A 3.5 3.5 0 0 1 48.5 704 L 48.5 559  Z " stroke-width="1" stroke-dasharray="9,4" stroke="#ff3399" fill="none" stroke-dashoffset="0.5" />
  </g>
</svg>