<?xml version="1.0" encoding="utf-8"?>
<svg version="1.1" xmlns:xlink="http://www.w3.org/1999/xlink" width="12px" height="12px" viewBox="725 716  12 12" xmlns="http://www.w3.org/2000/svg">
  <path d="M 731 716  C 734.36 716  737 718.64  737 722  C 737 725.36  734.36 728  731 728  C 727.64 728  725 725.36  725 722  C 725 718.64  727.64 716  731 716  Z " fill-rule="nonzero" fill="#ffffff" stroke="none" />
  <path d="M 731 716.5  C 734.08 716.5  736.5 718.92  736.5 722  C 736.5 725.08  734.08 727.5  731 727.5  C 727.92 727.5  725.5 725.08  725.5 722  C 725.5 718.92  727.92 716.5  731 716.5  Z " stroke-width="1" stroke="#797979" fill="none" />
  <path d="M 731 725  C 729.32 725  728 723.68  728 722  C 728 720.32  729.32 719  731 719  C 732.68 719  734 720.32  734 722  C 734 723.68  732.68 725  731 725  " fill-rule="nonzero" fill="#797979" stroke="none" />
</svg>