<?xml version="1.0" encoding="utf-8"?>
<svg version="1.1" xmlns:xlink="http://www.w3.org/1999/xlink" width="12px" height="12px" viewBox="639 716  12 12" xmlns="http://www.w3.org/2000/svg">
  <path d="M 645 716  C 648.36 716  651 718.64  651 722  C 651 725.36  648.36 728  645 728  C 641.64 728  639 725.36  639 722  C 639 718.64  641.64 716  645 716  Z " fill-rule="nonzero" fill="#ffffff" stroke="none" />
  <path d="M 645 716.5  C 648.08 716.5  650.5 718.92  650.5 722  C 650.5 725.08  648.08 727.5  645 727.5  C 641.92 727.5  639.5 725.08  639.5 722  C 639.5 718.92  641.92 716.5  645 716.5  Z " stroke-width="1" stroke="#797979" fill="none" />
  <path d="M 645 725  C 643.32 725  642 723.68  642 722  C 642 720.32  643.32 719  645 719  C 646.68 719  648 720.32  648 722  C 648 723.68  646.68 725  645 725  " fill-rule="nonzero" fill="#797979" stroke="none" />
</svg>