<?xml version="1.0" encoding="utf-8"?>
<svg version="1.1" xmlns:xlink="http://www.w3.org/1999/xlink" width="12px" height="12px" viewBox="809 716  12 12" xmlns="http://www.w3.org/2000/svg">
  <path d="M 815 716  C 818.36 716  821 718.64  821 722  C 821 725.36  818.36 728  815 728  C 811.64 728  809 725.36  809 722  C 809 718.64  811.64 716  815 716  Z " fill-rule="nonzero" fill="#f0f0f0" stroke="none" />
  <path d="M 815 716.5  C 818.08 716.5  820.5 718.92  820.5 722  C 820.5 725.08  818.08 727.5  815 727.5  C 811.92 727.5  809.5 725.08  809.5 722  C 809.5 718.92  811.92 716.5  815 716.5  Z " stroke-width="1" stroke="#797979" fill="none" />
  <path d="M 815 725  C 813.32 725  812 723.68  812 722  C 812 720.32  813.32 719  815 719  C 816.68 719  818 720.32  818 722  C 818 723.68  816.68 725  815 725  " fill-rule="nonzero" fill="#797979" stroke="none" />
</svg>