<?xml version="1.0" encoding="utf-8"?>
<svg version="1.1" xmlns:xlink="http://www.w3.org/1999/xlink" width="12px" height="12px" viewBox="556 716  12 12" xmlns="http://www.w3.org/2000/svg">
  <path d="M 562 716  C 565.36 716  568 718.64  568 722  C 568 725.36  565.36 728  562 728  C 558.64 728  556 725.36  556 722  C 556 718.64  558.64 716  562 716  Z " fill-rule="nonzero" fill="#f0f0f0" stroke="none" />
  <path d="M 562 716.5  C 565.08 716.5  567.5 718.92  567.5 722  C 567.5 725.08  565.08 727.5  562 727.5  C 558.92 727.5  556.5 725.08  556.5 722  C 556.5 718.92  558.92 716.5  562 716.5  Z " stroke-width="1" stroke="#797979" fill="none" />
  <path d="M 562 725  C 560.32 725  559 723.68  559 722  C 559 720.32  560.32 719  562 719  C 563.68 719  565 720.32  565 722  C 565 723.68  563.68 725  562 725  " fill-rule="nonzero" fill="#797979" stroke="none" />
</svg>