<?xml version="1.0" encoding="utf-8"?>
<svg version="1.1" xmlns:xlink="http://www.w3.org/1999/xlink" width="370px" height="269px" xmlns="http://www.w3.org/2000/svg">
  <g transform="matrix(1 0 0 1 -1015 -662 )">
    <path d="M 1016 666  A 3 3 0 0 1 1019 663 L 1381 663  A 3 3 0 0 1 1384 666 L 1384 927  A 3 3 0 0 1 1381 930 L 1019 930  A 3 3 0 0 1 1016 927 L 1016 666  Z " fill-rule="nonzero" fill="#ff3399" stroke="none" fill-opacity="0.0980392156862745" />
    <path d="M 1015.5 666  A 3.5 3.5 0 0 1 1019 662.5 L 1381 662.5  A 3.5 3.5 0 0 1 1384.5 666 L 1384.5 927  A 3.5 3.5 0 0 1 1381 930.5 L 1019 930.5  A 3.5 3.5 0 0 1 1015.5 927 L 1015.5 666  Z " stroke-width="1" stroke-dasharray="9,4" stroke="#ff3399" fill="none" stroke-dashoffset="0.5" />
  </g>
</svg>