<?xml version="1.0" encoding="utf-8"?>
<svg version="1.1" xmlns:xlink="http://www.w3.org/1999/xlink" width="200px" height="293px" xmlns="http://www.w3.org/2000/svg">
  <defs>
    <mask fill="white" id="clip47">
      <path d="M 0 287.020408163265  L 0 114.191899208664  L 0 5.97959183673469  C 0 2.63102040816325  1.75999999999999 0  4 0  L 196 0  C 198.24 0  200 2.63102040816325  200 5.97959183673469  L 200 287.020408163265  C 200 290.368979591837  198.24 293  196 293  L 4 293  C 1.75999999999999 293  0 290.368979591837  0 287.020408163265  Z " fill-rule="evenodd" />
    </mask>
  </defs>
  <g transform="matrix(1 0 0 1 -704 -526 )">
    <path d="M 0 287.020408163265  L 0 114.191899208664  L 0 5.97959183673469  C 0 2.63102040816325  1.75999999999999 0  4 0  L 196 0  C 198.24 0  200 2.63102040816325  200 5.97959183673469  L 200 287.020408163265  C 200 290.368979591837  198.24 293  196 293  L 4 293  C 1.75999999999999 293  0 290.368979591837  0 287.020408163265  Z " fill-rule="nonzero" fill="#ff3399" stroke="none" fill-opacity="0.0980392156862745" transform="matrix(1 0 0 1 704 526 )" />
    <path d="M 0 287.020408163265  L 0 114.191899208664  L 0 5.97959183673469  C 0 2.63102040816325  1.75999999999999 0  4 0  L 196 0  C 198.24 0  200 2.63102040816325  200 5.97959183673469  L 200 287.020408163265  C 200 290.368979591837  198.24 293  196 293  L 4 293  C 1.75999999999999 293  0 290.368979591837  0 287.020408163265  Z " stroke-width="2" stroke-dasharray="9,4" stroke="#ff3399" fill="none" transform="matrix(1 0 0 1 704 526 )" mask="url(#clip47)" />
  </g>
</svg>