<?xml version="1.0" encoding="utf-8"?>
<svg version="1.1" xmlns:xlink="http://www.w3.org/1999/xlink" width="27px" height="21px" xmlns="http://www.w3.org/2000/svg">
  <g transform="matrix(1 0 0 1 -1012 -152 )">
    <path d="M 26.5122580645161 2.8989898989899  C 26.8374193548387 3.22895622895623  27 3.62962962962963  27 4.1010101010101  C 27 4.57239057239057  26.8374193548387 4.97306397306397  26.5122580645161 5.3030303030303  L 13.9006451612903 18.1010101010101  L 11.5316129032258 20.5050505050505  C 11.2064516129032 20.8350168350168  10.8116129032258 21  10.3470967741935 21  C 9.88258064516129 21  9.48774193548387 20.8350168350168  9.16258064516129 20.5050505050505  L 6.79354838709677 18.1010101010101  L 0.487741935483871 11.7020202020202  C 0.16258064516129 11.3720538720539  0 10.9713804713805  0 10.5  C 0 10.0286195286195  0.16258064516129 9.62794612794613  0.487741935483871 9.2979797979798  L 2.85677419354839 6.89393939393939  C 3.18193548387097 6.56397306397306  3.57677419354839 6.3989898989899  4.04129032258065 6.3989898989899  C 4.5058064516129 6.3989898989899  4.90064516129032 6.56397306397306  5.2258064516129 6.89393939393939  L 10.3470967741935 12.1085858585859  L 21.7741935483871 0.494949494949495  C 22.0993548387097 0.164983164983164  22.4941935483871 0  22.9587096774194 0  C 23.4232258064516 0  23.818064516129 0.164983164983164  24.1432258064516 0.494949494949495  L 26.5122580645161 2.8989898989899  Z " fill-rule="nonzero" fill="#d9001b" stroke="none" fill-opacity="0.6" transform="matrix(1 0 0 1 1012 152 )" />
  </g>
</svg>