<?xml version="1.0" encoding="utf-8"?>
<svg version="1.1" xmlns:xlink="http://www.w3.org/1999/xlink" width="11px" height="17px" xmlns="http://www.w3.org/2000/svg">
  <g transform="matrix(1 0 0 1 -525 -1379 )">
    <path d="M 10.1729081274671 7.64791563205645  L 8.68421052631579 7.64791563205645  C 8.41014886557394 7.64791563205645  8.18797799259868 7.85835901027055  8.18797799259868 8.11795407308468  L 8.18797799259868 13.8947265665323  C 8.18797799259868 14.1543216293464  7.96580711962343 14.3647650075605  7.69174545888158 14.3647650075605  L 3.08670751233553 14.3647650075605  C 2.81264582445552 14.3647650075605  2.59047495148027 14.5752083857746  2.59047495148027 14.8348034485887  L 2.59047495148026 16.244918797379  C 2.59047495148026 16.5045138601932  2.81264582445552 16.7149572384073  3.08670748519737 16.7149572384073  L 10.1729081274671 16.7149572384073  C 10.4469698153471 16.7149572384073  10.6691406883224 16.5045138601932  10.6691406883224 16.244918797379  L 10.6691406883224 8.11795407308468  C 10.6691406883224 7.85835901027055  10.4469698153471 7.64791563205645  10.1729081546053 7.64791563205645  Z M 7.16992873456497 6.82555660438766  C 7.16992873456497 7.59489424210403  6.51890628944539 8.22224214699207  5.706815296875 8.23546367691532  C 5.52191866039364 8.23621648414834  5.33849190389339 8.20433678091595  5.16592182236842 8.14145599899194  L 1.05711640953947 6.61853142641129  C 0.486279990503336 6.40708194228639  0.110609141157798 5.88584325413855  0.110609141157798 5.30526421988423  C 0.110609141157798 5.12895280318407  0.145516448655447 4.95420510476114  0.213521099506578 4.79008189415323  L 1.8213145337171 0.898163570564516  C 2.04419887138099 0.356807496980995  2.59483708157201 0.000380343660875416  3.20828447861842 0.000380343660875416  C 4.03047517705112 0.000380343660875416  4.69699242987834 0.631714867599857  4.69699242987834 1.41050547051411  C 4.69699242987834 1.58579124150345  4.66249024927592 1.75954059432584  4.59525442351974 1.92284737046371  L 3.50354283305921 4.50335842893145  L 6.22785946134868 5.51394108870968  C 6.79635897174659 5.72651598241427  7.16992873456497 6.24662624503637  7.16992873456497 6.82555660438766  Z " fill-rule="nonzero" fill="#d7d7d7" stroke="none" transform="matrix(1 0 0 1 525 1379 )" />
  </g>
</svg>