<?xml version="1.0" encoding="utf-8"?>
<svg version="1.1" xmlns:xlink="http://www.w3.org/1999/xlink" width="26px" height="25px" xmlns="http://www.w3.org/2000/svg">
  <g transform="matrix(1 0 0 1 -520 -1381 )">
    <path d="M 13.0311051748587 24.999999650691  C 13.0207367713831 24.999999650691  13.0103683718617 24.999987067465  13 24.9999619010417  C 12.9982931948251 24.9999625830131  12.9965863895211 24.9999629239988  12.9948795842052 24.9999629239988  C 6.0382629830498 24.9999629239988  0.398810974150826 19.4569118041409  0.398810974150826 12.6192117260822  C 0.398810974150826 11.5040784581685  0.552087930226242 10.3940568197644  0.854483076086957 9.31926432291667  C 1.02791569751127 8.69850365128145  1.60206984623607 8.26824607346961  2.25700686514946 8.26824607346961  C 3.06027513212597 8.26824607346961  3.71145272341842 8.90829242388527  3.71145272341842 9.697829609375  C 3.71145272341842 9.82573285847607  3.69398950964842 9.95305764780669  3.65953065421196 10.0763948958333  C 3.4261015845162 10.9045201609234  3.30777615789112 11.7598886536867  3.30777615789112 12.6192102646216  C 3.30777615789112 17.8789795543296  7.64581616382402 22.1428650302466  12.9970597020487 22.1428650302466  C 18.3483032402734 22.1428650302466  22.6863432462063 17.8789795543296  22.6863432462063 12.6192102646216  C 22.6863432462063 7.36056956890477  18.3500950701742 3.09715171807486  13 3.0955559375  C 11.4340216597449 3.08919542354779  9.89034293004215 3.46034312969336  8.50417243953804 4.17649075520834  C 8.26162875928117 4.34077554265857  7.9740240321134 4.42874615733132  7.67946698108399 4.42874615733132  C 6.87678045693492 4.42874615733132  6.2260744613829 3.78916334119044  6.2260744613829 3.00019795420632  C 6.2260744613829 2.4092464854866  6.59626616706862 1.87929635591095  7.15736201834239 1.667007734375  C 8.96810446972819 0.72881381884671  10.9841859780909 0.238497254857669  13.0311051748587 0.238497254857669  C 19.987721776014 0.238497254857669  25.627173784913 5.78154837471563  25.627173784913 12.6192484527743  C 25.627173784913 19.456948530833  19.987721776014 24.999999650691  13.0311051748587 24.999999650691  Z " fill-rule="nonzero" fill="#d7d7d7" stroke="none" transform="matrix(1 0 0 1 520 1381 )" />
  </g>
</svg>