<?xml version="1.0" encoding="utf-8"?>
<svg version="1.1" xmlns:xlink="http://www.w3.org/1999/xlink" width="234px" height="90px" xmlns="http://www.w3.org/2000/svg">
  <g transform="matrix(1 0 0 1 -589 -2949 )">
    <path d="M 590 2953  A 3 3 0 0 1 593 2950 L 819 2950  A 3 3 0 0 1 822 2953 L 822 3035  A 3 3 0 0 1 819 3038 L 593 3038  A 3 3 0 0 1 590 3035 L 590 2953  Z " fill-rule="nonzero" fill="#ff3399" stroke="none" fill-opacity="0.0980392156862745" />
    <path d="M 589.5 2953  A 3.5 3.5 0 0 1 593 2949.5 L 819 2949.5  A 3.5 3.5 0 0 1 822.5 2953 L 822.5 3035  A 3.5 3.5 0 0 1 819 3038.5 L 593 3038.5  A 3.5 3.5 0 0 1 589.5 3035 L 589.5 2953  Z " stroke-width="1" stroke-dasharray="9,4" stroke="#ff3399" fill="none" stroke-dashoffset="0.5" />
  </g>
</svg>