<?xml version="1.0" encoding="utf-8"?>
<svg version="1.1" xmlns:xlink="http://www.w3.org/1999/xlink" width="142px" height="63px" xmlns="http://www.w3.org/2000/svg">
  <g transform="matrix(1 0 0 1 -599 -2327 )">
    <path d="M 600 2331  A 3 3 0 0 1 603 2328 L 737 2328  A 3 3 0 0 1 740 2331 L 740 2386  A 3 3 0 0 1 737 2389 L 603 2389  A 3 3 0 0 1 600 2386 L 600 2331  Z " fill-rule="nonzero" fill="#ff3399" stroke="none" fill-opacity="0.0980392156862745" />
    <path d="M 599.5 2331  A 3.5 3.5 0 0 1 603 2327.5 L 737 2327.5  A 3.5 3.5 0 0 1 740.5 2331 L 740.5 2386  A 3.5 3.5 0 0 1 737 2389.5 L 603 2389.5  A 3.5 3.5 0 0 1 599.5 2386 L 599.5 2331  Z " stroke-width="1" stroke-dasharray="9,4" stroke="#ff3399" fill="none" stroke-dashoffset="0.5" />
  </g>
</svg>