<?xml version="1.0" encoding="utf-8"?>
<svg version="1.1" xmlns:xlink="http://www.w3.org/1999/xlink" width="450px" height="525px" xmlns="http://www.w3.org/2000/svg">
  <g transform="matrix(1 0 0 1 -2555 -2293 )">
    <path d="M 2556 2297  A 3 3 0 0 1 2559 2294 L 3001 2294  A 3 3 0 0 1 3004 2297 L 3004 2814  A 3 3 0 0 1 3001 2817 L 2559 2817  A 3 3 0 0 1 2556 2814 L 2556 2297  Z " fill-rule="nonzero" fill="#ff3399" stroke="none" fill-opacity="0.0980392156862745" />
    <path d="M 2555.5 2297  A 3.5 3.5 0 0 1 2559 2293.5 L 3001 2293.5  A 3.5 3.5 0 0 1 3004.5 2297 L 3004.5 2814  A 3.5 3.5 0 0 1 3001 2817.5 L 2559 2817.5  A 3.5 3.5 0 0 1 2555.5 2814 L 2555.5 2297  Z " stroke-width="1" stroke-dasharray="9,4" stroke="#ff3399" fill="none" stroke-dashoffset="0.5" />
  </g>
</svg>