<?xml version="1.0" encoding="utf-8"?>
<svg version="1.1" xmlns:xlink="http://www.w3.org/1999/xlink" width="355px" height="251px" xmlns="http://www.w3.org/2000/svg">
  <g transform="matrix(1 0 0 1 -94 -236 )">
    <path d="M 94 236  L 449 236  L 449 487  L 94 487  L 94 236  " fill-rule="nonzero" fill="#cccccc" stroke="none" />
    <path d="M 112 254  L 431 254  L 431 469  L 112 469  L 112 254  " fill-rule="nonzero" fill="#ffffff" stroke="none" />
    <path d="M 297.425 311.3  C 286.883 311.3  278.6 303.017  278.6 292.475  C 278.6 281.933  286.883 273.65  297.425 273.65  C 307.967 273.65  316.25 281.933  316.25 292.475  C 316.25 303.017  307.967 311.3  297.425 311.3  " fill-rule="nonzero" fill="#cccccc" stroke="none" />
    <path d="M 119 463  L 119 351.9  L 195.5 301.4  L 302.6 377.306478873239  L 363.8 331.7  L 425 377.306478873239  L 425 463  L 119 463  " fill-rule="nonzero" fill="#169bd5" stroke="none" />
  </g>
</svg>