<?xml version="1.0" encoding="utf-8"?>
<svg version="1.1" xmlns:xlink="http://www.w3.org/1999/xlink" width="22px" height="22px" xmlns="http://www.w3.org/2000/svg">
  <g transform="matrix(1 0 0 1 -176 -171 )">
    <path d="M 1.18268141553181E-05 11  C 1.18268141553181E-05 4.93441667382812  4.93259250131574 0  10.9972559148854 0  L 11.0027559119287 0  C 17.0683359773494 0  22 4.93441667382812  22 11  C 22 17.0655833261719  17.0674193254984 22  11.0027559119287 22  C 8.76609044049337 22  6.6907582299843 21.3335833261719  4.95275916430261 20.1831666738281  L 0.724178089858614 21.5343333261719  L 2.09459402697477 17.4469166738281  C 0.730156087153472 15.5745649033298  -0.00339697428542129 13.3167611930885  1.18268141553181E-05 11  Z M 7.85034093278452 6.04633332617188  C 7.64042437180391 5.54491665234375  7.48092445754832 5.52566665234375  7.16284130237246 5.51283332617187  C 7.04199456944738 5.50497337096915  6.92094158191261 5.50069371998222  6.79984149751489 5.5  C 6.38550839408135 5.5  5.95284195284724 5.621  5.69067541995532 5.88775  C 5.37442558996577 6.21133332617188  4.58334268906642 6.96666667382812  4.58334268906642 8.51858332617187  C 4.58334268906642 10.0686666523438  5.71725875332083 11.5683333261719  5.86942532386245 11.77825  C 6.02892523811805 11.98725  8.08042413526763 15.21575  11.2640057714853 16.5311666738281  C 13.7545877587633 17.5605833476562  14.4934207092357 17.46525  15.0608370565462 17.34425  C 15.8885866115623 17.1664166738281  16.926252727559 16.5559166738281  17.1875025871156 15.8198333261719  C 17.4487524466722 15.0819166523437  17.4487524466722 14.4530833261719  17.372669139917 14.31925  C 17.2956691813109 14.1863333261719  17.0857526203303 14.11025  16.7676694651544 13.95075  C 16.4486696366432 13.7921666738281  14.9013371422906 13.0295  14.6080039738096 12.92775  C 14.3210874542228 12.8205  14.0479209487287 12.8580833261719  13.8315877173694 13.1633333261719  C 13.5254212081311 13.5886666523437  13.2265880426068 14.0213333261719  12.9836714993664 14.2816666738281  C 12.7930049280374 14.4851666738281  12.4804217699048 14.5108333476562  12.2200885836836 14.4026666738281  C 11.8699220980989 14.256  10.8890892992058 13.9131666738281  9.67817327634526 12.8388333261719  C 8.74225710564952 12.0065  8.10517412196247 10.9706666523437  7.92092422101204 10.6599166738281  C 7.73575764672627 10.3418333476562  7.9016742313605 10.1575833476562  8.04834082634319 9.98616667382812  C 8.20692406726345 9.78908334765625  8.36000733262478 9.64975  8.51950724688037 9.4655  C 8.67900716113597 9.28125  8.76700711382871 9.18591667382812  8.86967371098067 8.96958332617187  C 8.97784032666029 8.75966665234375  8.90175701990512 8.54333332617187  8.82475708278333 8.38475  C 8.74867379751251 8.22616667382812  8.1115907923411 6.67516667382812  7.85034093278452 6.04725  Z " fill-rule="nonzero" fill="#25d366" stroke="none" transform="matrix(1 0 0 1 176 171 )" />
  </g>
</svg>