<?xml version="1.0" encoding="utf-8"?>
<svg version="1.1" xmlns:xlink="http://www.w3.org/1999/xlink" width="234px" height="93px" xmlns="http://www.w3.org/2000/svg">
  <g transform="matrix(1 0 0 1 -891 -1776 )">
    <path d="M 892 1780  A 3 3 0 0 1 895 1777 L 1121 1777  A 3 3 0 0 1 1124 1780 L 1124 1865  A 3 3 0 0 1 1121 1868 L 895 1868  A 3 3 0 0 1 892 1865 L 892 1780  Z " fill-rule="nonzero" fill="#ff3399" stroke="none" fill-opacity="0.0980392156862745" />
    <path d="M 891.5 1780  A 3.5 3.5 0 0 1 895 1776.5 L 1121 1776.5  A 3.5 3.5 0 0 1 1124.5 1780 L 1124.5 1865  A 3.5 3.5 0 0 1 1121 1868.5 L 895 1868.5  A 3.5 3.5 0 0 1 891.5 1865 L 891.5 1780  Z " stroke-width="1" stroke-dasharray="9,4" stroke="#ff3399" fill="none" stroke-dashoffset="0.5" />
  </g>
</svg>