<?xml version="1.0" encoding="utf-8"?>
<svg version="1.1" xmlns:xlink="http://www.w3.org/1999/xlink" width="10px" height="17px" preserveAspectRatio="xMidYMin meet" viewBox="1522 118  8 17" xmlns="http://www.w3.org/2000/svg">
  <path d="M 1401 130.5  L 1522.5 130.5  A 3.5 3.5 0 0 0 1526.5 127 A 3.5 3.5 0 0 1 1530 123.5 L 1648 123.5  " stroke-width="1" stroke="#d9001b" fill="none" stroke-opacity="0.764705882352941" />
  <path d="M 1403 127.5  A 3 3 0 0 0 1400 130.5 A 3 3 0 0 0 1403 133.5 A 3 3 0 0 0 1406 130.5 A 3 3 0 0 0 1403 127.5 Z M 1647 129.8  L 1653 123.5  L 1647 117.2  L 1647 129.8  Z " fill-rule="nonzero" fill="#d9001b" stroke="none" fill-opacity="0.764705882352941" />
</svg>