<?xml version="1.0" encoding="utf-8"?>
<svg version="1.1" xmlns:xlink="http://www.w3.org/1999/xlink" width="25px" height="10px" preserveAspectRatio="xMinYMid meet" viewBox="1183 584.571428571428  25 8" xmlns="http://www.w3.org/2000/svg">
  <path d="M 1300 474.5  L 1208 474.5  A 5 5 0 0 0 1203.5 479.5 L 1203.5 583.571428571428  A 5 5 0 0 1 1198.5 589.071428571428 L 1193 589.071428571428  A 5 5 0 0 0 1188.5 594.071428571428 L 1188.5 630  " stroke-width="1" stroke="#d9001b" fill="none" stroke-opacity="0.764705882352941" />
  <path d="M 1298 471.5  A 3 3 0 0 0 1295 474.5 A 3 3 0 0 0 1298 477.5 A 3 3 0 0 0 1301 474.5 A 3 3 0 0 0 1298 471.5 Z M 1182.2 629  L 1188.5 635  L 1194.8 629  L 1182.2 629  Z " fill-rule="nonzero" fill="#d9001b" stroke="none" fill-opacity="0.764705882352941" />
</svg>