<?xml version="1.0" encoding="utf-8"?>
<svg version="1.1" xmlns:xlink="http://www.w3.org/1999/xlink" width="273px" height="138px" xmlns="http://www.w3.org/2000/svg">
  <g transform="matrix(1 0 0 1 -655 -957 )">
    <path d="M 656 961  A 3 3 0 0 1 659 958 L 924 958  A 3 3 0 0 1 927 961 L 927 1091  A 3 3 0 0 1 924 1094 L 659 1094  A 3 3 0 0 1 656 1091 L 656 961  Z " fill-rule="nonzero" fill="#ff3399" stroke="none" fill-opacity="0.0980392156862745" />
    <path d="M 655.5 961  A 3.5 3.5 0 0 1 659 957.5 L 924 957.5  A 3.5 3.5 0 0 1 927.5 961 L 927.5 1091  A 3.5 3.5 0 0 1 924 1094.5 L 659 1094.5  A 3.5 3.5 0 0 1 655.5 1091 L 655.5 961  Z " stroke-width="1" stroke-dasharray="9,4" stroke="#ff3399" fill="none" stroke-dashoffset="0.5" />
  </g>
</svg>