<?xml version="1.0" encoding="utf-8"?>
<svg version="1.1" xmlns:xlink="http://www.w3.org/1999/xlink" width="12px" height="12px" viewBox="866 204  12 12" xmlns="http://www.w3.org/2000/svg">
  <path d="M 872 204  C 875.36 204  878 206.64  878 210  C 878 213.36  875.36 216  872 216  C 868.64 216  866 213.36  866 210  C 866 206.64  868.64 204  872 204  Z " fill-rule="nonzero" fill="#ffffff" stroke="none" />
  <path d="M 872 204.5  C 875.08 204.5  877.5 206.92  877.5 210  C 877.5 213.08  875.08 215.5  872 215.5  C 868.92 215.5  866.5 213.08  866.5 210  C 866.5 206.92  868.92 204.5  872 204.5  Z " stroke-width="1" stroke="#797979" fill="none" />
  <path d="M 872 213  C 870.32 213  869 211.68  869 210  C 869 208.32  870.32 207  872 207  C 873.68 207  875 208.32  875 210  C 875 211.68  873.68 213  872 213  " fill-rule="nonzero" fill="#797979" stroke="none" />
</svg>