<?xml version="1.0" encoding="utf-8"?>
<svg version="1.1" xmlns:xlink="http://www.w3.org/1999/xlink" width="12px" height="12px" viewBox="804 204  12 12" xmlns="http://www.w3.org/2000/svg">
  <path d="M 810 204  C 813.36 204  816 206.64  816 210  C 816 213.36  813.36 216  810 216  C 806.64 216  804 213.36  804 210  C 804 206.64  806.64 204  810 204  Z " fill-rule="nonzero" fill="#ffffff" stroke="none" />
  <path d="M 810 204.5  C 813.08 204.5  815.5 206.92  815.5 210  C 815.5 213.08  813.08 215.5  810 215.5  C 806.92 215.5  804.5 213.08  804.5 210  C 804.5 206.92  806.92 204.5  810 204.5  Z " stroke-width="1" stroke="#797979" fill="none" />
  <path d="M 810 213  C 808.32 213  807 211.68  807 210  C 807 208.32  808.32 207  810 207  C 811.68 207  813 208.32  813 210  C 813 211.68  811.68 213  810 213  " fill-rule="nonzero" fill="#797979" stroke="none" />
</svg>