<?xml version="1.0" encoding="utf-8"?>
<svg version="1.1" xmlns:xlink="http://www.w3.org/1999/xlink" width="12px" height="12px" viewBox="866 252  12 12" xmlns="http://www.w3.org/2000/svg">
  <path d="M 872 252  C 875.36 252  878 254.64  878 258  C 878 261.36  875.36 264  872 264  C 868.64 264  866 261.36  866 258  C 866 254.64  868.64 252  872 252  Z " fill-rule="nonzero" fill="#f0f0f0" stroke="none" />
  <path d="M 872 252.5  C 875.08 252.5  877.5 254.92  877.5 258  C 877.5 261.08  875.08 263.5  872 263.5  C 868.92 263.5  866.5 261.08  866.5 258  C 866.5 254.92  868.92 252.5  872 252.5  Z " stroke-width="1" stroke="#797979" fill="none" />
  <path d="M 872 261  C 870.32 261  869 259.68  869 258  C 869 256.32  870.32 255  872 255  C 873.68 255  875 256.32  875 258  C 875 259.68  873.68 261  872 261  " fill-rule="nonzero" fill="#797979" stroke="none" />
</svg>