<?xml version="1.0" encoding="utf-8"?>
<svg version="1.1" xmlns:xlink="http://www.w3.org/1999/xlink" width="12px" height="12px" viewBox="804 296  12 12" xmlns="http://www.w3.org/2000/svg">
  <path d="M 810 296  C 813.36 296  816 298.64  816 302  C 816 305.36  813.36 308  810 308  C 806.64 308  804 305.36  804 302  C 804 298.64  806.64 296  810 296  Z " fill-rule="nonzero" fill="#f0f0f0" stroke="none" />
  <path d="M 810 296.5  C 813.08 296.5  815.5 298.92  815.5 302  C 815.5 305.08  813.08 307.5  810 307.5  C 806.92 307.5  804.5 305.08  804.5 302  C 804.5 298.92  806.92 296.5  810 296.5  Z " stroke-width="1" stroke="#797979" fill="none" />
  <path d="M 810 305  C 808.32 305  807 303.68  807 302  C 807 300.32  808.32 299  810 299  C 811.68 299  813 300.32  813 302  C 813 303.68  811.68 305  810 305  " fill-rule="nonzero" fill="#797979" stroke="none" />
</svg>