<?xml version="1.0" encoding="utf-8"?>
<svg version="1.1" xmlns:xlink="http://www.w3.org/1999/xlink" width="12px" height="12px" viewBox="866 296  12 12" xmlns="http://www.w3.org/2000/svg">
  <path d="M 872 296  C 875.36 296  878 298.64  878 302  C 878 305.36  875.36 308  872 308  C 868.64 308  866 305.36  866 302  C 866 298.64  868.64 296  872 296  Z " fill-rule="nonzero" fill="#f0f0f0" stroke="none" />
  <path d="M 872 296.5  C 875.08 296.5  877.5 298.92  877.5 302  C 877.5 305.08  875.08 307.5  872 307.5  C 868.92 307.5  866.5 305.08  866.5 302  C 866.5 298.92  868.92 296.5  872 296.5  Z " stroke-width="1" stroke="#797979" fill="none" />
  <path d="M 872 305  C 870.32 305  869 303.68  869 302  C 869 300.32  870.32 299  872 299  C 873.68 299  875 300.32  875 302  C 875 303.68  873.68 305  872 305  " fill-rule="nonzero" fill="#797979" stroke="none" />
</svg>