<?xml version="1.0" encoding="utf-8"?>
<svg version="1.1" xmlns:xlink="http://www.w3.org/1999/xlink" width="12px" height="12px" viewBox="1116 736  12 12" xmlns="http://www.w3.org/2000/svg">
  <path d="M 1122 736  C 1125.36 736  1128 738.64  1128 742  C 1128 745.36  1125.36 748  1122 748  C 1118.64 748  1116 745.36  1116 742  C 1116 738.64  1118.64 736  1122 736  Z " fill-rule="nonzero" fill="#f0f0f0" stroke="none" />
  <path d="M 1122 736.5  C 1125.08 736.5  1127.5 738.92  1127.5 742  C 1127.5 745.08  1125.08 747.5  1122 747.5  C 1118.92 747.5  1116.5 745.08  1116.5 742  C 1116.5 738.92  1118.92 736.5  1122 736.5  Z " stroke-width="1" stroke="#797979" fill="none" />
  <path d="M 1122 745  C 1120.32 745  1119 743.68  1119 742  C 1119 740.32  1120.32 739  1122 739  C 1123.68 739  1125 740.32  1125 742  C 1125 743.68  1123.68 745  1122 745  " fill-rule="nonzero" fill="#797979" stroke="none" />
</svg>