<?xml version="1.0" encoding="utf-8"?>
<svg version="1.1" xmlns:xlink="http://www.w3.org/1999/xlink" width="12px" height="12px" viewBox="1054 736  12 12" xmlns="http://www.w3.org/2000/svg">
  <path d="M 1060 736  C 1063.36 736  1066 738.64  1066 742  C 1066 745.36  1063.36 748  1060 748  C 1056.64 748  1054 745.36  1054 742  C 1054 738.64  1056.64 736  1060 736  Z " fill-rule="nonzero" fill="#ffffff" stroke="none" />
  <path d="M 1060 736.5  C 1063.08 736.5  1065.5 738.92  1065.5 742  C 1065.5 745.08  1063.08 747.5  1060 747.5  C 1056.92 747.5  1054.5 745.08  1054.5 742  C 1054.5 738.92  1056.92 736.5  1060 736.5  Z " stroke-width="1" stroke="#797979" fill="none" />
  <path d="M 1060 745  C 1058.32 745  1057 743.68  1057 742  C 1057 740.32  1058.32 739  1060 739  C 1061.68 739  1063 740.32  1063 742  C 1063 743.68  1061.68 745  1060 745  " fill-rule="nonzero" fill="#797979" stroke="none" />
</svg>