<?xml version="1.0" encoding="utf-8"?>
<svg version="1.1" xmlns:xlink="http://www.w3.org/1999/xlink" width="104px" height="104px" xmlns="http://www.w3.org/2000/svg">
  <g transform="matrix(1 0 0 1 -827 -881 )">
    <path d="M 828 885  A 3 3 0 0 1 831 882 L 927 882  A 3 3 0 0 1 930 885 L 930 981  A 3 3 0 0 1 927 984 L 831 984  A 3 3 0 0 1 828 981 L 828 885  Z " fill-rule="nonzero" fill="#000000" stroke="none" fill-opacity="0.0196078431372549" />
    <path d="M 827.5 885  A 3.5 3.5 0 0 1 831 881.5 L 927 881.5  A 3.5 3.5 0 0 1 930.5 885 L 930.5 981  A 3.5 3.5 0 0 1 927 984.5 L 831 984.5  A 3.5 3.5 0 0 1 827.5 981 L 827.5 885  Z " stroke-width="1" stroke-dasharray="9,4" stroke="#d9d9d9" fill="none" stroke-dashoffset="0.5" />
  </g>
</svg>