<?xml version="1.0" encoding="utf-8"?>
<svg version="1.1" xmlns:xlink="http://www.w3.org/1999/xlink" width="12px" height="12px" viewBox="695 252  12 12" xmlns="http://www.w3.org/2000/svg">
  <path d="M 701 252  C 704.36 252  707 254.64  707 258  C 707 261.36  704.36 264  701 264  C 697.64 264  695 261.36  695 258  C 695 254.64  697.64 252  701 252  Z " fill-rule="nonzero" fill="#ffffff" stroke="none" />
  <path d="M 701 252.5  C 704.08 252.5  706.5 254.92  706.5 258  C 706.5 261.08  704.08 263.5  701 263.5  C 697.92 263.5  695.5 261.08  695.5 258  C 695.5 254.92  697.92 252.5  701 252.5  Z " stroke-width="1" stroke="#797979" fill="none" />
  <path d="M 701 261  C 699.32 261  698 259.68  698 258  C 698 256.32  699.32 255  701 255  C 702.68 255  704 256.32  704 258  C 704 259.68  702.68 261  701 261  " fill-rule="nonzero" fill="#797979" stroke="none" />
</svg>