<?xml version="1.0" encoding="utf-8"?>
<svg version="1.1" xmlns:xlink="http://www.w3.org/1999/xlink" width="12px" height="12px" viewBox="757 252  12 12" xmlns="http://www.w3.org/2000/svg">
  <path d="M 763 252  C 766.36 252  769 254.64  769 258  C 769 261.36  766.36 264  763 264  C 759.64 264  757 261.36  757 258  C 757 254.64  759.64 252  763 252  Z " fill-rule="nonzero" fill="#f0f0f0" stroke="none" />
  <path d="M 763 252.5  C 766.08 252.5  768.5 254.92  768.5 258  C 768.5 261.08  766.08 263.5  763 263.5  C 759.92 263.5  757.5 261.08  757.5 258  C 757.5 254.92  759.92 252.5  763 252.5  Z " stroke-width="1" stroke="#797979" fill="none" />
  <path d="M 763 261  C 761.32 261  760 259.68  760 258  C 760 256.32  761.32 255  763 255  C 764.68 255  766 256.32  766 258  C 766 259.68  764.68 261  763 261  " fill-rule="nonzero" fill="#797979" stroke="none" />
</svg>