<?xml version="1.0" encoding="utf-8"?>
<svg version="1.1" xmlns:xlink="http://www.w3.org/1999/xlink" width="12px" height="12px" viewBox="695 204  12 12" xmlns="http://www.w3.org/2000/svg">
  <path d="M 701 204  C 704.36 204  707 206.64  707 210  C 707 213.36  704.36 216  701 216  C 697.64 216  695 213.36  695 210  C 695 206.64  697.64 204  701 204  Z " fill-rule="nonzero" fill="#ffffff" stroke="none" />
  <path d="M 701 204.5  C 704.08 204.5  706.5 206.92  706.5 210  C 706.5 213.08  704.08 215.5  701 215.5  C 697.92 215.5  695.5 213.08  695.5 210  C 695.5 206.92  697.92 204.5  701 204.5  Z " stroke-width="1" stroke="#797979" fill="none" />
  <path d="M 701 213  C 699.32 213  698 211.68  698 210  C 698 208.32  699.32 207  701 207  C 702.68 207  704 208.32  704 210  C 704 211.68  702.68 213  701 213  " fill-rule="nonzero" fill="#797979" stroke="none" />
</svg>