<?xml version="1.0" encoding="utf-8"?>
<svg version="1.1" xmlns:xlink="http://www.w3.org/1999/xlink" width="12px" height="12px" viewBox="695 296  12 12" xmlns="http://www.w3.org/2000/svg">
  <path d="M 701 296  C 704.36 296  707 298.64  707 302  C 707 305.36  704.36 308  701 308  C 697.64 308  695 305.36  695 302  C 695 298.64  697.64 296  701 296  Z " fill-rule="nonzero" fill="#ffffff" stroke="none" />
  <path d="M 701 296.5  C 704.08 296.5  706.5 298.92  706.5 302  C 706.5 305.08  704.08 307.5  701 307.5  C 697.92 307.5  695.5 305.08  695.5 302  C 695.5 298.92  697.92 296.5  701 296.5  Z " stroke-width="1" stroke="#797979" fill="none" />
  <path d="M 701 305  C 699.32 305  698 303.68  698 302  C 698 300.32  699.32 299  701 299  C 702.68 299  704 300.32  704 302  C 704 303.68  702.68 305  701 305  " fill-rule="nonzero" fill="#797979" stroke="none" />
</svg>