<?xml version="1.0" encoding="utf-8"?>
<svg version="1.1" xmlns:xlink="http://www.w3.org/1999/xlink" width="12px" height="12px" viewBox="757 204  12 12" xmlns="http://www.w3.org/2000/svg">
  <path d="M 763 204  C 766.36 204  769 206.64  769 210  C 769 213.36  766.36 216  763 216  C 759.64 216  757 213.36  757 210  C 757 206.64  759.64 204  763 204  Z " fill-rule="nonzero" fill="#f0f0f0" stroke="none" />
  <path d="M 763 204.5  C 766.08 204.5  768.5 206.92  768.5 210  C 768.5 213.08  766.08 215.5  763 215.5  C 759.92 215.5  757.5 213.08  757.5 210  C 757.5 206.92  759.92 204.5  763 204.5  Z " stroke-width="1" stroke="#797979" fill="none" />
  <path d="M 763 213  C 761.32 213  760 211.68  760 210  C 760 208.32  761.32 207  763 207  C 764.68 207  766 208.32  766 210  C 766 211.68  764.68 213  763 213  " fill-rule="nonzero" fill="#797979" stroke="none" />
</svg>