<?xml version="1.0" encoding="utf-8"?>
<svg version="1.1" xmlns:xlink="http://www.w3.org/1999/xlink" width="12px" height="12px" viewBox="1015 733  12 12" xmlns="http://www.w3.org/2000/svg">
  <path d="M 1021 733  C 1024.36 733  1027 735.64  1027 739  C 1027 742.36  1024.36 745  1021 745  C 1017.64 745  1015 742.36  1015 739  C 1015 735.64  1017.64 733  1021 733  Z " fill-rule="nonzero" fill="#f0f0f0" stroke="none" />
  <path d="M 1021 733.5  C 1024.08 733.5  1026.5 735.92  1026.5 739  C 1026.5 742.08  1024.08 744.5  1021 744.5  C 1017.92 744.5  1015.5 742.08  1015.5 739  C 1015.5 735.92  1017.92 733.5  1021 733.5  Z " stroke-width="1" stroke="#797979" fill="none" />
  <path d="M 1021 742  C 1019.32 742  1018 740.68  1018 739  C 1018 737.32  1019.32 736  1021 736  C 1022.68 736  1024 737.32  1024 739  C 1024 740.68  1022.68 742  1021 742  " fill-rule="nonzero" fill="#797979" stroke="none" />
</svg>