<?xml version="1.0" encoding="utf-8"?>
<svg version="1.1" xmlns:xlink="http://www.w3.org/1999/xlink" width="12px" height="12px" viewBox="953 733  12 12" xmlns="http://www.w3.org/2000/svg">
  <path d="M 959 733  C 962.36 733  965 735.64  965 739  C 965 742.36  962.36 745  959 745  C 955.64 745  953 742.36  953 739  C 953 735.64  955.64 733  959 733  Z " fill-rule="nonzero" fill="#ffffff" stroke="none" />
  <path d="M 959 733.5  C 962.08 733.5  964.5 735.92  964.5 739  C 964.5 742.08  962.08 744.5  959 744.5  C 955.92 744.5  953.5 742.08  953.5 739  C 953.5 735.92  955.92 733.5  959 733.5  Z " stroke-width="1" stroke="#797979" fill="none" />
  <path d="M 959 742  C 957.32 742  956 740.68  956 739  C 956 737.32  957.32 736  959 736  C 960.68 736  962 737.32  962 739  C 962 740.68  960.68 742  959 742  " fill-rule="nonzero" fill="#797979" stroke="none" />
</svg>