<?xml version="1.0" encoding="utf-8"?>
<svg version="1.1" xmlns:xlink="http://www.w3.org/1999/xlink" width="232px" height="197px" xmlns="http://www.w3.org/2000/svg">
  <g transform="matrix(1 0 0 1 -474 -524 )">
    <path d="M 475 528  A 3 3 0 0 1 478 525 L 702 525  A 3 3 0 0 1 705 528 L 705 717  A 3 3 0 0 1 702 720 L 478 720  A 3 3 0 0 1 475 717 L 475 528  Z " fill-rule="nonzero" fill="#ff3399" stroke="none" fill-opacity="0.0980392156862745" />
    <path d="M 474.5 528  A 3.5 3.5 0 0 1 478 524.5 L 702 524.5  A 3.5 3.5 0 0 1 705.5 528 L 705.5 717  A 3.5 3.5 0 0 1 702 720.5 L 478 720.5  A 3.5 3.5 0 0 1 474.5 717 L 474.5 528  Z " stroke-width="1" stroke-dasharray="9,4" stroke="#ff3399" fill="none" stroke-dashoffset="0.5" />
  </g>
</svg>