<?xml version="1.0" encoding="utf-8"?>
<svg version="1.1" xmlns:xlink="http://www.w3.org/1999/xlink" width="297px" height="161px" xmlns="http://www.w3.org/2000/svg">
  <g transform="matrix(1 0 0 1 -100 -309 )">
    <path d="M 101 313  A 3 3 0 0 1 104 310 L 393 310  A 3 3 0 0 1 396 313 L 396 466  A 3 3 0 0 1 393 469 L 104 469  A 3 3 0 0 1 101 466 L 101 313  Z " fill-rule="nonzero" fill="#ff3399" stroke="none" fill-opacity="0.0980392156862745" />
    <path d="M 100.5 313  A 3.5 3.5 0 0 1 104 309.5 L 393 309.5  A 3.5 3.5 0 0 1 396.5 313 L 396.5 466  A 3.5 3.5 0 0 1 393 469.5 L 104 469.5  A 3.5 3.5 0 0 1 100.5 466 L 100.5 313  Z " stroke-width="1" stroke-dasharray="9,4" stroke="#ff3399" fill="none" stroke-dashoffset="0.5" />
  </g>
</svg>