<?xml version="1.0" encoding="utf-8"?>
<svg version="1.1" xmlns:xlink="http://www.w3.org/1999/xlink" width="172px" height="66px" xmlns="http://www.w3.org/2000/svg">
  <g transform="matrix(1 0 0 1 -1145 -681 )">
    <path d="M 1146 685  A 3 3 0 0 1 1149 682 L 1313 682  A 3 3 0 0 1 1316 685 L 1316 743  A 3 3 0 0 1 1313 746 L 1149 746  A 3 3 0 0 1 1146 743 L 1146 685  Z " fill-rule="nonzero" fill="#ff3399" stroke="none" fill-opacity="0.0980392156862745" />
    <path d="M 1145.5 685  A 3.5 3.5 0 0 1 1149 681.5 L 1313 681.5  A 3.5 3.5 0 0 1 1316.5 685 L 1316.5 743  A 3.5 3.5 0 0 1 1313 746.5 L 1149 746.5  A 3.5 3.5 0 0 1 1145.5 743 L 1145.5 685  Z " stroke-width="1" stroke-dasharray="9,4" stroke="#ff3399" fill="none" stroke-dashoffset="0.5" />
  </g>
</svg>