<?xml version="1.0" encoding="utf-8"?>
<svg version="1.1" xmlns:xlink="http://www.w3.org/1999/xlink" width="264px" height="171px" xmlns="http://www.w3.org/2000/svg">
  <g transform="matrix(1 0 0 1 -117 -554 )">
    <path d="M 118 558  A 3 3 0 0 1 121 555 L 377 555  A 3 3 0 0 1 380 558 L 380 721  A 3 3 0 0 1 377 724 L 121 724  A 3 3 0 0 1 118 721 L 118 558  Z " fill-rule="nonzero" fill="#ff3399" stroke="none" fill-opacity="0.0980392156862745" />
    <path d="M 117.5 558  A 3.5 3.5 0 0 1 121 554.5 L 377 554.5  A 3.5 3.5 0 0 1 380.5 558 L 380.5 721  A 3.5 3.5 0 0 1 377 724.5 L 121 724.5  A 3.5 3.5 0 0 1 117.5 721 L 117.5 558  Z " stroke-width="1" stroke-dasharray="9,4" stroke="#ff3399" fill="none" stroke-dashoffset="0.5" />
  </g>
</svg>