<?xml version="1.0" encoding="utf-8"?>
<svg version="1.1" xmlns:xlink="http://www.w3.org/1999/xlink" width="19.4076374884783px" height="18px" viewBox="922.208460313293 516.542829011444  19.4076374884783 18" xmlns="http://www.w3.org/2000/svg">
  <defs>
    <mask fill="white" id="clip22">
      <path d="M 805.5 576  L 894.5 576  L 894.5 610  L 805.5 610  Z M 756 514  L 944 514  L 944 672  L 756 672  Z " fill-rule="evenodd" />
    </mask>
  </defs>
  <g transform="matrix(-0.771930235617051 -0.635707252861102 0.635707252861104 -0.771930235617047 1317.19215611312 1523.64862366429 )">
    <path d="M 765.771930235617 662.364292747139  L 931.140348821915 526.178536264306  " stroke-width="1" stroke="#d9001b" fill="none" stroke-opacity="0.764705882352941" mask="url(#clip22)" />
    <path d="M 767.315790706851 658.092878241417  A 3 3 0 0 0 764.315790706851 661.092878241417 A 3 3 0 0 0 767.315790706851 664.092878241417 A 3 3 0 0 0 770.315790706851 661.092878241417 A 3 3 0 0 0 767.315790706851 658.092878241417 Z M 934.373374279323 531.677404001554  L 935 523  L 926.363462893273 521.951083032779  L 934.373374279323 531.677404001554  Z " fill-rule="nonzero" fill="#d9001b" stroke="none" fill-opacity="0.764705882352941" mask="url(#clip22)" />
  </g>
</svg>