<?xml version="1.0" encoding="utf-8"?>
<svg version="1.1" xmlns:xlink="http://www.w3.org/1999/xlink" width="19.2451741707874px" height="18px" viewBox="758.72980491288 655.005717599482  19.2451741707874 18" xmlns="http://www.w3.org/2000/svg">
  <defs>
    <mask fill="white" id="clip24">
      <path d="M 805.5 672  L 894.5 672  L 894.5 706  L 805.5 706  Z M 756 654  L 944 654  L 944 723  L 756 723  Z " fill-rule="evenodd" />
    </mask>
  </defs>
  <g transform="matrix(0.957826285221161 -0.287347885566315 0.287347885566311 0.957826285221159 -158.396364326379 248.788022956085 )">
    <path d="M 765.957826285221 663.287347885566  L 930.210868573894 712.563260572168  " stroke-width="1" stroke="#d9001b" fill="none" stroke-opacity="0.764705882352941" mask="url(#clip24)" />
    <path d="M 767.873478855664 660.862043656699  A 3 3 0 0 0 764.873478855664 663.862043656699 A 3 3 0 0 0 767.873478855664 666.862043656699 A 3 3 0 0 0 770.873478855664 663.862043656699 A 3 3 0 0 0 767.873478855664 660.862043656699 Z M 927.442750609605 718.310218283495  L 935 714  L 931.063333967741 706.241607089709  L 927.442750609605 718.310218283495  Z " fill-rule="nonzero" fill="#d9001b" stroke="none" fill-opacity="0.764705882352941" mask="url(#clip24)" />
  </g>
</svg>