<?xml version="1.0" encoding="utf-8"?>
<svg version="1.1" xmlns:xlink="http://www.w3.org/1999/xlink" width="19.4070666984491px" height="18px" viewBox="757.510337648794 656.710862446553  19.4070666984491 18" xmlns="http://www.w3.org/2000/svg">
  <defs>
    <mask fill="white" id="clip27">
      <path d="M 794.5 736  L 883.5 736  L 883.5 770  L 794.5 770  Z M 756 654  L 921 654  L 921 852  L 756 852  Z " fill-rule="evenodd" />
    </mask>
  </defs>
  <g transform="matrix(0.632534570862387 -0.774532127586665 0.77453212758667 0.632534570862389 -233.68987630167 838.857519568588 )">
    <path d="M 765.632534570862 663.774532127587  L 908.837327145688 839.127339362067  " stroke-width="1" stroke="#d9001b" fill="none" stroke-opacity="0.764705882352941" mask="url(#clip27)" />
    <path d="M 766.897603712587 662.32359638276  A 3 3 0 0 0 763.897603712587 665.32359638276 A 3 3 0 0 0 766.897603712587 668.32359638276 A 3 3 0 0 0 769.897603712587 665.32359638276 A 3 3 0 0 0 766.897603712587 662.32359638276 Z M 903.32524017103 842.337775030913  L 912 843  L 913.084344978621 834.367839438047  L 903.32524017103 842.337775030913  Z " fill-rule="nonzero" fill="#d9001b" stroke="none" fill-opacity="0.764705882352941" mask="url(#clip27)" />
  </g>
</svg>