<?xml version="1.0" encoding="utf-8"?>
<svg version="1.1" xmlns:xlink="http://www.w3.org/1999/xlink" width="141px" height="52px" xmlns="http://www.w3.org/2000/svg">
  <g transform="matrix(1 0 0 1 -624 -1032 )">
    <path d="M 625 1036  A 3 3 0 0 1 628 1033 L 761 1033  A 3 3 0 0 1 764 1036 L 764 1080  A 3 3 0 0 1 761 1083 L 628 1083  A 3 3 0 0 1 625 1080 L 625 1036  Z " fill-rule="nonzero" fill="#ff3399" stroke="none" fill-opacity="0.0980392156862745" />
    <path d="M 624.5 1036  A 3.5 3.5 0 0 1 628 1032.5 L 761 1032.5  A 3.5 3.5 0 0 1 764.5 1036 L 764.5 1080  A 3.5 3.5 0 0 1 761 1083.5 L 628 1083.5  A 3.5 3.5 0 0 1 624.5 1080 L 624.5 1036  Z " stroke-width="1" stroke-dasharray="9,4" stroke="#ff3399" fill="none" stroke-dashoffset="0.5" />
  </g>
</svg>