<?xml version="1.0" encoding="utf-8"?>
<svg version="1.1" xmlns:xlink="http://www.w3.org/1999/xlink" width="238px" height="6px" viewBox="590 792  238 6" xmlns="http://www.w3.org/2000/svg">
  <defs>
    <mask fill="white" id="clip29">
      <path d="M 664.5 778  L 753.5 778  L 753.5 812  L 664.5 812  Z M 664.5 670  L 753.5 670  L 753.5 920  L 664.5 920  Z " fill-rule="evenodd" />
    </mask>
  </defs>
  <g transform="matrix(-0.165777433254523 -0.986163192693549 0.986163192693553 -0.165777433254519 42.5364619860817 1625.98276305707 )">
    <path d="M 689.165777433255 910.013836807306  L 727.171112833727 683.930815963468  " stroke-width="1" stroke="#d9001b" fill="none" stroke-opacity="0.764705882352941" mask="url(#clip29)" />
    <path d="M 689.497332299764 905.041510421919  A 3 3 0 0 0 686.497332299764 908.041510421919 A 3 3 0 0 0 689.497332299764 911.041510421919 A 3 3 0 0 0 692.497332299764 908.041510421919 A 3 3 0 0 0 689.497332299764 905.041510421919 Z M 733.218163514442 685.961376985665  L 728 679  L 720.792507286503 683.872581326658  L 733.218163514442 685.961376985665  Z " fill-rule="nonzero" fill="#d9001b" stroke="none" fill-opacity="0.764705882352941" mask="url(#clip29)" />
  </g>
</svg>