<?xml version="1.0" encoding="utf-8"?>
<svg version="1.1" xmlns:xlink="http://www.w3.org/1999/xlink" width="78px" height="70px" xmlns="http://www.w3.org/2000/svg">
  <g transform="matrix(1 0 0 1 -541 -1508 )">
    <path d="M 542 1512  A 3 3 0 0 1 545 1509 L 615 1509  A 3 3 0 0 1 618 1512 L 618 1574  A 3 3 0 0 1 615 1577 L 545 1577  A 3 3 0 0 1 542 1574 L 542 1512  Z " fill-rule="nonzero" fill="#000000" stroke="none" fill-opacity="0.0196078431372549" />
    <path d="M 541.5 1512  A 3.5 3.5 0 0 1 545 1508.5 L 615 1508.5  A 3.5 3.5 0 0 1 618.5 1512 L 618.5 1574  A 3.5 3.5 0 0 1 615 1577.5 L 545 1577.5  A 3.5 3.5 0 0 1 541.5 1574 L 541.5 1512  Z " stroke-width="1" stroke-dasharray="9,4" stroke="#d9d9d9" fill="none" stroke-dashoffset="0.5" />
  </g>
</svg>