<?xml version="1.0" encoding="utf-8"?>
<svg version="1.1" xmlns:xlink="http://www.w3.org/1999/xlink" width="12px" height="12px" viewBox="888 725  12 12" xmlns="http://www.w3.org/2000/svg">
  <path d="M 894 725  C 897.36 725  900 727.64  900 731  C 900 734.36  897.36 737  894 737  C 890.64 737  888 734.36  888 731  C 888 727.64  890.64 725  894 725  Z " fill-rule="nonzero" fill="#ffffff" stroke="none" />
  <path d="M 894 725.5  C 897.08 725.5  899.5 727.92  899.5 731  C 899.5 734.08  897.08 736.5  894 736.5  C 890.92 736.5  888.5 734.08  888.5 731  C 888.5 727.92  890.92 725.5  894 725.5  Z " stroke-width="1" stroke="#797979" fill="none" />
  <path d="M 894 734  C 892.32 734  891 732.68  891 731  C 891 729.32  892.32 728  894 728  C 895.68 728  897 729.32  897 731  C 897 732.68  895.68 734  894 734  " fill-rule="nonzero" fill="#797979" stroke="none" />
</svg>