<?xml version="1.0" encoding="utf-8"?>
<svg version="1.1" xmlns:xlink="http://www.w3.org/1999/xlink" width="12px" height="12px" viewBox="645 725  12 12" xmlns="http://www.w3.org/2000/svg">
  <path d="M 651 725  C 654.36 725  657 727.64  657 731  C 657 734.36  654.36 737  651 737  C 647.64 737  645 734.36  645 731  C 645 727.64  647.64 725  651 725  Z " fill-rule="nonzero" fill="#ffffff" stroke="none" />
  <path d="M 651 725.5  C 654.08 725.5  656.5 727.92  656.5 731  C 656.5 734.08  654.08 736.5  651 736.5  C 647.92 736.5  645.5 734.08  645.5 731  C 645.5 727.92  647.92 725.5  651 725.5  Z " stroke-width="1" stroke="#797979" fill="none" />
  <path d="M 651 734  C 649.32 734  648 732.68  648 731  C 648 729.32  649.32 728  651 728  C 652.68 728  654 729.32  654 731  C 654 732.68  652.68 734  651 734  " fill-rule="nonzero" fill="#797979" stroke="none" />
</svg>