<?xml version="1.0" encoding="utf-8"?>
<svg version="1.1" xmlns:xlink="http://www.w3.org/1999/xlink" width="12px" height="12px" viewBox="720 725  12 12" xmlns="http://www.w3.org/2000/svg">
  <path d="M 726 725  C 729.36 725  732 727.64  732 731  C 732 734.36  729.36 737  726 737  C 722.64 737  720 734.36  720 731  C 720 727.64  722.64 725  726 725  Z " fill-rule="nonzero" fill="#ffffff" stroke="none" />
  <path d="M 726 725.5  C 729.08 725.5  731.5 727.92  731.5 731  C 731.5 734.08  729.08 736.5  726 736.5  C 722.92 736.5  720.5 734.08  720.5 731  C 720.5 727.92  722.92 725.5  726 725.5  Z " stroke-width="1" stroke="#797979" fill="none" />
  <path d="M 726 734  C 724.32 734  723 732.68  723 731  C 723 729.32  724.32 728  726 728  C 727.68 728  729 729.32  729 731  C 729 732.68  727.68 734  726 734  " fill-rule="nonzero" fill="#797979" stroke="none" />
</svg>