<?xml version="1.0" encoding="utf-8"?>
<svg version="1.1" xmlns:xlink="http://www.w3.org/1999/xlink" width="12px" height="12px" viewBox="809 725  12 12" xmlns="http://www.w3.org/2000/svg">
  <path d="M 815 725  C 818.36 725  821 727.64  821 731  C 821 734.36  818.36 737  815 737  C 811.64 737  809 734.36  809 731  C 809 727.64  811.64 725  815 725  Z " fill-rule="nonzero" fill="#f0f0f0" stroke="none" />
  <path d="M 815 725.5  C 818.08 725.5  820.5 727.92  820.5 731  C 820.5 734.08  818.08 736.5  815 736.5  C 811.92 736.5  809.5 734.08  809.5 731  C 809.5 727.92  811.92 725.5  815 725.5  Z " stroke-width="1" stroke="#797979" fill="none" />
  <path d="M 815 734  C 813.32 734  812 732.68  812 731  C 812 729.32  813.32 728  815 728  C 816.68 728  818 729.32  818 731  C 818 732.68  816.68 734  815 734  " fill-rule="nonzero" fill="#797979" stroke="none" />
</svg>