<?xml version="1.0" encoding="utf-8"?>
<svg version="1.1" xmlns:xlink="http://www.w3.org/1999/xlink" width="244px" height="113px" xmlns="http://www.w3.org/2000/svg">
  <g transform="matrix(1 0 0 1 -259 -1138 )">
    <path d="M 260 1142  A 3 3 0 0 1 263 1139 L 499 1139  A 3 3 0 0 1 502 1142 L 502 1247  A 3 3 0 0 1 499 1250 L 263 1250  A 3 3 0 0 1 260 1247 L 260 1142  Z " fill-rule="nonzero" fill="#ff3399" stroke="none" fill-opacity="0.0980392156862745" />
    <path d="M 259.5 1142  A 3.5 3.5 0 0 1 263 1138.5 L 499 1138.5  A 3.5 3.5 0 0 1 502.5 1142 L 502.5 1247  A 3.5 3.5 0 0 1 499 1250.5 L 263 1250.5  A 3.5 3.5 0 0 1 259.5 1247 L 259.5 1142  Z " stroke-width="1" stroke-dasharray="9,4" stroke="#ff3399" fill="none" stroke-dashoffset="0.5" />
  </g>
</svg>