<?xml version="1.0" encoding="utf-8"?>
<svg version="1.1" xmlns:xlink="http://www.w3.org/1999/xlink" width="12px" height="12px" viewBox="746 558  12 12" xmlns="http://www.w3.org/2000/svg">
  <path d="M 752 558  C 755.36 558  758 560.64  758 564  C 758 567.36  755.36 570  752 570  C 748.64 570  746 567.36  746 564  C 746 560.64  748.64 558  752 558  Z " fill-rule="nonzero" fill="#f0f0f0" stroke="none" />
  <path d="M 752 558.5  C 755.08 558.5  757.5 560.92  757.5 564  C 757.5 567.08  755.08 569.5  752 569.5  C 748.92 569.5  746.5 567.08  746.5 564  C 746.5 560.92  748.92 558.5  752 558.5  Z " stroke-width="1" stroke="#797979" fill="none" />
  <path d="M 752 567  C 750.32 567  749 565.68  749 564  C 749 562.32  750.32 561  752 561  C 753.68 561  755 562.32  755 564  C 755 565.68  753.68 567  752 567  " fill-rule="nonzero" fill="#797979" stroke="none" />
</svg>