<?xml version="1.0" encoding="utf-8"?>
<svg version="1.1" xmlns:xlink="http://www.w3.org/1999/xlink" width="306px" height="153px" xmlns="http://www.w3.org/2000/svg">
  <g transform="matrix(1 0 0 1 -307 -889 )">
    <path d="M 308 893  A 3 3 0 0 1 311 890 L 609 890  A 3 3 0 0 1 612 893 L 612 1038  A 3 3 0 0 1 609 1041 L 311 1041  A 3 3 0 0 1 308 1038 L 308 893  Z " fill-rule="nonzero" fill="#ff3399" stroke="none" fill-opacity="0.0980392156862745" />
    <path d="M 307.5 893  A 3.5 3.5 0 0 1 311 889.5 L 609 889.5  A 3.5 3.5 0 0 1 612.5 893 L 612.5 1038  A 3.5 3.5 0 0 1 609 1041.5 L 311 1041.5  A 3.5 3.5 0 0 1 307.5 1038 L 307.5 893  Z " stroke-width="1" stroke-dasharray="9,4" stroke="#ff3399" fill="none" stroke-dashoffset="0.5" />
  </g>
</svg>