<?xml version="1.0" encoding="utf-8"?>
<svg version="1.1" xmlns:xlink="http://www.w3.org/1999/xlink" width="200px" height="154px" xmlns="http://www.w3.org/2000/svg">
  <defs>
    <mask fill="white" id="clip52">
      <path d="M 0 150.857142857143  L 0 60.0189504373181  L 0 3.14285714285714  C 0 1.38285714285714  1.75999999999999 0  4 0  L 196 0  C 198.24 0  200 1.38285714285714  200 3.14285714285714  L 200 150.857142857143  C 200 152.617142857143  198.24 154  196 154  L 4 154  C 1.75999999999999 154  0 152.617142857143  0 150.857142857143  Z " fill-rule="evenodd" />
    </mask>
  </defs>
  <g transform="matrix(1 0 0 1 -693 -520 )">
    <path d="M 0 150.857142857143  L 0 60.0189504373181  L 0 3.14285714285714  C 0 1.38285714285714  1.75999999999999 0  4 0  L 196 0  C 198.24 0  200 1.38285714285714  200 3.14285714285714  L 200 150.857142857143  C 200 152.617142857143  198.24 154  196 154  L 4 154  C 1.75999999999999 154  0 152.617142857143  0 150.857142857143  Z " fill-rule="nonzero" fill="#ff3399" stroke="none" fill-opacity="0.0980392156862745" transform="matrix(1 0 0 1 693 520 )" />
    <path d="M 0 150.857142857143  L 0 60.0189504373181  L 0 3.14285714285714  C 0 1.38285714285714  1.75999999999999 0  4 0  L 196 0  C 198.24 0  200 1.38285714285714  200 3.14285714285714  L 200 150.857142857143  C 200 152.617142857143  198.24 154  196 154  L 4 154  C 1.75999999999999 154  0 152.617142857143  0 150.857142857143  Z " stroke-width="2" stroke-dasharray="9,4" stroke="#ff3399" fill="none" transform="matrix(1 0 0 1 693 520 )" mask="url(#clip52)" />
  </g>
</svg>