<?xml version="1.0" encoding="utf-8"?>
<svg version="1.1" xmlns:xlink="http://www.w3.org/1999/xlink" width="241px" height="165px" xmlns="http://www.w3.org/2000/svg">
  <defs>
    <mask fill="white" id="clip53">
      <path d="M 0 161.632653061224  L 0 64.3060183256979  L 0 3.36734693877551  C 0 1.48163265306122  2.12079999999999 0  4.82 0  L 236.18 0  C 238.8792 0  241 1.48163265306122  241 3.36734693877551  L 241 161.632653061224  C 241 163.518367346939  238.8792 165  236.18 165  L 4.82 165  C 2.12079999999999 165  0 163.518367346939  0 161.632653061224  Z " fill-rule="evenodd" />
    </mask>
  </defs>
  <g transform="matrix(1 0 0 1 -1326 -316 )">
    <path d="M 0 161.632653061224  L 0 64.3060183256979  L 0 3.36734693877551  C 0 1.48163265306122  2.12079999999999 0  4.82 0  L 236.18 0  C 238.8792 0  241 1.48163265306122  241 3.36734693877551  L 241 161.632653061224  C 241 163.518367346939  238.8792 165  236.18 165  L 4.82 165  C 2.12079999999999 165  0 163.518367346939  0 161.632653061224  Z " fill-rule="nonzero" fill="#ff3399" stroke="none" fill-opacity="0.0980392156862745" transform="matrix(1 0 0 1 1326 316 )" />
    <path d="M 0 161.632653061224  L 0 64.3060183256979  L 0 3.36734693877551  C 0 1.48163265306122  2.12079999999999 0  4.82 0  L 236.18 0  C 238.8792 0  241 1.48163265306122  241 3.36734693877551  L 241 161.632653061224  C 241 163.518367346939  238.8792 165  236.18 165  L 4.82 165  C 2.12079999999999 165  0 163.518367346939  0 161.632653061224  Z " stroke-width="2" stroke-dasharray="9,4" stroke="#ff3399" fill="none" transform="matrix(1 0 0 1 1326 316 )" mask="url(#clip53)" />
  </g>
</svg>