<?xml version="1.0" encoding="utf-8"?>
<svg version="1.1" xmlns:xlink="http://www.w3.org/1999/xlink" width="200px" height="124px" xmlns="http://www.w3.org/2000/svg">
  <defs>
    <mask fill="white" id="clip54">
      <path d="M 0 121.469387755102  L 0 48.326947105373  L 0 2.53061224489796  C 0 1.1134693877551  1.75999999999999 0  4 0  L 196 0  C 198.24 0  200 1.1134693877551  200 2.53061224489796  L 200 121.469387755102  C 200 122.886530612245  198.24 124  196 124  L 4 124  C 1.75999999999999 124  0 122.886530612245  0 121.469387755102  Z " fill-rule="evenodd" />
    </mask>
  </defs>
  <g transform="matrix(1 0 0 1 -707 -300 )">
    <path d="M 0 121.469387755102  L 0 48.326947105373  L 0 2.53061224489796  C 0 1.1134693877551  1.75999999999999 0  4 0  L 196 0  C 198.24 0  200 1.1134693877551  200 2.53061224489796  L 200 121.469387755102  C 200 122.886530612245  198.24 124  196 124  L 4 124  C 1.75999999999999 124  0 122.886530612245  0 121.469387755102  Z " fill-rule="nonzero" fill="#ff3399" stroke="none" fill-opacity="0.0980392156862745" transform="matrix(1 0 0 1 707 300 )" />
    <path d="M 0 121.469387755102  L 0 48.326947105373  L 0 2.53061224489796  C 0 1.1134693877551  1.75999999999999 0  4 0  L 196 0  C 198.24 0  200 1.1134693877551  200 2.53061224489796  L 200 121.469387755102  C 200 122.886530612245  198.24 124  196 124  L 4 124  C 1.75999999999999 124  0 122.886530612245  0 121.469387755102  Z " stroke-width="2" stroke-dasharray="9,4" stroke="#ff3399" fill="none" transform="matrix(1 0 0 1 707 300 )" mask="url(#clip54)" />
  </g>
</svg>