<?xml version="1.0" encoding="utf-8"?>
<svg version="1.1" xmlns:xlink="http://www.w3.org/1999/xlink" width="439px" height="307px" xmlns="http://www.w3.org/2000/svg">
  <defs>
    <mask fill="white" id="clip55">
      <path d="M 0 300.734693877551  L 0 119.648167430238  L 0 6.26530612244898  C 0 2.75673469387754  3.86319999999998 0  8.78 0  L 430.22 0  C 435.1368 0  439 2.75673469387754  439 6.26530612244898  L 439 300.734693877551  C 439 304.243265306122  435.1368 307  430.22 307  L 8.78 307  C 3.86319999999998 307  0 304.243265306122  0 300.734693877551  Z " fill-rule="evenodd" />
    </mask>
  </defs>
  <g transform="matrix(1 0 0 1 -1326 -598 )">
    <path d="M 0 300.734693877551  L 0 119.648167430238  L 0 6.26530612244898  C 0 2.75673469387754  3.86319999999998 0  8.78 0  L 430.22 0  C 435.1368 0  439 2.75673469387754  439 6.26530612244898  L 439 300.734693877551  C 439 304.243265306122  435.1368 307  430.22 307  L 8.78 307  C 3.86319999999998 307  0 304.243265306122  0 300.734693877551  Z " fill-rule="nonzero" fill="#ff3399" stroke="none" fill-opacity="0.0980392156862745" transform="matrix(1 0 0 1 1326 598 )" />
    <path d="M 0 300.734693877551  L 0 119.648167430238  L 0 6.26530612244898  C 0 2.75673469387754  3.86319999999998 0  8.78 0  L 430.22 0  C 435.1368 0  439 2.75673469387754  439 6.26530612244898  L 439 300.734693877551  C 439 304.243265306122  435.1368 307  430.22 307  L 8.78 307  C 3.86319999999998 307  0 304.243265306122  0 300.734693877551  Z " stroke-width="2" stroke-dasharray="9,4" stroke="#ff3399" fill="none" transform="matrix(1 0 0 1 1326 598 )" mask="url(#clip55)" />
  </g>
</svg>