<?xml version="1.0" encoding="utf-8"?>
<svg version="1.1" xmlns:xlink="http://www.w3.org/1999/xlink" width="62px" height="35px" xmlns="http://www.w3.org/2000/svg">
  <g transform="matrix(1 0 0 1 -679 -301 )">
    <path d="M 679 301  L 741 301  L 741 336  L 679 336  L 679 301  " fill-rule="nonzero" fill="#cccccc" stroke="none" />
    <path d="M 681 303  L 739 303  L 739 334  L 681 334  L 681 303  " fill-rule="nonzero" fill="#ffffff" stroke="none" />
    <path d="M 713.865 311.5  C 712.395 311.5  711.24 310.345  711.24 308.875  C 711.24 307.405  712.395 306.25  713.865 306.25  C 715.335 306.25  716.49 307.405  716.49 308.875  C 716.49 310.345  715.335 311.5  713.865 311.5  " fill-rule="nonzero" fill="#cccccc" stroke="none" />
    <path d="M 682 333  L 682 317.05  L 696 309.8  L 715.6 323.177419354839  L 726.8 314.15  L 738 323.177419354839  L 738 333  L 682 333  " fill-rule="nonzero" fill="#169bd5" stroke="none" />
  </g>
</svg>