<?xml version="1.0" encoding="utf-8"?>
<svg version="1.1" xmlns:xlink="http://www.w3.org/1999/xlink" width="181px" height="85px" xmlns="http://www.w3.org/2000/svg">
  <g transform="matrix(1 0 0 1 -620 -523 )">
    <path d="M 621 527  A 3 3 0 0 1 624 524 L 797 524  A 3 3 0 0 1 800 527 L 800 604  A 3 3 0 0 1 797 607 L 624 607  A 3 3 0 0 1 621 604 L 621 527  Z " fill-rule="nonzero" fill="#ff3399" stroke="none" fill-opacity="0.0980392156862745" />
    <path d="M 620.5 527  A 3.5 3.5 0 0 1 624 523.5 L 797 523.5  A 3.5 3.5 0 0 1 800.5 527 L 800.5 604  A 3.5 3.5 0 0 1 797 607.5 L 624 607.5  A 3.5 3.5 0 0 1 620.5 604 L 620.5 527  Z " stroke-width="1" stroke-dasharray="9,4" stroke="#ff3399" fill="none" stroke-dashoffset="0.5" />
  </g>
</svg>