<?xml version="1.0" encoding="utf-8"?>
<svg version="1.1" xmlns:xlink="http://www.w3.org/1999/xlink" width="16px" height="13px" xmlns="http://www.w3.org/2000/svg">
  <g transform="matrix(1 0 0 1 -785 -690 )">
    <path d="M 10.6458 6.57353125  L 10.6443 6.57353125  C 10.5911265781362 6.57350922189187  10.5413920865099 6.54682815467838  10.5114 6.502234375  L 8.3136 3.249390625  C 8.26283606650316 3.17414339648384  8.28116540526023 3.07141715258306  8.3547 3.019046875  C 8.38168233036816 2.99991559533552  8.41379644144036 2.98965695563629  8.44670353677686 2.98965695563629  C 8.49978761159302 2.98965695563629  8.54944792114306 3.01627742735043  8.5794 3.0607890625  L 10.6416 6.1131484375  L 14.0358 0.87953125  C 14.0853 0.803054687500001  14.1858 0.7829453125  14.2596 0.833523437500001  C 14.3340194702025 0.884633198014689  14.3542014196232 0.986983916258356  14.3049 1.0632578125  L 10.7787 6.499796875  C 10.749 6.5455  10.6992 6.5732265625  10.6458 6.57353125  Z M 3.2388 6.5138125  C 3.20855134037856 6.55704679271107  3.15962149227782 6.58280164105319  3.1074 6.5829765625  L 3.1035 6.5829765625  C 3.0498048644865 6.58159397058781  3.00031255884974 6.5531481976215  2.9715 6.507109375  L 1.3521 3.9352421875  C 1.30384399410296 3.85846244683338  1.32522068892636 3.75655782204779  1.4001 3.706421875  C 1.4751 3.6570625  1.575 3.678390625  1.6236 3.75578125  L 3.1146 6.123203125  L 6.8112 0.833523437499996  C 6.8418 0.789648437499998  6.8862 0.764054687499997  6.9438 0.764359374999998  C 6.9963 0.764968749999998  7.0452 0.791476562499998  7.0752 0.835656249999998  L 8.1165 2.3764609375  C 8.1672 2.45171875  8.1492 2.554703125  8.076 2.6068046875  C 8.0031 2.6586015625  7.90169999999999 2.6403203125  7.8513 2.5650625  L 6.9405 1.2174296875  L 3.2388 6.5138125  Z M 1.1436 3.2984453125  C 1.1166 3.316421875  1.0863 3.324953125  1.056 3.324953125  C 1.00096109927369 3.32471567667333  0.949794823197453 3.29615172184807  0.920099999999999 3.2490859375  L 0.164099999999999 2.048921875  C 0.115799999999999 1.972140625  0.1374 1.869765625  0.212099999999998 1.8201015625  C 0.286799999999997 1.7704375  0.386699999999999 1.7920703125  0.435599999999997 1.8694609375  L 1.1916 3.069625  C 1.23985600589704 3.14640474066662  1.21847931107364 3.24830936545221  1.1436 3.2984453125  Z M 14.1252 9.15484375  C 14.0934 9.1868359375  14.0523 9.2026796875  14.0112 9.2026796875  C 13.967906410431 9.20267076582462  13.92645957898 9.18486580763356  13.8963 9.1533203125  C 13.8336954571456 9.08803389711346  13.8343637941234 8.98377332856733  13.8978 8.9193203125  L 14.6232 8.1862421875  C 14.6532366654619 8.15549410184976  14.6941184596257 8.13819950965067  14.7367656073473 8.13819950965067  C 14.7801410033511 8.13819950965067  14.8216571323889 8.15608801406482  14.8518 8.187765625  C 14.9145 8.25296875  14.9133 8.3574765625  14.8503 8.421765625  L 14.1252 9.15484375  Z M 10.5672 12.7638671875  C 10.5367674035938 12.7942193230199  10.4958527009468 12.8112783314426  10.4532 12.8113984375  C 10.409906410431 12.8113895158246  10.36845957898 12.7935845576336  10.3383 12.7620390625  C 10.2756954571456 12.6967526471135  10.2763637941234 12.5924920785673  10.3398 12.5280390625  L 13.3878 9.4476484375  C 13.4178641830393 9.41706927831878  13.4586667001134 9.39988627882527  13.5012153728837 9.39988627882527  C 13.5446394097613 9.39988627882527  13.5862049814828 9.41778144890461  13.6164 9.4494765625  C 13.6791 9.5146796875  13.6779 9.6194921875  13.6149 9.6834765625  L 10.5672 12.7638671875  Z M 15.8325 5.1585625  C 15.8074421258378 5.17367828724215  15.7788445710387 5.18167601826046  15.7497 5.18171875  C 15.6924574223223 5.18188796164593  15.6394882595208 5.15098094136931  15.6108 5.100671875  L 14.8935 3.8633359375  C 14.8482 3.7847265625  14.8731 3.6829609375  14.9496 3.63634375  C 14.9745691585405 3.62122664431403  15.003097595751 3.61324585431509  15.0321666214537 3.61324585431509  C 15.0894111391483 3.61324585431509  15.1423644648739 3.6440695974073  15.1713 3.694234375  L 15.8886 4.9315703125  C 15.9341925902625 5.01008017460293  15.9091946128546 5.11122715454741  15.8325 5.1585625  Z M 14.8176 3.3874140625  C 14.7935448699109 3.40126428100633  14.7663516855592 3.40851008850498  14.7387 3.4084375  C 14.6800992521966 3.40838773088419  14.6261289767681 3.37608271728414  14.5977 3.3240390625  L 14.0784 2.377375  C 14.0348535903184 2.29760266377538  14.0623632648004 2.19710179367318  14.1402 2.1516015625  C 14.1643310728214 2.13774562678007  14.1915804918469 2.13046397317057  14.2193011300064 2.13046397317057  C 14.2778931413136 2.13046397317057  14.3318429187079 2.16284658662157  14.3601 2.2149765625  L 14.8794 3.161640625  C 14.9229031952274 3.24141813868167  14.895402352302 3.34188674452975  14.8176 3.3874140625  Z " fill-rule="nonzero" fill="#474341" stroke="none" transform="matrix(1 0 0 1 785 690 )" />
  </g>
</svg>