<?xml version="1.0" encoding="utf-8"?>
<svg version="1.1" xmlns:xlink="http://www.w3.org/1999/xlink" width="8px" height="12px" xmlns="http://www.w3.org/2000/svg">
  <g transform="matrix(1 0 0 1 -788 -696 )">
    <path d="M 6.901 2.9238  C 6.87759759282389 2.98725338229948  6.81713138610783 3.02940012440652  6.7495 3.0294  C 6.73024174102921 3.02939523556934  6.71114006208699 3.0259406766117  6.6931 3.0192  C 6.60932790980487 2.9871381266794  6.56702826468236 2.89357024079132  6.5983 2.8095  L 7.3222 0.850199999999995  C 7.345128689406 0.786527456294712  7.40553237177646 0.744078276034554  7.47320746039686 0.744078276034554  C 7.49264627375236 0.744078276034554  7.51192340438286 0.747609511160957  7.5301 0.754499999999999  C 7.6139117667879 0.786690089355045  7.65619198043425 0.880348790470373  7.6249 0.964499999999998  L 6.901 2.9238  Z M 3.55840000000001 11.7945  C 3.54280000000001 11.799  3.52630000000001 11.802  3.5095 11.802  C 3.5062 11.802  3.5026 11.8017  3.499 11.8017  C 3.48784116736685 11.800874778113  3.47678909909064 11.7989657845016  3.466 11.796  C 3.44238584455301 11.789039316414  3.42062324663293 11.7770288260525  3.4024 11.7606  C 3.39184896544955 11.750940484708  3.38278159806321 11.7403618894239  3.3751 11.7288  C 3.3679 11.7177  3.3619 11.7057  3.3577 11.6934  C 2.6872 9.88619999999999  2.1079 8.01659999999999  1.5478 6.20879999999999  C 1.1911 5.05769999999999  0.821799999999999 3.86759999999999  0.433600000000001 2.70629999999999  C 0.404732826742327 2.62132187739653  0.449898137313761 2.52898093085731  0.534700000000001 2.49959999999999  C 0.551365029339834 2.49395455951057  0.568841699614256 2.49107474092571  0.58643698879111 2.49107474092571  C 0.656063802861621 2.49107474092571  0.717826889544256 2.53576510075087  0.739600000000001 2.60189999999999  C 1.129 3.76649999999999  1.4986 4.95839999999999  1.8559 6.11129999999999  C 2.3719 7.776  2.9041 9.49319999999999  3.5074 11.1618  C 3.5098 11.1612  3.5116 11.1609  3.5137 11.1603  L 6.38920000000001 3.3756  C 6.41222299669056 3.31194974306363  6.47265540074922 3.26954455462842  6.54034154101944 3.26954455462842  C 6.55973077066796 3.26954455462842  6.5789600104101 3.27305288352359  6.5971 3.2799  C 6.6802 3.3114  6.7228 3.4053  6.6919 3.4899  L 3.6628 11.6898  C 3.6622 11.6919  3.6613 11.694  3.6607 11.6961  L 3.6562 11.7069  C 3.6448 11.7315  3.62860000000001 11.7516  3.6088 11.7672  C 3.59354249833743 11.7794723847754  3.57670000480563 11.7885023963678  3.55870000000001 11.7945  Z " fill-rule="nonzero" fill="#474341" stroke="none" transform="matrix(1 0 0 1 788 696 )" />
  </g>
</svg>