<?xml version="1.0" encoding="utf-8"?>
<svg version="1.1" xmlns:xlink="http://www.w3.org/1999/xlink" width="23px" height="18px" xmlns="http://www.w3.org/2000/svg">
  <g transform="matrix(1 0 0 1 -781 -690 )">
    <path d="M 11.1623928571429 17.8002613636364  C 11.1183600596437 17.8441139335151  11.0586289781179 17.8687287439709  10.9963616071429 17.8686818181818  L 10.9905089285714 17.8686818181818  C 10.9262000192071 17.8670364593683  10.8653473685085 17.8393343906354  10.8220133928571 17.7919772727273  L 0.586910714285715 6.61428409090909  C 0.5200423163393 6.54091548081827  0.505241781699051 6.43418802441399  0.549638392857144 6.34551136363636  L 3.42299553571428 0.626727272727274  C 3.4627258772857 0.546904579004122  3.54424600157882 0.496215240224814  3.63369196428571 0.49571590909091  L 18.8081473214286 0.447238636363638  C 18.8960972957055 0.447302826012882  18.9762822524714 0.495318016873153  19.0173035714286 0.572113636363636  L 22.2479821428571 6.59986363636364  C 22.2979082325615 6.69319320436068  22.2806457832305 6.80807051796998  22.2054732142857 6.88275  L 11.1623928571429 17.8002613636364  Z M 3.78031696428571 1  L 1.0465 6.41301136363636  L 11.0046785714286 17.2881818181818  L 21.7461919642857 6.66828409090909  L 18.667375 1  L 3.78031696428571 1  Z " fill-rule="nonzero" fill="#474341" stroke="none" transform="matrix(1 0 0 1 781 690 )" />
  </g>
</svg>