<?xml version="1.0" encoding="utf-8"?>
<svg version="1.1" xmlns:xlink="http://www.w3.org/1999/xlink" width="16px" height="24px" xmlns="http://www.w3.org/2000/svg">
  <g transform="matrix(1 0 0 1 -1083 -687 )">
    <path d="M 16 12  C 16 12.258064516129  15.9021879021879 12.4813895781638  15.7065637065637 12.6699751861042  L 4.24710424710425 23.7171215880893  C 4.05148005148005 23.9057071960298  3.81981981981982 24  3.55212355212355 24  C 3.28442728442728 24  3.05276705276705 23.9057071960298  2.85714285714286 23.7171215880893  L 0.293436293436293 21.2456575682382  C 0.097812097812098 21.0570719602978  0 20.833746898263  0 20.575682382134  C 0 20.317617866005  0.097812097812098 20.0942928039702  0.293436293436293 19.9057071960298  L 8.49420849420849 12  L 0.293436293436293 4.09429280397022  C 0.097812097812098 3.90570719602977  0 3.68238213399504  0 3.424317617866  C 0 3.16625310173697  0.097812097812098 2.94292803970223  0.293436293436293 2.75434243176179  L 2.85714285714286 0.282878411910669  C 3.05276705276705 0.0942928039702222  3.28442728442728 0  3.55212355212355 0  C 3.81981981981982 0  4.05148005148005 0.0942928039702222  4.24710424710425 0.282878411910669  L 15.7065637065637 11.3300248138958  C 15.9021879021879 11.5186104218362  16 11.741935483871  16 12  Z " fill-rule="nonzero" fill="#ffffff" stroke="none" transform="matrix(1 0 0 1 1083 687 )" />
  </g>
</svg>