<?xml version="1.0" encoding="utf-8"?>
<svg version="1.1" xmlns:xlink="http://www.w3.org/1999/xlink" width="357px" height="65px" xmlns="http://www.w3.org/2000/svg">
  <g transform="matrix(1 0 0 1 -1186 -664 )">
    <path d="M 1187 668  A 3 3 0 0 1 1190 665 L 1539 665  A 3 3 0 0 1 1542 668 L 1542 725  A 3 3 0 0 1 1539 728 L 1190 728  A 3 3 0 0 1 1187 725 L 1187 668  Z " fill-rule="nonzero" fill="#ff3399" stroke="none" fill-opacity="0.0980392156862745" />
    <path d="M 1186.5 668  A 3.5 3.5 0 0 1 1190 664.5 L 1539 664.5  A 3.5 3.5 0 0 1 1542.5 668 L 1542.5 725  A 3.5 3.5 0 0 1 1539 728.5 L 1190 728.5  A 3.5 3.5 0 0 1 1186.5 725 L 1186.5 668  Z " stroke-width="1" stroke-dasharray="9,4" stroke="#ff3399" fill="none" stroke-dashoffset="0.5" />
  </g>
</svg>