<?xml version="1.0" encoding="utf-8"?>
<svg version="1.1" xmlns:xlink="http://www.w3.org/1999/xlink" width="308px" height="576px" xmlns="http://www.w3.org/2000/svg">
  <g transform="matrix(1 0 0 1 -1584 -1719 )">
    <path d="M 1585 1723  A 3 3 0 0 1 1588 1720 L 1888 1720  A 3 3 0 0 1 1891 1723 L 1891 2291  A 3 3 0 0 1 1888 2294 L 1588 2294  A 3 3 0 0 1 1585 2291 L 1585 1723  Z " fill-rule="nonzero" fill="#ff3399" stroke="none" fill-opacity="0.0980392156862745" />
    <path d="M 1584.5 1723  A 3.5 3.5 0 0 1 1588 1719.5 L 1888 1719.5  A 3.5 3.5 0 0 1 1891.5 1723 L 1891.5 2291  A 3.5 3.5 0 0 1 1888 2294.5 L 1588 2294.5  A 3.5 3.5 0 0 1 1584.5 2291 L 1584.5 1723  Z " stroke-width="1" stroke-dasharray="9,4" stroke="#ff3399" fill="none" stroke-dashoffset="0.5" />
  </g>
</svg>