<?xml version="1.0" encoding="utf-8"?>
<svg version="1.1" xmlns:xlink="http://www.w3.org/1999/xlink" width="219px" height="444px" xmlns="http://www.w3.org/2000/svg">
  <g transform="matrix(1 0 0 1 -206 -2436 )">
    <path d="M 207 2440  A 3 3 0 0 1 210 2437 L 421 2437  A 3 3 0 0 1 424 2440 L 424 2876  A 3 3 0 0 1 421 2879 L 210 2879  A 3 3 0 0 1 207 2876 L 207 2440  Z " fill-rule="nonzero" fill="#ff3399" stroke="none" fill-opacity="0.0980392156862745" />
    <path d="M 206.5 2440  A 3.5 3.5 0 0 1 210 2436.5 L 421 2436.5  A 3.5 3.5 0 0 1 424.5 2440 L 424.5 2876  A 3.5 3.5 0 0 1 421 2879.5 L 210 2879.5  A 3.5 3.5 0 0 1 206.5 2876 L 206.5 2440  Z " stroke-width="1" stroke-dasharray="9,4" stroke="#ff3399" fill="none" stroke-dashoffset="0.5" />
  </g>
</svg>