<?xml version="1.0" encoding="utf-8"?>
<svg version="1.1" xmlns:xlink="http://www.w3.org/1999/xlink" width="281px" height="398px" xmlns="http://www.w3.org/2000/svg">
  <g transform="matrix(1 0 0 1 -865 -2497 )">
    <path d="M 866 2501  A 3 3 0 0 1 869 2498 L 1142 2498  A 3 3 0 0 1 1145 2501 L 1145 2891  A 3 3 0 0 1 1142 2894 L 869 2894  A 3 3 0 0 1 866 2891 L 866 2501  Z " fill-rule="nonzero" fill="#ff3399" stroke="none" fill-opacity="0.0980392156862745" />
    <path d="M 865.5 2501  A 3.5 3.5 0 0 1 869 2497.5 L 1142 2497.5  A 3.5 3.5 0 0 1 1145.5 2501 L 1145.5 2891  A 3.5 3.5 0 0 1 1142 2894.5 L 869 2894.5  A 3.5 3.5 0 0 1 865.5 2891 L 865.5 2501  Z " stroke-width="1" stroke-dasharray="9,4" stroke="#ff3399" fill="none" stroke-dashoffset="0.5" />
  </g>
</svg>