<?xml version="1.0" encoding="utf-8"?>
<svg version="1.1" xmlns:xlink="http://www.w3.org/1999/xlink" width="308px" height="353px" xmlns="http://www.w3.org/2000/svg">
  <g transform="matrix(1 0 0 1 -1584 -1340 )">
    <path d="M 1585 1344  A 3 3 0 0 1 1588 1341 L 1888 1341  A 3 3 0 0 1 1891 1344 L 1891 1689  A 3 3 0 0 1 1888 1692 L 1588 1692  A 3 3 0 0 1 1585 1689 L 1585 1344  Z " fill-rule="nonzero" fill="#ff3399" stroke="none" fill-opacity="0.0980392156862745" />
    <path d="M 1584.5 1344  A 3.5 3.5 0 0 1 1588 1340.5 L 1888 1340.5  A 3.5 3.5 0 0 1 1891.5 1344 L 1891.5 1689  A 3.5 3.5 0 0 1 1888 1692.5 L 1588 1692.5  A 3.5 3.5 0 0 1 1584.5 1689 L 1584.5 1344  Z " stroke-width="1" stroke-dasharray="9,4" stroke="#ff3399" fill="none" stroke-dashoffset="0.5" />
  </g>
</svg>