<?xml version="1.0" encoding="utf-8"?>
<svg version="1.1" xmlns:xlink="http://www.w3.org/1999/xlink" width="219px" height="520px" xmlns="http://www.w3.org/2000/svg">
  <g transform="matrix(1 0 0 1 -216 -1675 )">
    <path d="M 217 1679  A 3 3 0 0 1 220 1676 L 431 1676  A 3 3 0 0 1 434 1679 L 434 2191  A 3 3 0 0 1 431 2194 L 220 2194  A 3 3 0 0 1 217 2191 L 217 1679  Z " fill-rule="nonzero" fill="#ff3399" stroke="none" fill-opacity="0.0980392156862745" />
    <path d="M 216.5 1679  A 3.5 3.5 0 0 1 220 1675.5 L 431 1675.5  A 3.5 3.5 0 0 1 434.5 1679 L 434.5 2191  A 3.5 3.5 0 0 1 431 2194.5 L 220 2194.5  A 3.5 3.5 0 0 1 216.5 2191 L 216.5 1679  Z " stroke-width="1" stroke-dasharray="9,4" stroke="#ff3399" fill="none" stroke-dashoffset="0.5" />
  </g>
</svg>