<?xml version="1.0" encoding="utf-8"?>
<svg version="1.1" xmlns:xlink="http://www.w3.org/1999/xlink" width="235px" height="219px" xmlns="http://www.w3.org/2000/svg">
  <g transform="matrix(1 0 0 1 -1205 -254 )">
    <path d="M 1206 258  A 3 3 0 0 1 1209 255 L 1436 255  A 3 3 0 0 1 1439 258 L 1439 469  A 3 3 0 0 1 1436 472 L 1209 472  A 3 3 0 0 1 1206 469 L 1206 258  Z " fill-rule="nonzero" fill="#ff3399" stroke="none" fill-opacity="0.0980392156862745" />
    <path d="M 1205.5 258  A 3.5 3.5 0 0 1 1209 254.5 L 1436 254.5  A 3.5 3.5 0 0 1 1439.5 258 L 1439.5 469  A 3.5 3.5 0 0 1 1436 472.5 L 1209 472.5  A 3.5 3.5 0 0 1 1205.5 469 L 1205.5 258  Z " stroke-width="1" stroke-dasharray="9,4" stroke="#ff3399" fill="none" stroke-dashoffset="0.5" />
  </g>
</svg>