<?xml version="1.0" encoding="utf-8"?>
<svg version="1.1" xmlns:xlink="http://www.w3.org/1999/xlink" width="251px" height="221px" xmlns="http://www.w3.org/2000/svg">
  <g transform="matrix(1 0 0 1 -569 -566 )">
    <path d="M 570 570  A 3 3 0 0 1 573 567 L 816 567  A 3 3 0 0 1 819 570 L 819 783  A 3 3 0 0 1 816 786 L 573 786  A 3 3 0 0 1 570 783 L 570 570  Z " fill-rule="nonzero" fill="#ff3399" stroke="none" fill-opacity="0.0980392156862745" />
    <path d="M 569.5 570  A 3.5 3.5 0 0 1 573 566.5 L 816 566.5  A 3.5 3.5 0 0 1 819.5 570 L 819.5 783  A 3.5 3.5 0 0 1 816 786.5 L 573 786.5  A 3.5 3.5 0 0 1 569.5 783 L 569.5 570  Z " stroke-width="1" stroke-dasharray="9,4" stroke="#ff3399" fill="none" stroke-dashoffset="0.5" />
  </g>
</svg>