<?xml version="1.0" encoding="utf-8"?>
<svg version="1.1" xmlns:xlink="http://www.w3.org/1999/xlink" width="333px" height="62px" xmlns="http://www.w3.org/2000/svg">
  <g transform="matrix(1 0 0 1 -109 -430 )">
    <path d="M 110 434  A 3 3 0 0 1 113 431 L 438 431  A 3 3 0 0 1 441 434 L 441 488  A 3 3 0 0 1 438 491 L 113 491  A 3 3 0 0 1 110 488 L 110 434  Z " fill-rule="nonzero" fill="#ff3399" stroke="none" fill-opacity="0.0980392156862745" />
    <path d="M 109.5 434  A 3.5 3.5 0 0 1 113 430.5 L 438 430.5  A 3.5 3.5 0 0 1 441.5 434 L 441.5 488  A 3.5 3.5 0 0 1 438 491.5 L 113 491.5  A 3.5 3.5 0 0 1 109.5 488 L 109.5 434  Z " stroke-width="1" stroke-dasharray="9,4" stroke="#ff3399" fill="none" stroke-dashoffset="0.5" />
  </g>
</svg>