<?xml version="1.0" encoding="utf-8"?>
<svg version="1.1" xmlns:xlink="http://www.w3.org/1999/xlink" width="300px" height="158px" xmlns="http://www.w3.org/2000/svg">
  <g transform="matrix(1 0 0 1 -745 -726 )">
    <path d="M 746 730  A 3 3 0 0 1 749 727 L 1041 727  A 3 3 0 0 1 1044 730 L 1044 880  A 3 3 0 0 1 1041 883 L 749 883  A 3 3 0 0 1 746 880 L 746 730  Z " fill-rule="nonzero" fill="#ff3399" stroke="none" fill-opacity="0.0980392156862745" />
    <path d="M 745.5 730  A 3.5 3.5 0 0 1 749 726.5 L 1041 726.5  A 3.5 3.5 0 0 1 1044.5 730 L 1044.5 880  A 3.5 3.5 0 0 1 1041 883.5 L 749 883.5  A 3.5 3.5 0 0 1 745.5 880 L 745.5 730  Z " stroke-width="1" stroke-dasharray="9,4" stroke="#ff3399" fill="none" stroke-dashoffset="0.5" />
  </g>
</svg>