<?xml version="1.0" encoding="utf-8"?>
<svg version="1.1" xmlns:xlink="http://www.w3.org/1999/xlink" width="200px" height="80px" xmlns="http://www.w3.org/2000/svg">
  <g transform="matrix(1 0 0 1 -677 -598 )">
    <path d="M 678 602  A 3 3 0 0 1 681 599 L 873 599  A 3 3 0 0 1 876 602 L 876 674  A 3 3 0 0 1 873 677 L 681 677  A 3 3 0 0 1 678 674 L 678 602  Z " fill-rule="nonzero" fill="#ff3399" stroke="none" fill-opacity="0.0980392156862745" />
    <path d="M 677.5 602  A 3.5 3.5 0 0 1 681 598.5 L 873 598.5  A 3.5 3.5 0 0 1 876.5 602 L 876.5 674  A 3.5 3.5 0 0 1 873 677.5 L 681 677.5  A 3.5 3.5 0 0 1 677.5 674 L 677.5 602  Z " stroke-width="1" stroke-dasharray="9,4" stroke="#ff3399" fill="none" stroke-dashoffset="0.5" />
  </g>
</svg>