<?xml version="1.0" encoding="utf-8"?>
<svg version="1.1" xmlns:xlink="http://www.w3.org/1999/xlink" width="344px" height="166px" xmlns="http://www.w3.org/2000/svg">
  <defs>
    <mask fill="white" id="clip36">
      <path d="M 0 163.333333333333  L 0 160.634508348794  L 0 2.66666666666667  C 0 1.17333333333333  2.21772893772893 0  5.04029304029304 0  L 338.959706959707 0  C 341.782271062271 0  344 1.17333333333333  344 2.66666666666667  L 344 163.333333333333  C 344 164.826666666667  341.782271062271 166  338.959706959707 166  L 5.04029304029304 166  C 2.21772893772893 166  0 164.826666666667  0 163.333333333333  Z " fill-rule="evenodd" />
    </mask>
  </defs>
  <g transform="matrix(1 0 0 1 -1387 -146 )">
    <path d="M 0 163.333333333333  L 0 160.634508348794  L 0 2.66666666666667  C 0 1.17333333333333  2.21772893772893 0  5.04029304029304 0  L 338.959706959707 0  C 341.782271062271 0  344 1.17333333333333  344 2.66666666666667  L 344 163.333333333333  C 344 164.826666666667  341.782271062271 166  338.959706959707 166  L 5.04029304029304 166  C 2.21772893772893 166  0 164.826666666667  0 163.333333333333  Z " fill-rule="nonzero" fill="#ff3399" stroke="none" fill-opacity="0.0980392156862745" transform="matrix(1 0 0 1 1387 146 )" />
    <path d="M 0 163.333333333333  L 0 160.634508348794  L 0 2.66666666666667  C 0 1.17333333333333  2.21772893772893 0  5.04029304029304 0  L 338.959706959707 0  C 341.782271062271 0  344 1.17333333333333  344 2.66666666666667  L 344 163.333333333333  C 344 164.826666666667  341.782271062271 166  338.959706959707 166  L 5.04029304029304 166  C 2.21772893772893 166  0 164.826666666667  0 163.333333333333  Z " stroke-width="2" stroke-dasharray="9,4" stroke="#ff3399" fill="none" transform="matrix(1 0 0 1 1387 146 )" mask="url(#clip36)" />
  </g>
</svg>