<?xml version="1.0" encoding="utf-8"?>
<svg version="1.1" xmlns:xlink="http://www.w3.org/1999/xlink" width="237px" height="116px" xmlns="http://www.w3.org/2000/svg">
  <g transform="matrix(1 0 0 1 -1415 -1472 )">
    <path d="M 1416 1476  A 3 3 0 0 1 1419 1473 L 1648 1473  A 3 3 0 0 1 1651 1476 L 1651 1584  A 3 3 0 0 1 1648 1587 L 1419 1587  A 3 3 0 0 1 1416 1584 L 1416 1476  Z " fill-rule="nonzero" fill="#ff3399" stroke="none" fill-opacity="0.0980392156862745" />
    <path d="M 1415.5 1476  A 3.5 3.5 0 0 1 1419 1472.5 L 1648 1472.5  A 3.5 3.5 0 0 1 1651.5 1476 L 1651.5 1584  A 3.5 3.5 0 0 1 1648 1587.5 L 1419 1587.5  A 3.5 3.5 0 0 1 1415.5 1584 L 1415.5 1476  Z " stroke-width="1" stroke-dasharray="9,4" stroke="#ff3399" fill="none" stroke-dashoffset="0.5" />
  </g>
</svg>