<?xml version="1.0" encoding="utf-8"?>
<svg version="1.1" xmlns:xlink="http://www.w3.org/1999/xlink" width="168px" height="70px" xmlns="http://www.w3.org/2000/svg">
  <g transform="matrix(1 0 0 1 -677 -727 )">
    <path d="M 678 731  A 3 3 0 0 1 681 728 L 841 728  A 3 3 0 0 1 844 731 L 844 793  A 3 3 0 0 1 841 796 L 681 796  A 3 3 0 0 1 678 793 L 678 731  Z " fill-rule="nonzero" fill="#ff3399" stroke="none" fill-opacity="0.0980392156862745" />
    <path d="M 677.5 731  A 3.5 3.5 0 0 1 681 727.5 L 841 727.5  A 3.5 3.5 0 0 1 844.5 731 L 844.5 793  A 3.5 3.5 0 0 1 841 796.5 L 681 796.5  A 3.5 3.5 0 0 1 677.5 793 L 677.5 731  Z " stroke-width="1" stroke-dasharray="9,4" stroke="#ff3399" fill="none" stroke-dashoffset="0.5" />
  </g>
</svg>