<?xml version="1.0" encoding="utf-8"?>
<svg version="1.1" xmlns:xlink="http://www.w3.org/1999/xlink" width="153px" height="58px" xmlns="http://www.w3.org/2000/svg">
  <g transform="matrix(1 0 0 1 -20 -456 )">
    <path d="M 21 460  A 3 3 0 0 1 24 457 L 169 457  A 3 3 0 0 1 172 460 L 172 510  A 3 3 0 0 1 169 513 L 24 513  A 3 3 0 0 1 21 510 L 21 460  Z " fill-rule="nonzero" fill="#ff3399" stroke="none" fill-opacity="0.0980392156862745" />
    <path d="M 20.5 460  A 3.5 3.5 0 0 1 24 456.5 L 169 456.5  A 3.5 3.5 0 0 1 172.5 460 L 172.5 510  A 3.5 3.5 0 0 1 169 513.5 L 24 513.5  A 3.5 3.5 0 0 1 20.5 510 L 20.5 460  Z " stroke-width="1" stroke-dasharray="9,4" stroke="#ff3399" fill="none" stroke-dashoffset="0.5" />
  </g>
</svg>