<?xml version="1.0" encoding="utf-8"?>
<svg version="1.1" xmlns:xlink="http://www.w3.org/1999/xlink" width="203px" height="400px" xmlns="http://www.w3.org/2000/svg">
  <g transform="matrix(1 0 0 1 -20 -538 )">
    <path d="M 21 542  A 3 3 0 0 1 24 539 L 219 539  A 3 3 0 0 1 222 542 L 222 934  A 3 3 0 0 1 219 937 L 24 937  A 3 3 0 0 1 21 934 L 21 542  Z " fill-rule="nonzero" fill="#ff3399" stroke="none" fill-opacity="0.0980392156862745" />
    <path d="M 20.5 542  A 3.5 3.5 0 0 1 24 538.5 L 219 538.5  A 3.5 3.5 0 0 1 222.5 542 L 222.5 934  A 3.5 3.5 0 0 1 219 937.5 L 24 937.5  A 3.5 3.5 0 0 1 20.5 934 L 20.5 542  Z " stroke-width="1" stroke-dasharray="9,4" stroke="#ff3399" fill="none" stroke-dashoffset="0.5" />
  </g>
</svg>