<?xml version="1.0" encoding="utf-8"?>
<svg version="1.1" xmlns:xlink="http://www.w3.org/1999/xlink" width="104px" height="70px" xmlns="http://www.w3.org/2000/svg">
  <g transform="matrix(1 0 0 1 324 -1076 )">
    <path d="M -323 1080  A 3 3 0 0 1 -320 1077 L -224 1077  A 3 3 0 0 1 -221 1080 L -221 1142  A 3 3 0 0 1 -224 1145 L -320 1145  A 3 3 0 0 1 -323 1142 L -323 1080  Z " fill-rule="nonzero" fill="#000000" stroke="none" fill-opacity="0.0196078431372549" />
    <path d="M -323.5 1080  A 3.5 3.5 0 0 1 -320 1076.5 L -224 1076.5  A 3.5 3.5 0 0 1 -220.5 1080 L -220.5 1142  A 3.5 3.5 0 0 1 -224 1145.5 L -320 1145.5  A 3.5 3.5 0 0 1 -323.5 1142 L -323.5 1080  Z " stroke-width="1" stroke-dasharray="9,4" stroke="#d9d9d9" fill="none" stroke-dashoffset="0.5" />
  </g>
</svg>