<?xml version="1.0" encoding="utf-8"?>
<svg version="1.1" xmlns:xlink="http://www.w3.org/1999/xlink" width="92px" height="63px" xmlns="http://www.w3.org/2000/svg">
  <g transform="matrix(1 0 0 1 319 -1080 )">
    <path d="M -319 1080  L -227 1080  L -227 1143  L -319 1143  L -319 1080  " fill-rule="nonzero" fill="#cccccc" stroke="none" />
    <path d="M -315 1084  L -231 1084  L -231 1139  L -315 1139  L -315 1084  " fill-rule="nonzero" fill="#ffffff" stroke="none" />
    <path d="M -266.435 1098.9  C -269.081 1098.9  -271.16 1096.821  -271.16 1094.175  C -271.16 1091.529  -269.081 1089.45  -266.435 1089.45  C -263.789 1089.45  -261.71 1091.529  -261.71 1094.175  C -261.71 1096.821  -263.789 1098.9  -266.435 1098.9  " fill-rule="nonzero" fill="#cccccc" stroke="none" />
    <path d="M -314 1138  L -314 1109.4  L -293.75 1096.4  L -265.4 1116.6347826087  L -249.2 1104.2  L -233 1116.6347826087  L -233 1138  L -314 1138  " fill-rule="nonzero" fill="#169bd5" stroke="none" />
  </g>
</svg>