<?xml version="1.0" encoding="utf-8"?>
<svg version="1.1" xmlns:xlink="http://www.w3.org/1999/xlink" width="434px" height="100px" xmlns="http://www.w3.org/2000/svg">
  <g transform="matrix(1 0 0 1 -355 -63 )">
    <path d="M 356 67  A 3 3 0 0 1 359 64 L 785 64  A 3 3 0 0 1 788 67 L 788 159  A 3 3 0 0 1 785 162 L 359 162  A 3 3 0 0 1 356 159 L 356 67  Z " fill-rule="nonzero" fill="#ff3399" stroke="none" fill-opacity="0.0980392156862745" />
    <path d="M 355.5 67  A 3.5 3.5 0 0 1 359 63.5 L 785 63.5  A 3.5 3.5 0 0 1 788.5 67 L 788.5 159  A 3.5 3.5 0 0 1 785 162.5 L 359 162.5  A 3.5 3.5 0 0 1 355.5 159 L 355.5 67  Z " stroke-width="1" stroke-dasharray="9,4" stroke="#ff3399" fill="none" stroke-dashoffset="0.5" />
  </g>
</svg>