<?xml version="1.0" encoding="utf-8"?>
<svg version="1.1" xmlns:xlink="http://www.w3.org/1999/xlink" width="287px" height="131px" xmlns="http://www.w3.org/2000/svg">
  <g transform="matrix(1 0 0 1 -752 -793 )">
    <path d="M 753 797  A 3 3 0 0 1 756 794 L 1035 794  A 3 3 0 0 1 1038 797 L 1038 920  A 3 3 0 0 1 1035 923 L 756 923  A 3 3 0 0 1 753 920 L 753 797  Z " fill-rule="nonzero" fill="#ff3399" stroke="none" fill-opacity="0.0980392156862745" />
    <path d="M 752.5 797  A 3.5 3.5 0 0 1 756 793.5 L 1035 793.5  A 3.5 3.5 0 0 1 1038.5 797 L 1038.5 920  A 3.5 3.5 0 0 1 1035 923.5 L 756 923.5  A 3.5 3.5 0 0 1 752.5 920 L 752.5 797  Z " stroke-width="1" stroke-dasharray="9,4" stroke="#ff3399" fill="none" stroke-dashoffset="0.5" />
  </g>
</svg>