<svg t="1593244109053" class="icon" viewBox="0 0 1024 1024" version="1.1" xmlns="http://www.w3.org/2000/svg" p-id="1790" width="48" height="48"><path d="M434 70v364H70V206c0-36.3 14.1-70.5 39.8-96.2C135.5 84.1 169.7 70 206 70h228m70-70H206C92.2 0 0 92.2 0 206v298h504V0zM888.7 1024c19.4-0.2 31.2-21.3 19-39.1l-36.5-53.5C929.3 891.8 1125 719 958 368.9c-3.1-4.5-10.6-5.9-12 1.7C963.5 607 843.1 689.2 749.4 753.1L715.9 704c-9.2-13.4-33.1-10.1-40.4 7.9l-72.2 238.9c-8.7 25.6 9.6 52.4 36.5 53.5l248.9 19.7z" p-id="1791"></path></svg>