<?xml version="1.0" encoding="utf-8"?>
<svg version="1.1" xmlns:xlink="http://www.w3.org/1999/xlink" width="200px" height="183px" xmlns="http://www.w3.org/2000/svg">
  <g transform="matrix(1 0 0 1 -1394 -256 )">
    <path d="M 1395 260  A 3 3 0 0 1 1398 257 L 1590 257  A 3 3 0 0 1 1593 260 L 1593 435  A 3 3 0 0 1 1590 438 L 1398 438  A 3 3 0 0 1 1395 435 L 1395 260  Z " fill-rule="nonzero" fill="#ff3399" stroke="none" fill-opacity="0.0980392156862745" />
    <path d="M 1394.5 260  A 3.5 3.5 0 0 1 1398 256.5 L 1590 256.5  A 3.5 3.5 0 0 1 1593.5 260 L 1593.5 435  A 3.5 3.5 0 0 1 1590 438.5 L 1398 438.5  A 3.5 3.5 0 0 1 1394.5 435 L 1394.5 260  Z " stroke-width="1" stroke-dasharray="9,4" stroke="#ff3399" fill="none" stroke-dashoffset="0.5" />
  </g>
</svg>