<?xml version="1.0" encoding="utf-8"?>
<svg version="1.1" xmlns:xlink="http://www.w3.org/1999/xlink" width="200px" height="153px" xmlns="http://www.w3.org/2000/svg">
  <g transform="matrix(1 0 0 1 -1385 -963 )">
    <path d="M 1386 967  A 3 3 0 0 1 1389 964 L 1581 964  A 3 3 0 0 1 1584 967 L 1584 1112  A 3 3 0 0 1 1581 1115 L 1389 1115  A 3 3 0 0 1 1386 1112 L 1386 967  Z " fill-rule="nonzero" fill="#ff3399" stroke="none" fill-opacity="0.0980392156862745" />
    <path d="M 1385.5 967  A 3.5 3.5 0 0 1 1389 963.5 L 1581 963.5  A 3.5 3.5 0 0 1 1584.5 967 L 1584.5 1112  A 3.5 3.5 0 0 1 1581 1115.5 L 1389 1115.5  A 3.5 3.5 0 0 1 1385.5 1112 L 1385.5 967  Z " stroke-width="1" stroke-dasharray="9,4" stroke="#ff3399" fill="none" stroke-dashoffset="0.5" />
  </g>
</svg>