<?xml version="1.0" encoding="utf-8"?>
<svg version="1.1" xmlns:xlink="http://www.w3.org/1999/xlink" width="264px" height="115px" xmlns="http://www.w3.org/2000/svg">
  <g transform="matrix(1 0 0 1 -1433 -123 )">
    <path d="M 1434 127  A 3 3 0 0 1 1437 124 L 1693 124  A 3 3 0 0 1 1696 127 L 1696 234  A 3 3 0 0 1 1693 237 L 1437 237  A 3 3 0 0 1 1434 234 L 1434 127  Z " fill-rule="nonzero" fill="#ff3399" stroke="none" fill-opacity="0.0980392156862745" />
    <path d="M 1433.5 127  A 3.5 3.5 0 0 1 1437 123.5 L 1693 123.5  A 3.5 3.5 0 0 1 1696.5 127 L 1696.5 234  A 3.5 3.5 0 0 1 1693 237.5 L 1437 237.5  A 3.5 3.5 0 0 1 1433.5 234 L 1433.5 127  Z " stroke-width="1" stroke-dasharray="9,4" stroke="#ff3399" fill="none" stroke-dashoffset="0.5" />
  </g>
</svg>