<?xml version="1.0" encoding="utf-8"?>
<svg version="1.1" xmlns:xlink="http://www.w3.org/1999/xlink" width="422px" height="323px" xmlns="http://www.w3.org/2000/svg">
  <g transform="matrix(1 0 0 1 -1029 -584 )">
    <path d="M 1030 588  A 3 3 0 0 1 1033 585 L 1447 585  A 3 3 0 0 1 1450 588 L 1450 903  A 3 3 0 0 1 1447 906 L 1033 906  A 3 3 0 0 1 1030 903 L 1030 588  Z " fill-rule="nonzero" fill="#ff3399" stroke="none" fill-opacity="0.0980392156862745" />
    <path d="M 1029.5 588  A 3.5 3.5 0 0 1 1033 584.5 L 1447 584.5  A 3.5 3.5 0 0 1 1450.5 588 L 1450.5 903  A 3.5 3.5 0 0 1 1447 906.5 L 1033 906.5  A 3.5 3.5 0 0 1 1029.5 903 L 1029.5 588  Z " stroke-width="1" stroke-dasharray="9,4" stroke="#ff3399" fill="none" stroke-dashoffset="0.5" />
  </g>
</svg>