<?xml version="1.0" encoding="utf-8"?>
<svg version="1.1" xmlns:xlink="http://www.w3.org/1999/xlink" width="10px" height="46px" preserveAspectRatio="xMidYMin meet" viewBox="1104 339  8 46" xmlns="http://www.w3.org/2000/svg">
  <path d="M 1108.5 340  L 1108.5 375  A 5 5 0 0 1 1103.5 380.5 L 848 380.5  A 5 5 0 0 0 843.5 385.5 L 843.5 481  " stroke-width="1" stroke="#d9001b" fill="none" stroke-opacity="0.764705882352941" />
  <path d="M 1108.5 339  A 3 3 0 0 0 1105.5 342 A 3 3 0 0 0 1108.5 345 A 3 3 0 0 0 1111.5 342 A 3 3 0 0 0 1108.5 339 Z M 837.2 480  L 843.5 486  L 849.8 480  L 837.2 480  Z " fill-rule="nonzero" fill="#d9001b" stroke="none" fill-opacity="0.764705882352941" />
</svg>