<?xml version="1.0" encoding="utf-8"?>
<svg version="1.1" xmlns:xlink="http://www.w3.org/1999/xlink" width="200px" height="100px" xmlns="http://www.w3.org/2000/svg">
  <g transform="matrix(1 0 0 1 -2053 -134 )">
    <path d="M 2054 138  A 3 3 0 0 1 2057 135 L 2249 135  A 3 3 0 0 1 2252 138 L 2252 230  A 3 3 0 0 1 2249 233 L 2057 233  A 3 3 0 0 1 2054 230 L 2054 138  Z " fill-rule="nonzero" fill="#ff3399" stroke="none" fill-opacity="0.0980392156862745" />
    <path d="M 2053.5 138  A 3.5 3.5 0 0 1 2057 134.5 L 2249 134.5  A 3.5 3.5 0 0 1 2252.5 138 L 2252.5 230  A 3.5 3.5 0 0 1 2249 233.5 L 2057 233.5  A 3.5 3.5 0 0 1 2053.5 230 L 2053.5 138  Z " stroke-width="1" stroke-dasharray="9,4" stroke="#ff3399" fill="none" stroke-dashoffset="0.5" />
  </g>
</svg>