<?xml version="1.0" encoding="utf-8"?>
<svg version="1.1" xmlns:xlink="http://www.w3.org/1999/xlink" width="19px" height="18px" preserveAspectRatio="xMinYMid meet" viewBox="2040 176  19 16" xmlns="http://www.w3.org/2000/svg">
  <path d="M 1951 181.5  L 1999.5 181.5  A 1.5 1.5 0 0 1 2001.5 183 A 1.5 1.5 0 0 0 2003 184.5 L 2048 184.5  " stroke-width="1" stroke="#d9001b" fill="none" stroke-opacity="0.764705882352941" />
  <path d="M 1953 178.5  A 3 3 0 0 0 1950 181.5 A 3 3 0 0 0 1953 184.5 A 3 3 0 0 0 1956 181.5 A 3 3 0 0 0 1953 178.5 Z M 2047 190.8  L 2053 184.5  L 2047 178.2  L 2047 190.8  Z " fill-rule="nonzero" fill="#d9001b" stroke="none" fill-opacity="0.764705882352941" />
</svg>