<?xml version="1.0" encoding="utf-8"?>
<svg version="1.1" xmlns:xlink="http://www.w3.org/1999/xlink" width="19px" height="18px" preserveAspectRatio="xMinYMid meet" viewBox="1550 298  19 16" xmlns="http://www.w3.org/2000/svg">
  <path d="M 1148.5 153  L 1148.5 157  A 5 5 0 0 0 1153.5 162.5 L 1233 162.5  A 5 5 0 0 1 1238.5 167.5 L 1238.5 301  A 5 5 0 0 0 1243.5 306.5 L 1558 306.5  " stroke-width="1" stroke="#d9001b" fill="none" stroke-opacity="0.764705882352941" />
  <path d="M 1148.5 152  A 3 3 0 0 0 1145.5 155 A 3 3 0 0 0 1148.5 158 A 3 3 0 0 0 1151.5 155 A 3 3 0 0 0 1148.5 152 Z M 1557 312.8  L 1563 306.5  L 1557 300.2  L 1557 312.8  Z " fill-rule="nonzero" fill="#d9001b" stroke="none" fill-opacity="0.764705882352941" />
</svg>