<?xml version="1.0" encoding="utf-8"?>
<svg version="1.1" xmlns:xlink="http://www.w3.org/1999/xlink" width="208px" height="140px" xmlns="http://www.w3.org/2000/svg">
  <g transform="matrix(1 0 0 1 -2026 -686 )">
    <path d="M 2027 690  A 3 3 0 0 1 2030 687 L 2230 687  A 3 3 0 0 1 2233 690 L 2233 822  A 3 3 0 0 1 2230 825 L 2030 825  A 3 3 0 0 1 2027 822 L 2027 690  Z " fill-rule="nonzero" fill="#ff3399" stroke="none" fill-opacity="0.0980392156862745" />
    <path d="M 2026.5 690  A 3.5 3.5 0 0 1 2030 686.5 L 2230 686.5  A 3.5 3.5 0 0 1 2233.5 690 L 2233.5 822  A 3.5 3.5 0 0 1 2230 825.5 L 2030 825.5  A 3.5 3.5 0 0 1 2026.5 822 L 2026.5 690  Z " stroke-width="1" stroke-dasharray="9,4" stroke="#ff3399" fill="none" stroke-dashoffset="0.5" />
  </g>
</svg>