<?xml version="1.0" encoding="utf-8"?>
<svg version="1.1" xmlns:xlink="http://www.w3.org/1999/xlink" width="516px" height="8px" viewBox="528 1818  516 8" xmlns="http://www.w3.org/2000/svg">
  <defs>
    <mask fill="white" id="clip44">
      <path d="M 733.5 1807  L 838.5 1807  L 838.5 1837  L 733.5 1837  Z M 547 1694  L 1025 1694  L 1025 1950  L 547 1950  Z " fill-rule="evenodd" />
    </mask>
  </defs>
  <g transform="matrix(0.888926663185249 -0.458049546968812 0.458049546968818 0.888926663185238 -747.262631840792 562.402563593982 )">
    <path d="M 1013.22214667363 1939.08390090606  L 562.333559979111 1706.74829728181  " stroke-width="2" stroke="#ffffff" fill="none" stroke-opacity="0.764705882352941" mask="url(#clip44)" />
    <path d="M 1011.88875667885 1934.89682658561  A 3.5 3.5 0 0 0 1008.38875667885 1938.39682658561 A 3.5 3.5 0 0 0 1011.88875667885 1941.89682658561 A 3.5 3.5 0 0 0 1015.38875667885 1938.39682658561 A 3.5 3.5 0 0 0 1011.88875667885 1934.89682658561 Z M 566.70366319926 1700.45050418857  L 557 1704  L 559.741310085334 1713.96218946899  L 566.70366319926 1700.45050418857  Z " fill-rule="nonzero" fill="#ffffff" stroke="none" fill-opacity="0.764705882352941" mask="url(#clip44)" />
  </g>
</svg>