<?xml version="1.0" encoding="utf-8"?>
<svg version="1.1" xmlns:xlink="http://www.w3.org/1999/xlink" width="21.346976210154px" height="20px" viewBox="1000.77080524218 1928.16780181212  21.346976210154 20" xmlns="http://www.w3.org/2000/svg">
  <defs>
    <mask fill="white" id="clip45">
      <path d="M 733.5 1807  L 838.5 1807  L 838.5 1837  L 733.5 1837  Z M 547 1694  L 1025 1694  L 1025 1950  L 547 1950  Z " fill-rule="evenodd" />
    </mask>
  </defs>
  <g transform="matrix(-0.888926663185239 0.458049546968832 -0.458049546968847 -0.888926663185254 2798.32097759984 3197.76523821815 )">
    <path d="M 1013.22214667363 1939.08390090606  L 562.333559979111 1706.74829728181  " stroke-width="2" stroke="#ffffff" fill="none" stroke-opacity="0.764705882352941" mask="url(#clip45)" />
    <path d="M 1011.88875667885 1934.89682658561  A 3.5 3.5 0 0 0 1008.38875667885 1938.39682658561 A 3.5 3.5 0 0 0 1011.88875667885 1941.89682658561 A 3.5 3.5 0 0 0 1015.38875667885 1938.39682658561 A 3.5 3.5 0 0 0 1011.88875667885 1934.89682658561 Z M 566.70366319926 1700.45050418857  L 557 1704  L 559.741310085334 1713.96218946899  L 566.70366319926 1700.45050418857  Z " fill-rule="nonzero" fill="#ffffff" stroke="none" fill-opacity="0.764705882352941" mask="url(#clip45)" />
  </g>
</svg>