<?xml version="1.0" encoding="utf-8"?>
<svg version="1.1" xmlns:xlink="http://www.w3.org/1999/xlink" width="182px" height="10px" preserveAspectRatio="xMinYMid meet" viewBox="1183 1436  182 8" xmlns="http://www.w3.org/2000/svg">
  <defs>
    <mask fill="white" id="clip40">
      <path d="M 1307.5 1255  L 1412.5 1255  L 1412.5 1285  L 1307.5 1285  Z M 1178 924  L 1412.5 924  L 1412.5 1460  L 1178 1460  Z " fill-rule="evenodd" />
    </mask>
  </defs>
  <path d="M 1347 934  L 1355 934  A 5 5 0 0 1 1360 939 L 1360 1435  A 5 5 0 0 1 1355 1440 L 1193 1440  A 5 5 0 0 0 1188 1445 " stroke-width="2" stroke="#ffffff" fill="none" stroke-opacity="0.764705882352941" mask="url(#clip40)" />
  <path d="M 1348.5 930.5  A 3.5 3.5 0 0 0 1345 934 A 3.5 3.5 0 0 0 1348.5 937.5 A 3.5 3.5 0 0 0 1352 934 A 3.5 3.5 0 0 0 1348.5 930.5 Z M 1180.4 1443  L 1188 1450  L 1195.6 1443  L 1180.4 1443  Z " fill-rule="nonzero" fill="#ffffff" stroke="none" fill-opacity="0.764705882352941" mask="url(#clip40)" />
</svg>