<?xml version="1.0" encoding="utf-8"?>
<svg version="1.1" xmlns:xlink="http://www.w3.org/1999/xlink" width="369px" height="174px" xmlns="http://www.w3.org/2000/svg">
  <g transform="matrix(1 0 0 1 -1481 -1055 )">
    <path d="M 1482 1059  A 3 3 0 0 1 1485 1056 L 1846 1056  A 3 3 0 0 1 1849 1059 L 1849 1225  A 3 3 0 0 1 1846 1228 L 1485 1228  A 3 3 0 0 1 1482 1225 L 1482 1059  Z " fill-rule="nonzero" fill="#ff3399" stroke="none" fill-opacity="0.0980392156862745" />
    <path d="M 1481.5 1059  A 3.5 3.5 0 0 1 1485 1055.5 L 1846 1055.5  A 3.5 3.5 0 0 1 1849.5 1059 L 1849.5 1225  A 3.5 3.5 0 0 1 1846 1228.5 L 1485 1228.5  A 3.5 3.5 0 0 1 1481.5 1225 L 1481.5 1059  Z " stroke-width="1" stroke-dasharray="9,4" stroke="#ff3399" fill="none" stroke-dashoffset="0.5" />
  </g>
</svg>