<?xml version="1.0" encoding="utf-8"?>
<svg version="1.1" xmlns:xlink="http://www.w3.org/1999/xlink" width="236px" height="176px" xmlns="http://www.w3.org/2000/svg">
  <g transform="matrix(1 0 0 1 -87 -177 )">
    <path d="M 88 181  A 3 3 0 0 1 91 178 L 319 178  A 3 3 0 0 1 322 181 L 322 349  A 3 3 0 0 1 319 352 L 91 352  A 3 3 0 0 1 88 349 L 88 181  Z " fill-rule="nonzero" fill="#ff3399" stroke="none" fill-opacity="0.0980392156862745" />
    <path d="M 87.5 181  A 3.5 3.5 0 0 1 91 177.5 L 319 177.5  A 3.5 3.5 0 0 1 322.5 181 L 322.5 349  A 3.5 3.5 0 0 1 319 352.5 L 91 352.5  A 3.5 3.5 0 0 1 87.5 349 L 87.5 181  Z " stroke-width="1" stroke-dasharray="9,4" stroke="#ff3399" fill="none" stroke-dashoffset="0.5" />
  </g>
</svg>