<?xml version="1.0" encoding="utf-8"?>
<svg version="1.1" xmlns:xlink="http://www.w3.org/1999/xlink" width="162px" height="81px" xmlns="http://www.w3.org/2000/svg">
  <g transform="matrix(1 0 0 1 -811 -1062 )">
    <path d="M 812 1066  A 3 3 0 0 1 815 1063 L 969 1063  A 3 3 0 0 1 972 1066 L 972 1139  A 3 3 0 0 1 969 1142 L 815 1142  A 3 3 0 0 1 812 1139 L 812 1066  Z " fill-rule="nonzero" fill="#ff3399" stroke="none" fill-opacity="0.0980392156862745" />
    <path d="M 811.5 1066  A 3.5 3.5 0 0 1 815 1062.5 L 969 1062.5  A 3.5 3.5 0 0 1 972.5 1066 L 972.5 1139  A 3.5 3.5 0 0 1 969 1142.5 L 815 1142.5  A 3.5 3.5 0 0 1 811.5 1139 L 811.5 1066  Z " stroke-width="1" stroke-dasharray="9,4" stroke="#ff3399" fill="none" stroke-dashoffset="0.5" />
  </g>
</svg>