<?xml version="1.0" encoding="utf-8"?>
<svg version="1.1" xmlns:xlink="http://www.w3.org/1999/xlink" width="281px" height="103px" xmlns="http://www.w3.org/2000/svg">
  <g transform="matrix(1 0 0 1 -1062 -1622 )">
    <path d="M 1063 1626  A 3 3 0 0 1 1066 1623 L 1339 1623  A 3 3 0 0 1 1342 1626 L 1342 1721  A 3 3 0 0 1 1339 1724 L 1066 1724  A 3 3 0 0 1 1063 1721 L 1063 1626  Z " fill-rule="nonzero" fill="#ff3399" stroke="none" fill-opacity="0.0980392156862745" />
    <path d="M 1062.5 1626  A 3.5 3.5 0 0 1 1066 1622.5 L 1339 1622.5  A 3.5 3.5 0 0 1 1342.5 1626 L 1342.5 1721  A 3.5 3.5 0 0 1 1339 1724.5 L 1066 1724.5  A 3.5 3.5 0 0 1 1062.5 1721 L 1062.5 1626  Z " stroke-width="1" stroke-dasharray="9,4" stroke="#ff3399" fill="none" stroke-dashoffset="0.5" />
  </g>
</svg>