<?xml version="1.0" encoding="utf-8"?>
<svg version="1.1" xmlns:xlink="http://www.w3.org/1999/xlink" width="291px" height="155px" xmlns="http://www.w3.org/2000/svg">
  <g transform="matrix(1 0 0 1 -648 -547 )">
    <path d="M 649 551  A 3 3 0 0 1 652 548 L 935 548  A 3 3 0 0 1 938 551 L 938 698  A 3 3 0 0 1 935 701 L 652 701  A 3 3 0 0 1 649 698 L 649 551  Z " fill-rule="nonzero" fill="#ff3399" stroke="none" fill-opacity="0.0980392156862745" />
    <path d="M 648.5 551  A 3.5 3.5 0 0 1 652 547.5 L 935 547.5  A 3.5 3.5 0 0 1 938.5 551 L 938.5 698  A 3.5 3.5 0 0 1 935 701.5 L 652 701.5  A 3.5 3.5 0 0 1 648.5 698 L 648.5 551  Z " stroke-width="1" stroke-dasharray="9,4" stroke="#ff3399" fill="none" stroke-dashoffset="0.5" />
  </g>
</svg>