<?xml version="1.0" encoding="utf-8"?>
<svg version="1.1" xmlns:xlink="http://www.w3.org/1999/xlink" width="250px" height="155px" xmlns="http://www.w3.org/2000/svg">
  <g transform="matrix(1 0 0 1 0 -555 )">
    <path d="M 1 559  A 3 3 0 0 1 4 556 L 246 556  A 3 3 0 0 1 249 559 L 249 706  A 3 3 0 0 1 246 709 L 4 709  A 3 3 0 0 1 1 706 L 1 559  Z " fill-rule="nonzero" fill="#ff3399" stroke="none" fill-opacity="0.0980392156862745" />
    <path d="M 0.5 559  A 3.5 3.5 0 0 1 4 555.5 L 246 555.5  A 3.5 3.5 0 0 1 249.5 559 L 249.5 706  A 3.5 3.5 0 0 1 246 709.5 L 4 709.5  A 3.5 3.5 0 0 1 0.5 706 L 0.5 559  Z " stroke-width="1" stroke-dasharray="9,4" stroke="#ff3399" fill="none" stroke-dashoffset="0.5" />
  </g>
</svg>