<?xml version="1.0" encoding="utf-8"?>
<svg version="1.1" xmlns:xlink="http://www.w3.org/1999/xlink" width="69px" height="28px" xmlns="http://www.w3.org/2000/svg">
  <g transform="matrix(1 0 0 1 -852 -366 )">
    <path d="M 853 370  A 3 3 0 0 1 856 367 L 917 367  A 3 3 0 0 1 920 370 L 920 390  A 3 3 0 0 1 917 393 L 856 393  A 3 3 0 0 1 853 390 L 853 370  Z " fill-rule="nonzero" fill="#f2f2f2" stroke="none" fill-opacity="0" />
    <path d="M 852.5 370  A 3.5 3.5 0 0 1 856 366.5 L 917 366.5  A 3.5 3.5 0 0 1 920.5 370 L 920.5 390  A 3.5 3.5 0 0 1 917 393.5 L 856 393.5  A 3.5 3.5 0 0 1 852.5 390 L 852.5 370  Z " stroke-width="1" stroke="#07c160" fill="none" stroke-opacity="0.996078431372549" />
  </g>
</svg>