<?xml version="1.0" encoding="utf-8"?>
<svg version="1.1" xmlns:xlink="http://www.w3.org/1999/xlink" width="174px" height="31px" xmlns="http://www.w3.org/2000/svg">
  <g transform="matrix(1 0 0 1 -218 -406 )">
    <path d="M 219 410  A 3 3 0 0 1 222 407 L 388 407  A 3 3 0 0 1 391 410 L 391 433  A 3 3 0 0 1 388 436 L 222 436  A 3 3 0 0 1 219 433 L 219 410  Z " fill-rule="nonzero" fill="#f2f2f2" stroke="none" fill-opacity="0" />
    <path d="M 218.5 410  A 3.5 3.5 0 0 1 222 406.5 L 388 406.5  A 3.5 3.5 0 0 1 391.5 410 L 391.5 433  A 3.5 3.5 0 0 1 388 436.5 L 222 436.5  A 3.5 3.5 0 0 1 218.5 433 L 218.5 410  Z " stroke-width="1" stroke="#07c160" fill="none" stroke-opacity="0.996078431372549" />
  </g>
</svg>