<?xml version="1.0" encoding="utf-8"?>
<svg version="1.1" xmlns:xlink="http://www.w3.org/1999/xlink" width="111px" height="10px" preserveAspectRatio="xMinYMid meet" viewBox="780 530  111 8" xmlns="http://www.w3.org/2000/svg">
  <path d="M 681 652.5  L 780 652.5  A 5 5 0 0 0 785.5 647.5 L 785.5 539  A 5 5 0 0 1 790.5 534.5 L 886 534.5  " stroke-width="1" stroke="#d9001b" fill="none" stroke-opacity="0.764705882352941" />
  <path d="M 683 649.5  A 3 3 0 0 0 680 652.5 A 3 3 0 0 0 683 655.5 A 3 3 0 0 0 686 652.5 A 3 3 0 0 0 683 649.5 Z M 885 540.8  L 891 534.5  L 885 528.2  L 885 540.8  Z " fill-rule="nonzero" fill="#d9001b" stroke="none" fill-opacity="0.764705882352941" />
</svg>