<?xml version="1.0" encoding="utf-8"?>
<svg version="1.1" xmlns:xlink="http://www.w3.org/1999/xlink" width="12px" height="12px" viewBox="180 369  12 12" xmlns="http://www.w3.org/2000/svg">
  <path d="M 186 369.5  C 189.08 369.5  191.5 371.92  191.5 375  C 191.5 378.08  189.08 380.5  186 380.5  C 182.92 380.5  180.5 378.08  180.5 375  C 180.5 371.92  182.92 369.5  186 369.5  Z " fill-rule="nonzero" fill="#f0f0f0" stroke="none" />
  <path d="M 186 369.5  C 189.08 369.5  191.5 371.92  191.5 375  C 191.5 378.08  189.08 380.5  186 380.5  C 182.92 380.5  180.5 378.08  180.5 375  C 180.5 371.92  182.92 369.5  186 369.5  Z " stroke-width="1" stroke="#07c160" fill="none" stroke-opacity="0.996078431372549" />
  <path d="M 186 378  C 184.32 378  183 376.68  183 375  C 183 373.32  184.32 372  186 372  C 187.68 372  189 373.32  189 375  C 189 376.68  187.68 378  186 378  " fill-rule="nonzero" fill="#07c160" stroke="none" fill-opacity="0.996078431372549" />
</svg>