<?xml version="1.0" encoding="utf-8"?>
<svg version="1.1" xmlns:xlink="http://www.w3.org/1999/xlink" width="12px" height="12px" viewBox="864 369  12 12" xmlns="http://www.w3.org/2000/svg">
  <path d="M 870 369.5  C 873.08 369.5  875.5 371.92  875.5 375  C 875.5 378.08  873.08 380.5  870 380.5  C 866.92 380.5  864.5 378.08  864.5 375  C 864.5 371.92  866.92 369.5  870 369.5  Z " fill-rule="nonzero" fill="#f0f0f0" stroke="none" />
  <path d="M 870 369.5  C 873.08 369.5  875.5 371.92  875.5 375  C 875.5 378.08  873.08 380.5  870 380.5  C 866.92 380.5  864.5 378.08  864.5 375  C 864.5 371.92  866.92 369.5  870 369.5  Z " stroke-width="1" stroke="#07c160" fill="none" stroke-opacity="0.996078431372549" />
  <path d="M 870 378  C 868.32 378  867 376.68  867 375  C 867 373.32  868.32 372  870 372  C 871.68 372  873 373.32  873 375  C 873 376.68  871.68 378  870 378  " fill-rule="nonzero" fill="#07c160" stroke="none" fill-opacity="0.996078431372549" />
</svg>