<?xml version="1.0" encoding="utf-8"?>
<svg version="1.1" xmlns:xlink="http://www.w3.org/1999/xlink" width="12px" height="12px" viewBox="339 369  12 12" xmlns="http://www.w3.org/2000/svg">
  <path d="M 345 369.5  C 348.08 369.5  350.5 371.92  350.5 375  C 350.5 378.08  348.08 380.5  345 380.5  C 341.92 380.5  339.5 378.08  339.5 375  C 339.5 371.92  341.92 369.5  345 369.5  Z " fill-rule="nonzero" fill="#ffffff" stroke="none" />
  <path d="M 345 369.5  C 348.08 369.5  350.5 371.92  350.5 375  C 350.5 378.08  348.08 380.5  345 380.5  C 341.92 380.5  339.5 378.08  339.5 375  C 339.5 371.92  341.92 369.5  345 369.5  Z " stroke-width="1" stroke="#07c160" fill="none" stroke-opacity="0.996078431372549" />
  <path d="M 345 378  C 343.32 378  342 376.68  342 375  C 342 373.32  343.32 372  345 372  C 346.68 372  348 373.32  348 375  C 348 376.68  346.68 378  345 378  " fill-rule="nonzero" fill="#07c160" stroke="none" fill-opacity="0.996078431372549" />
</svg>