<?xml version="1.0" encoding="utf-8"?>
<svg version="1.1" xmlns:xlink="http://www.w3.org/1999/xlink" width="12px" height="12px" viewBox="1023 369  12 12" xmlns="http://www.w3.org/2000/svg">
  <path d="M 1029 369.5  C 1032.08 369.5  1034.5 371.92  1034.5 375  C 1034.5 378.08  1032.08 380.5  1029 380.5  C 1025.92 380.5  1023.5 378.08  1023.5 375  C 1023.5 371.92  1025.92 369.5  1029 369.5  Z " fill-rule="nonzero" fill="#ffffff" stroke="none" />
  <path d="M 1029 369.5  C 1032.08 369.5  1034.5 371.92  1034.5 375  C 1034.5 378.08  1032.08 380.5  1029 380.5  C 1025.92 380.5  1023.5 378.08  1023.5 375  C 1023.5 371.92  1025.92 369.5  1029 369.5  Z " stroke-width="1" stroke="#07c160" fill="none" stroke-opacity="0.996078431372549" />
  <path d="M 1029 378  C 1027.32 378  1026 376.68  1026 375  C 1026 373.32  1027.32 372  1029 372  C 1030.68 372  1032 373.32  1032 375  C 1032 376.68  1030.68 378  1029 378  " fill-rule="nonzero" fill="#07c160" stroke="none" fill-opacity="0.996078431372549" />
</svg>