<?xml version="1.0" encoding="utf-8"?>
<svg version="1.1" xmlns:xlink="http://www.w3.org/1999/xlink" width="12px" height="12px" viewBox="339 1227  12 12" xmlns="http://www.w3.org/2000/svg">
  <path d="M 345 1227.5  C 348.08 1227.5  350.5 1229.92  350.5 1233  C 350.5 1236.08  348.08 1238.5  345 1238.5  C 341.92 1238.5  339.5 1236.08  339.5 1233  C 339.5 1229.92  341.92 1227.5  345 1227.5  Z " fill-rule="nonzero" fill="#ffffff" stroke="none" />
  <path d="M 345 1227.5  C 348.08 1227.5  350.5 1229.92  350.5 1233  C 350.5 1236.08  348.08 1238.5  345 1238.5  C 341.92 1238.5  339.5 1236.08  339.5 1233  C 339.5 1229.92  341.92 1227.5  345 1227.5  Z " stroke-width="1" stroke="#07c160" fill="none" stroke-opacity="0.996078431372549" />
  <path d="M 345 1236  C 343.32 1236  342 1234.68  342 1233  C 342 1231.32  343.32 1230  345 1230  C 346.68 1230  348 1231.32  348 1233  C 348 1234.68  346.68 1236  345 1236  " fill-rule="nonzero" fill="#07c160" stroke="none" fill-opacity="0.996078431372549" />
</svg>