<?xml version="1.0" encoding="utf-8"?>
<svg version="1.1" xmlns:xlink="http://www.w3.org/1999/xlink" width="12px" height="12px" viewBox="180 1227  12 12" xmlns="http://www.w3.org/2000/svg">
  <path d="M 186 1227.5  C 189.08 1227.5  191.5 1229.92  191.5 1233  C 191.5 1236.08  189.08 1238.5  186 1238.5  C 182.92 1238.5  180.5 1236.08  180.5 1233  C 180.5 1229.92  182.92 1227.5  186 1227.5  Z " fill-rule="nonzero" fill="#f0f0f0" stroke="none" />
  <path d="M 186 1227.5  C 189.08 1227.5  191.5 1229.92  191.5 1233  C 191.5 1236.08  189.08 1238.5  186 1238.5  C 182.92 1238.5  180.5 1236.08  180.5 1233  C 180.5 1229.92  182.92 1227.5  186 1227.5  Z " stroke-width="1" stroke="#07c160" fill="none" stroke-opacity="0.996078431372549" />
  <path d="M 186 1236  C 184.32 1236  183 1234.68  183 1233  C 183 1231.32  184.32 1230  186 1230  C 187.68 1230  189 1231.32  189 1233  C 189 1234.68  187.68 1236  186 1236  " fill-rule="nonzero" fill="#07c160" stroke="none" fill-opacity="0.996078431372549" />
</svg>