<?xml version="1.0" encoding="utf-8"?>
<svg version="1.1" xmlns:xlink="http://www.w3.org/1999/xlink" width="12px" height="12px" viewBox="864 1227  12 12" xmlns="http://www.w3.org/2000/svg">
  <path d="M 870 1227.5  C 873.08 1227.5  875.5 1229.92  875.5 1233  C 875.5 1236.08  873.08 1238.5  870 1238.5  C 866.92 1238.5  864.5 1236.08  864.5 1233  C 864.5 1229.92  866.92 1227.5  870 1227.5  Z " fill-rule="nonzero" fill="#ffffff" stroke="none" />
  <path d="M 870 1227.5  C 873.08 1227.5  875.5 1229.92  875.5 1233  C 875.5 1236.08  873.08 1238.5  870 1238.5  C 866.92 1238.5  864.5 1236.08  864.5 1233  C 864.5 1229.92  866.92 1227.5  870 1227.5  Z " stroke-width="1" stroke="#07c160" fill="none" stroke-opacity="0.996078431372549" />
  <path d="M 870 1236  C 868.32 1236  867 1234.68  867 1233  C 867 1231.32  868.32 1230  870 1230  C 871.68 1230  873 1231.32  873 1233  C 873 1234.68  871.68 1236  870 1236  " fill-rule="nonzero" fill="#07c160" stroke="none" fill-opacity="0.996078431372549" />
</svg>