<?xml version="1.0" encoding="utf-8"?>
<svg version="1.1" xmlns:xlink="http://www.w3.org/1999/xlink" width="342px" height="203px" xmlns="http://www.w3.org/2000/svg">
  <g transform="matrix(1 0 0 1 -1496 -449 )">
    <path d="M 1497 453  A 3 3 0 0 1 1500 450 L 1834 450  A 3 3 0 0 1 1837 453 L 1837 648  A 3 3 0 0 1 1834 651 L 1500 651  A 3 3 0 0 1 1497 648 L 1497 453  Z " fill-rule="nonzero" fill="#ff3399" stroke="none" fill-opacity="0.0980392156862745" />
    <path d="M 1496.5 453  A 3.5 3.5 0 0 1 1500 449.5 L 1834 449.5  A 3.5 3.5 0 0 1 1837.5 453 L 1837.5 648  A 3.5 3.5 0 0 1 1834 651.5 L 1500 651.5  A 3.5 3.5 0 0 1 1496.5 648 L 1496.5 453  Z " stroke-width="1" stroke-dasharray="9,4" stroke="#ff3399" fill="none" stroke-dashoffset="0.5" />
  </g>
</svg>