<?xml version="1.0" encoding="utf-8"?>
<svg version="1.1" xmlns:xlink="http://www.w3.org/1999/xlink" width="262px" height="111px" xmlns="http://www.w3.org/2000/svg">
  <g transform="matrix(1 0 0 1 -1191 -856 )">
    <path d="M 1192 860  A 3 3 0 0 1 1195 857 L 1449 857  A 3 3 0 0 1 1452 860 L 1452 963  A 3 3 0 0 1 1449 966 L 1195 966  A 3 3 0 0 1 1192 963 L 1192 860  Z " fill-rule="nonzero" fill="#ff3399" stroke="none" fill-opacity="0.0980392156862745" />
    <path d="M 1191.5 860  A 3.5 3.5 0 0 1 1195 856.5 L 1449 856.5  A 3.5 3.5 0 0 1 1452.5 860 L 1452.5 963  A 3.5 3.5 0 0 1 1449 966.5 L 1195 966.5  A 3.5 3.5 0 0 1 1191.5 963 L 1191.5 860  Z " stroke-width="1" stroke-dasharray="9,4" stroke="#ff3399" fill="none" stroke-dashoffset="0.5" />
  </g>
</svg>