<?xml version="1.0" encoding="utf-8"?>
<svg version="1.1" xmlns:xlink="http://www.w3.org/1999/xlink" width="12px" height="12px" viewBox="781 633  12 12" xmlns="http://www.w3.org/2000/svg">
  <path d="M 787 633  C 790.36 633  793 635.64  793 639  C 793 642.36  790.36 645  787 645  C 783.64 645  781 642.36  781 639  C 781 635.64  783.64 633  787 633  Z " fill-rule="nonzero" fill="#ffffff" stroke="none" />
  <path d="M 787 633.5  C 790.08 633.5  792.5 635.92  792.5 639  C 792.5 642.08  790.08 644.5  787 644.5  C 783.92 644.5  781.5 642.08  781.5 639  C 781.5 635.92  783.92 633.5  787 633.5  Z " stroke-width="1" stroke="#797979" fill="none" />
  <path d="M 787 642  C 785.32 642  784 640.68  784 639  C 784 637.32  785.32 636  787 636  C 788.68 636  790 637.32  790 639  C 790 640.68  788.68 642  787 642  " fill-rule="nonzero" fill="#797979" stroke="none" />
</svg>