<?xml version="1.0" encoding="utf-8"?>
<svg version="1.1" xmlns:xlink="http://www.w3.org/1999/xlink" width="94px" height="78px" xmlns="http://www.w3.org/2000/svg">
  <g transform="matrix(1 0 0 1 -1689 -1277 )">
    <path d="M 1689 1277  L 1783 1277  L 1783 1355  L 1689 1355  L 1689 1277  " fill-rule="nonzero" fill="#cccccc" stroke="none" />
    <path d="M 1694 1282  L 1778 1282  L 1778 1350  L 1694 1350  L 1694 1282  " fill-rule="nonzero" fill="#ffffff" stroke="none" />
    <path d="M 1743.73 1300.4  C 1740.454 1300.4  1737.88 1297.826  1737.88 1294.55  C 1737.88 1291.274  1740.454 1288.7  1743.73 1288.7  C 1747.006 1288.7  1749.58 1291.274  1749.58 1294.55  C 1749.58 1297.826  1747.006 1300.4  1743.73 1300.4  " fill-rule="nonzero" fill="#cccccc" stroke="none" />
    <path d="M 1696 1348  L 1696 1312.8  L 1716 1296.8  L 1744 1316.13617021277  L 1760 1306.4  L 1776 1316.13617021277  L 1776 1348  L 1696 1348  " fill-rule="nonzero" fill="#169bd5" stroke="none" />
  </g>
</svg>