<?xml version="1.0" encoding="utf-8"?>
<svg version="1.1" xmlns:xlink="http://www.w3.org/1999/xlink" width="87px" height="78px" xmlns="http://www.w3.org/2000/svg">
  <g transform="matrix(1 0 0 1 -1807 -1277 )">
    <path d="M 1807 1277  L 1894 1277  L 1894 1355  L 1807 1355  L 1807 1277  " fill-rule="nonzero" fill="#cccccc" stroke="none" />
    <path d="M 1812 1282  L 1889 1282  L 1889 1350  L 1812 1350  L 1812 1282  " fill-rule="nonzero" fill="#ffffff" stroke="none" />
    <path d="M 1858.09 1300.4  C 1854.814 1300.4  1852.24 1297.826  1852.24 1294.55  C 1852.24 1291.274  1854.814 1288.7  1858.09 1288.7  C 1861.366 1288.7  1863.94 1291.274  1863.94 1294.55  C 1863.94 1297.826  1861.366 1300.4  1858.09 1300.4  " fill-rule="nonzero" fill="#cccccc" stroke="none" />
    <path d="M 1814 1348  L 1814 1312.8  L 1832.25 1296.8  L 1857.8 1313.5724137931  L 1872.4 1306.4  L 1887 1313.5724137931  L 1887 1348  L 1814 1348  " fill-rule="nonzero" fill="#169bd5" stroke="none" />
  </g>
</svg>