<?xml version="1.0" encoding="utf-8"?>
<svg version="1.1" xmlns:xlink="http://www.w3.org/1999/xlink" width="252px" height="84px" xmlns="http://www.w3.org/2000/svg">
  <g transform="matrix(1 0 0 1 -2005 -895 )">
    <path d="M 2006 899  A 3 3 0 0 1 2009 896 L 2253 896  A 3 3 0 0 1 2256 899 L 2256 975  A 3 3 0 0 1 2253 978 L 2009 978  A 3 3 0 0 1 2006 975 L 2006 899  Z " fill-rule="nonzero" fill="#ff3399" stroke="none" fill-opacity="0.0980392156862745" />
    <path d="M 2005.5 899  A 3.5 3.5 0 0 1 2009 895.5 L 2253 895.5  A 3.5 3.5 0 0 1 2256.5 899 L 2256.5 975  A 3.5 3.5 0 0 1 2253 978.5 L 2009 978.5  A 3.5 3.5 0 0 1 2005.5 975 L 2005.5 899  Z " stroke-width="1" stroke-dasharray="9,4" stroke="#ff3399" fill="none" stroke-dashoffset="0.5" />
  </g>
</svg>