<?xml version="1.0" encoding="utf-8"?>
<svg version="1.1" xmlns:xlink="http://www.w3.org/1999/xlink" width="214px" height="90px" xmlns="http://www.w3.org/2000/svg">
  <g transform="matrix(1 0 0 1 -446 -671 )">
    <path d="M 447 675  A 3 3 0 0 1 450 672 L 656 672  A 3 3 0 0 1 659 675 L 659 757  A 3 3 0 0 1 656 760 L 450 760  A 3 3 0 0 1 447 757 L 447 675  Z " fill-rule="nonzero" fill="#ff3399" stroke="none" fill-opacity="0.0980392156862745" />
    <path d="M 446.5 675  A 3.5 3.5 0 0 1 450 671.5 L 656 671.5  A 3.5 3.5 0 0 1 659.5 675 L 659.5 757  A 3.5 3.5 0 0 1 656 760.5 L 450 760.5  A 3.5 3.5 0 0 1 446.5 757 L 446.5 675  Z " stroke-width="1" stroke-dasharray="9,4" stroke="#ff3399" fill="none" stroke-dashoffset="0.5" />
  </g>
</svg>