<?xml version="1.0" encoding="utf-8"?>
<svg version="1.1" xmlns:xlink="http://www.w3.org/1999/xlink" width="343px" height="550px" xmlns="http://www.w3.org/2000/svg">
  <defs>
    <mask fill="white" id="clip32">
      <path d="M 0 541.164658634538  L 0 532.222768625522  L 0 8.83534136546185  C 0 3.88755020080319  2.21128205128204 0  5.02564102564103 0  L 337.974358974359 0  C 340.788717948718 0  343 3.88755020080319  343 8.83534136546185  L 343 541.164658634538  C 343 546.112449799197  340.788717948718 550  337.974358974359 550  L 5.02564102564103 550  C 2.21128205128204 550  0 546.112449799197  0 541.164658634538  Z " fill-rule="evenodd" />
    </mask>
  </defs>
  <g transform="matrix(1 0 0 1 -1419 -1305 )">
    <path d="M 0 541.164658634538  L 0 532.222768625522  L 0 8.83534136546185  C 0 3.88755020080319  2.21128205128204 0  5.02564102564103 0  L 337.974358974359 0  C 340.788717948718 0  343 3.88755020080319  343 8.83534136546185  L 343 541.164658634538  C 343 546.112449799197  340.788717948718 550  337.974358974359 550  L 5.02564102564103 550  C 2.21128205128204 550  0 546.112449799197  0 541.164658634538  Z " fill-rule="nonzero" fill="#ff3399" stroke="none" fill-opacity="0.0980392156862745" transform="matrix(1 0 0 1 1419 1305 )" />
    <path d="M 0 541.164658634538  L 0 532.222768625522  L 0 8.83534136546185  C 0 3.88755020080319  2.21128205128204 0  5.02564102564103 0  L 337.974358974359 0  C 340.788717948718 0  343 3.88755020080319  343 8.83534136546185  L 343 541.164658634538  C 343 546.112449799197  340.788717948718 550  337.974358974359 550  L 5.02564102564103 550  C 2.21128205128204 550  0 546.112449799197  0 541.164658634538  Z " stroke-width="2" stroke-dasharray="9,4" stroke="#ff3399" fill="none" transform="matrix(1 0 0 1 1419 1305 )" mask="url(#clip32)" />
  </g>
</svg>