<?xml version="1.0" encoding="utf-8"?>
<svg version="1.1" xmlns:xlink="http://www.w3.org/1999/xlink" width="104px" height="95px" xmlns="http://www.w3.org/2000/svg">
  <g transform="matrix(1 0 0 1 -397 -1287 )">
    <path d="M 398 1292  A 4 4 0 0 1 402 1288 L 496 1288  A 4 4 0 0 1 500 1292 L 500 1377  A 4 4 0 0 1 496 1381 L 402 1381  A 4 4 0 0 1 398 1377 L 398 1292  Z " fill-rule="nonzero" fill="#ffffff" stroke="none" fill-opacity="0" />
    <path d="M 397.5 1292  A 4.5 4.5 0 0 1 402 1287.5 L 496 1287.5  A 4.5 4.5 0 0 1 500.5 1292 L 500.5 1377  A 4.5 4.5 0 0 1 496 1381.5 L 402 1381.5  A 4.5 4.5 0 0 1 397.5 1377 L 397.5 1292  Z " stroke-width="1" stroke="#d9001b" fill="none" stroke-opacity="0.6" />
  </g>
</svg>