<?xml version="1.0" encoding="utf-8"?>
<svg version="1.1" xmlns:xlink="http://www.w3.org/1999/xlink" width="21px" height="21px" xmlns="http://www.w3.org/2000/svg">
  <g transform="matrix(1 0 0 1 -397 -1287 )">
    <path d="M 8.75 16.26953125  C 8.98697916666667 16.26953125  9.19205729166667 16.1829427083333  9.365234375 16.009765625  L 17.759765625 7.615234375  C 17.9329427083333 7.44205729166667  18.01953125 7.23697916666667  18.01953125 7  C 18.01953125 6.76302083333333  17.9329427083333 6.55794270833333  17.759765625 6.384765625  L 16.365234375 4.990234375  C 16.1920572916667 4.81705729166667  15.9869791666667 4.73046875  15.75 4.73046875  C 15.5130208333333 4.73046875  15.3079427083333 4.81705729166667  15.134765625 4.990234375  L 8.75 11.375  L 5.865234375 8.490234375  C 5.69205729166667 8.31705729166667  5.48697916666667 8.23046875  5.25 8.23046875  C 5.01302083333333 8.23046875  4.80794270833333 8.31705729166667  4.634765625 8.490234375  L 3.240234375 9.884765625  C 3.06705729166667 10.0579427083333  2.98046875 10.2630208333333  2.98046875 10.5  C 2.98046875 10.7369791666667  3.06705729166667 10.9420572916667  3.240234375 11.115234375  L 8.134765625 16.009765625  C 8.30794270833333 16.1829427083333  8.51302083333333 16.26953125  8.75 16.26953125  Z M 19.8447265625 1.1552734375  C 20.6149088541667 1.92545572916666  21 2.85286458333333  21 3.9375  L 21 17.0625  C 21 18.1471354166667  20.6149088541667 19.0745442708333  19.8447265625 19.8447265625  C 19.0745442708333 20.6149088541667  18.1471354166667 21  17.0625 21  L 3.9375 21  C 2.85286458333333 21  1.92545572916667 20.6149088541667  1.1552734375 19.8447265625  C 0.385091145833333 19.0745442708333  0 18.1471354166667  0 17.0625  L 0 3.9375  C 0 2.85286458333333  0.385091145833333 1.92545572916666  1.1552734375 1.1552734375  C 1.92545572916667 0.385091145833332  2.85286458333333 0  3.9375 0  L 17.0625 0  C 18.1471354166667 0  19.0745442708333 0.385091145833332  19.8447265625 1.1552734375  Z " fill-rule="nonzero" fill="#d9001b" stroke="none" fill-opacity="0.6" transform="matrix(1 0 0 1 397 1287 )" />
  </g>
</svg>