<?xml version="1.0" encoding="utf-8"?>
<svg version="1.1" xmlns:xlink="http://www.w3.org/1999/xlink" width="149px" height="74px" xmlns="http://www.w3.org/2000/svg">
  <g transform="matrix(1 0 0 1 -166 -1300 )">
    <path d="M 167 1304  A 3 3 0 0 1 170 1301 L 311 1301  A 3 3 0 0 1 314 1304 L 314 1370  A 3 3 0 0 1 311 1373 L 170 1373  A 3 3 0 0 1 167 1370 L 167 1304  Z " fill-rule="nonzero" fill="#ff3399" stroke="none" fill-opacity="0.0980392156862745" />
    <path d="M 166.5 1304  A 3.5 3.5 0 0 1 170 1300.5 L 311 1300.5  A 3.5 3.5 0 0 1 314.5 1304 L 314.5 1370  A 3.5 3.5 0 0 1 311 1373.5 L 170 1373.5  A 3.5 3.5 0 0 1 166.5 1370 L 166.5 1304  Z " stroke-width="1" stroke-dasharray="9,4" stroke="#ff3399" fill="none" stroke-dashoffset="0.5" />
  </g>
</svg>