<?xml version="1.0" encoding="utf-8"?>
<svg version="1.1" xmlns:xlink="http://www.w3.org/1999/xlink" width="183px" height="59px" xmlns="http://www.w3.org/2000/svg">
  <g transform="matrix(1 0 0 1 -599 -31 )">
    <path d="M 600 35  A 3 3 0 0 1 603 32 L 778 32  A 3 3 0 0 1 781 35 L 781 86  A 3 3 0 0 1 778 89 L 603 89  A 3 3 0 0 1 600 86 L 600 35  Z " fill-rule="nonzero" fill="#ff3399" stroke="none" fill-opacity="0.0980392156862745" />
    <path d="M 599.5 35  A 3.5 3.5 0 0 1 603 31.5 L 778 31.5  A 3.5 3.5 0 0 1 781.5 35 L 781.5 86  A 3.5 3.5 0 0 1 778 89.5 L 603 89.5  A 3.5 3.5 0 0 1 599.5 86 L 599.5 35  Z " stroke-width="1" stroke-dasharray="9,4" stroke="#ff3399" fill="none" stroke-dashoffset="0.5" />
  </g>
</svg>