<?xml version="1.0" encoding="utf-8"?>
<svg version="1.1" xmlns:xlink="http://www.w3.org/1999/xlink" width="255px" height="80px" xmlns="http://www.w3.org/2000/svg">
  <defs>
    <mask fill="white" id="clip33">
      <path d="M 0 78.714859437751  L 0 77.414220890985  L 0 1.285140562249  C 0 0.565461847389555  1.64395604395604 0  3.73626373626374 0  L 251.263736263736 0  C 253.356043956044 0  255 0.565461847389555  255 1.285140562249  L 255 78.714859437751  C 255 79.4345381526104  253.356043956044 80  251.263736263736 80  L 3.73626373626374 80  C 1.64395604395604 80  0 79.4345381526104  0 78.714859437751  Z " fill-rule="evenodd" />
    </mask>
  </defs>
  <g transform="matrix(1 0 0 1 -66 -2719 )">
    <path d="M 0 78.714859437751  L 0 77.414220890985  L 0 1.285140562249  C 0 0.565461847389555  1.64395604395604 0  3.73626373626374 0  L 251.263736263736 0  C 253.356043956044 0  255 0.565461847389555  255 1.285140562249  L 255 78.714859437751  C 255 79.4345381526104  253.356043956044 80  251.263736263736 80  L 3.73626373626374 80  C 1.64395604395604 80  0 79.4345381526104  0 78.714859437751  Z " fill-rule="nonzero" fill="#ff3399" stroke="none" fill-opacity="0.0980392156862745" transform="matrix(1 0 0 1 66 2719 )" />
    <path d="M 0 78.714859437751  L 0 77.414220890985  L 0 1.285140562249  C 0 0.565461847389555  1.64395604395604 0  3.73626373626374 0  L 251.263736263736 0  C 253.356043956044 0  255 0.565461847389555  255 1.285140562249  L 255 78.714859437751  C 255 79.4345381526104  253.356043956044 80  251.263736263736 80  L 3.73626373626374 80  C 1.64395604395604 80  0 79.4345381526104  0 78.714859437751  Z " stroke-width="2" stroke-dasharray="9,4" stroke="#ff3399" fill="none" transform="matrix(1 0 0 1 66 2719 )" mask="url(#clip33)" />
  </g>
</svg>