<?xml version="1.0" encoding="utf-8"?>
<svg version="1.1" xmlns:xlink="http://www.w3.org/1999/xlink" width="147px" height="147px" xmlns="http://www.w3.org/2000/svg">
  <g transform="matrix(1 0 0 1 -996 -2231 )">
    <path d="M 121.16015625 62.302734375  C 122.30859375 61.154296875  122.8828125 59.71875  122.8828125 57.99609375  C 122.8828125 56.2096354166667  122.30859375 54.7421875  121.16015625 53.59375  L 112.451171875 44.98046875  C 111.238932291667 43.7682291666667  109.803385416667 43.162109375  108.14453125 43.162109375  C 106.485677083333 43.162109375  105.050130208333 43.7682291666667  103.837890625 44.98046875  L 64.791015625 83.931640625  L 43.162109375 62.302734375  C 41.9498697916667 61.0904947916667  40.5143229166667 60.484375  38.85546875 60.484375  C 37.1966145833333 60.484375  35.7610677083333 61.0904947916667  34.548828125 62.302734375  L 25.83984375 70.916015625  C 24.69140625 72.064453125  24.1171875 73.5319010416667  24.1171875 75.318359375  C 24.1171875 77.041015625  24.69140625 78.4765625  25.83984375 79.625  L 60.484375 114.26953125  C 61.6966145833333 115.481770833333  63.1321614583333 116.087890625  64.791015625 116.087890625  C 66.513671875 116.087890625  67.9811197916667 115.481770833333  69.193359375 114.26953125  L 121.16015625 62.302734375  Z M 137.142578125 36.6064453125  C 143.714192708333 47.8675130208333  147 60.1653645833333  147 73.5  C 147 86.8346354166667  143.714192708333 99.1324869791666  137.142578125 110.3935546875  C 130.570963541667 121.654622395833  121.654622395833 130.570963541667  110.3935546875 137.142578125  C 99.1324869791667 143.714192708333  86.8346354166667 147  73.5 147  C 60.1653645833333 147  47.8675130208333 143.714192708333  36.6064453125 137.142578125  C 25.3453776041667 130.570963541667  16.4290364583333 121.654622395833  9.857421875 110.3935546875  C 3.28580729166667 99.1324869791666  0 86.8346354166667  0 73.5  C 0 60.1653645833333  3.28580729166667 47.8675130208333  9.857421875 36.6064453125  C 16.4290364583333 25.3453776041667  25.3453776041667 16.4290364583333  36.6064453125 9.85742187499999  C 47.8675130208333 3.28580729166665  60.1653645833333 0  73.5 0  C 86.8346354166667 0  99.1324869791667 3.28580729166665  110.3935546875 9.85742187499999  C 121.654622395833 16.4290364583333  130.570963541667 25.3453776041667  137.142578125 36.6064453125  Z " fill-rule="nonzero" fill="#f2f2f2" stroke="none" transform="matrix(1 0 0 1 996 2231 )" />
  </g>
</svg>