<?xml version="1.0" encoding="utf-8"?>
<svg version="1.1" xmlns:xlink="http://www.w3.org/1999/xlink" width="343px" height="112px" xmlns="http://www.w3.org/2000/svg">
  <defs>
    <mask fill="white" id="clip35">
      <path d="M 0 110.200803212851  L 0 108.379909247379  L 0 1.79919678714859  C 0 0.791646586345377  2.21128205128204 0  5.02564102564103 0  L 337.974358974359 0  C 340.788717948718 0  343 0.791646586345377  343 1.79919678714859  L 343 110.200803212851  C 343 111.208353413655  340.788717948718 112  337.974358974359 112  L 5.02564102564103 112  C 2.21128205128204 112  0 111.208353413655  0 110.200803212851  Z " fill-rule="evenodd" />
    </mask>
  </defs>
  <g transform="matrix(1 0 0 1 -1301 -2231 )">
    <path d="M 0 110.200803212851  L 0 108.379909247379  L 0 1.79919678714859  C 0 0.791646586345377  2.21128205128204 0  5.02564102564103 0  L 337.974358974359 0  C 340.788717948718 0  343 0.791646586345377  343 1.79919678714859  L 343 110.200803212851  C 343 111.208353413655  340.788717948718 112  337.974358974359 112  L 5.02564102564103 112  C 2.21128205128204 112  0 111.208353413655  0 110.200803212851  Z " fill-rule="nonzero" fill="#ff3399" stroke="none" fill-opacity="0.0980392156862745" transform="matrix(1 0 0 1 1301 2231 )" />
    <path d="M 0 110.200803212851  L 0 108.379909247379  L 0 1.79919678714859  C 0 0.791646586345377  2.21128205128204 0  5.02564102564103 0  L 337.974358974359 0  C 340.788717948718 0  343 0.791646586345377  343 1.79919678714859  L 343 110.200803212851  C 343 111.208353413655  340.788717948718 112  337.974358974359 112  L 5.02564102564103 112  C 2.21128205128204 112  0 111.208353413655  0 110.200803212851  Z " stroke-width="2" stroke-dasharray="9,4" stroke="#ff3399" fill="none" transform="matrix(1 0 0 1 1301 2231 )" mask="url(#clip35)" />
  </g>
</svg>