<?xml version="1.0" encoding="utf-8"?>
<svg version="1.1" xmlns:xlink="http://www.w3.org/1999/xlink" width="343px" height="383px" xmlns="http://www.w3.org/2000/svg">
  <defs>
    <mask fill="white" id="clip34">
      <path d="M 0 376.847389558233  L 0 370.620582515591  L 0 6.15261044176707  C 0 2.7071485943775  2.21128205128204 0  5.02564102564103 0  L 337.974358974359 0  C 340.788717948718 0  343 2.7071485943775  343 6.15261044176707  L 343 376.847389558233  C 343 380.292851405623  340.788717948718 383  337.974358974359 383  L 5.02564102564103 383  C 2.21128205128204 383  0 380.292851405623  0 376.847389558233  Z " fill-rule="evenodd" />
    </mask>
  </defs>
  <g transform="matrix(1 0 0 1 -1301 -2445 )">
    <path d="M 0 376.847389558233  L 0 370.620582515591  L 0 6.15261044176707  C 0 2.7071485943775  2.21128205128204 0  5.02564102564103 0  L 337.974358974359 0  C 340.788717948718 0  343 2.7071485943775  343 6.15261044176707  L 343 376.847389558233  C 343 380.292851405623  340.788717948718 383  337.974358974359 383  L 5.02564102564103 383  C 2.21128205128204 383  0 380.292851405623  0 376.847389558233  Z " fill-rule="nonzero" fill="#ff3399" stroke="none" fill-opacity="0.0980392156862745" transform="matrix(1 0 0 1 1301 2445 )" />
    <path d="M 0 376.847389558233  L 0 370.620582515591  L 0 6.15261044176707  C 0 2.7071485943775  2.21128205128204 0  5.02564102564103 0  L 337.974358974359 0  C 340.788717948718 0  343 2.7071485943775  343 6.15261044176707  L 343 376.847389558233  C 343 380.292851405623  340.788717948718 383  337.974358974359 383  L 5.02564102564103 383  C 2.21128205128204 383  0 380.292851405623  0 376.847389558233  Z " stroke-width="2" stroke-dasharray="9,4" stroke="#ff3399" fill="none" transform="matrix(1 0 0 1 1301 2445 )" mask="url(#clip34)" />
  </g>
</svg>