<?xml version="1.0" encoding="utf-8"?>
<svg version="1.1" xmlns:xlink="http://www.w3.org/1999/xlink" width="253px" height="167px" xmlns="http://www.w3.org/2000/svg">
  <g transform="matrix(1 0 0 1 -1227 -200 )">
    <path d="M 1228 204  A 3 3 0 0 1 1231 201 L 1476 201  A 3 3 0 0 1 1479 204 L 1479 363  A 3 3 0 0 1 1476 366 L 1231 366  A 3 3 0 0 1 1228 363 L 1228 204  Z " fill-rule="nonzero" fill="#ff3399" stroke="none" fill-opacity="0.0980392156862745" />
    <path d="M 1227.5 204  A 3.5 3.5 0 0 1 1231 200.5 L 1476 200.5  A 3.5 3.5 0 0 1 1479.5 204 L 1479.5 363  A 3.5 3.5 0 0 1 1476 366.5 L 1231 366.5  A 3.5 3.5 0 0 1 1227.5 363 L 1227.5 204  Z " stroke-width="1" stroke-dasharray="9,4" stroke="#ff3399" fill="none" stroke-dashoffset="0.5" />
  </g>
</svg>