<?xml version="1.0" encoding="utf-8"?>
<svg version="1.1" xmlns:xlink="http://www.w3.org/1999/xlink" width="89px" height="32px" xmlns="http://www.w3.org/2000/svg">
  <g transform="matrix(1 0 0 1 -412 103 )">
    <path d="M 413 -99  A 3 3 0 0 1 416 -102 L 497 -102  A 3 3 0 0 1 500 -99 L 500 -75  A 3 3 0 0 1 497 -72 L 416 -72  A 3 3 0 0 1 413 -75 L 413 -99  Z " fill-rule="nonzero" fill="#ffffff" stroke="none" />
    <path d="M 412.5 -99  A 3.5 3.5 0 0 1 416 -102.5 L 497 -102.5  A 3.5 3.5 0 0 1 500.5 -99 L 500.5 -75  A 3.5 3.5 0 0 1 497 -71.5 L 416 -71.5  A 3.5 3.5 0 0 1 412.5 -75 L 412.5 -99  Z " stroke-width="1" stroke-dasharray="3,1" stroke="#d9d9d9" fill="none" stroke-dashoffset="0.5" />
  </g>
</svg>