<?xml version="1.0" encoding="utf-8"?>
<svg version="1.1" xmlns:xlink="http://www.w3.org/1999/xlink" width="325px" height="299px" xmlns="http://www.w3.org/2000/svg">
  <g transform="matrix(1 0 0 1 -1054 -569 )">
    <path d="M 1055 573  A 3 3 0 0 1 1058 570 L 1375 570  A 3 3 0 0 1 1378 573 L 1378 864  A 3 3 0 0 1 1375 867 L 1058 867  A 3 3 0 0 1 1055 864 L 1055 573  Z " fill-rule="nonzero" fill="#ff3399" stroke="none" fill-opacity="0.0980392156862745" />
    <path d="M 1054.5 573  A 3.5 3.5 0 0 1 1058 569.5 L 1375 569.5  A 3.5 3.5 0 0 1 1378.5 573 L 1378.5 864  A 3.5 3.5 0 0 1 1375 867.5 L 1058 867.5  A 3.5 3.5 0 0 1 1054.5 864 L 1054.5 573  Z " stroke-width="1" stroke-dasharray="9,4" stroke="#ff3399" fill="none" stroke-dashoffset="0.5" />
  </g>
</svg>