<?xml version="1.0" encoding="utf-8"?>
<svg version="1.1" xmlns:xlink="http://www.w3.org/1999/xlink" width="234px" height="142px" xmlns="http://www.w3.org/2000/svg">
  <g transform="matrix(1 0 0 1 -866 -1042 )">
    <path d="M 867 1046  A 3 3 0 0 1 870 1043 L 1096 1043  A 3 3 0 0 1 1099 1046 L 1099 1180  A 3 3 0 0 1 1096 1183 L 870 1183  A 3 3 0 0 1 867 1180 L 867 1046  Z " fill-rule="nonzero" fill="#ff3399" stroke="none" fill-opacity="0.0980392156862745" />
    <path d="M 866.5 1046  A 3.5 3.5 0 0 1 870 1042.5 L 1096 1042.5  A 3.5 3.5 0 0 1 1099.5 1046 L 1099.5 1180  A 3.5 3.5 0 0 1 1096 1183.5 L 870 1183.5  A 3.5 3.5 0 0 1 866.5 1180 L 866.5 1046  Z " stroke-width="1" stroke-dasharray="9,4" stroke="#ff3399" fill="none" stroke-dashoffset="0.5" />
  </g>
</svg>