<?xml version="1.0" encoding="utf-8"?>
<svg version="1.1" xmlns:xlink="http://www.w3.org/1999/xlink" width="259px" height="161px" xmlns="http://www.w3.org/2000/svg">
  <g transform="matrix(1 0 0 1 -188 -511 )">
    <path d="M 189 515  A 3 3 0 0 1 192 512 L 443 512  A 3 3 0 0 1 446 515 L 446 668  A 3 3 0 0 1 443 671 L 192 671  A 3 3 0 0 1 189 668 L 189 515  Z " fill-rule="nonzero" fill="#ff3399" stroke="none" fill-opacity="0.0980392156862745" />
    <path d="M 188.5 515  A 3.5 3.5 0 0 1 192 511.5 L 443 511.5  A 3.5 3.5 0 0 1 446.5 515 L 446.5 668  A 3.5 3.5 0 0 1 443 671.5 L 192 671.5  A 3.5 3.5 0 0 1 188.5 668 L 188.5 515  Z " stroke-width="1" stroke-dasharray="9,4" stroke="#ff3399" fill="none" stroke-dashoffset="0.5" />
  </g>
</svg>