<?xml version="1.0" encoding="utf-8"?>
<svg version="1.1" xmlns:xlink="http://www.w3.org/1999/xlink" width="104px" height="104px" xmlns="http://www.w3.org/2000/svg">
  <g transform="matrix(1 0 0 1 -1250 -767 )">
    <path d="M 1251 771  A 3 3 0 0 1 1254 768 L 1350 768  A 3 3 0 0 1 1353 771 L 1353 867  A 3 3 0 0 1 1350 870 L 1254 870  A 3 3 0 0 1 1251 867 L 1251 771  Z " fill-rule="nonzero" fill="#000000" stroke="none" fill-opacity="0.0196078431372549" />
    <path d="M 1250.5 771  A 3.5 3.5 0 0 1 1254 767.5 L 1350 767.5  A 3.5 3.5 0 0 1 1353.5 771 L 1353.5 867  A 3.5 3.5 0 0 1 1350 870.5 L 1254 870.5  A 3.5 3.5 0 0 1 1250.5 867 L 1250.5 771  Z " stroke-width="1" stroke-dasharray="9,4" stroke="#d9d9d9" fill="none" stroke-dashoffset="0.5" />
  </g>
</svg>