<?xml version="1.0" encoding="utf-8"?>
<svg version="1.1" xmlns:xlink="http://www.w3.org/1999/xlink" width="259px" height="162px" xmlns="http://www.w3.org/2000/svg">
  <g transform="matrix(1 0 0 1 -1553 -756 )">
    <path d="M 1554 760  A 3 3 0 0 1 1557 757 L 1808 757  A 3 3 0 0 1 1811 760 L 1811 914  A 3 3 0 0 1 1808 917 L 1557 917  A 3 3 0 0 1 1554 914 L 1554 760  Z " fill-rule="nonzero" fill="#ff3399" stroke="none" fill-opacity="0.0980392156862745" />
    <path d="M 1553.5 760  A 3.5 3.5 0 0 1 1557 756.5 L 1808 756.5  A 3.5 3.5 0 0 1 1811.5 760 L 1811.5 914  A 3.5 3.5 0 0 1 1808 917.5 L 1557 917.5  A 3.5 3.5 0 0 1 1553.5 914 L 1553.5 760  Z " stroke-width="1" stroke-dasharray="9,4" stroke="#ff3399" fill="none" stroke-dashoffset="0.5" />
  </g>
</svg>