<?xml version="1.0" encoding="utf-8"?>
<svg version="1.1" xmlns:xlink="http://www.w3.org/1999/xlink" width="225px" height="81px" xmlns="http://www.w3.org/2000/svg">
  <g transform="matrix(1 0 0 1 -205 -718 )">
    <path d="M 206 722  A 3 3 0 0 1 209 719 L 426 719  A 3 3 0 0 1 429 722 L 429 795  A 3 3 0 0 1 426 798 L 209 798  A 3 3 0 0 1 206 795 L 206 722  Z " fill-rule="nonzero" fill="#ff3399" stroke="none" fill-opacity="0.0980392156862745" />
    <path d="M 205.5 722  A 3.5 3.5 0 0 1 209 718.5 L 426 718.5  A 3.5 3.5 0 0 1 429.5 722 L 429.5 795  A 3.5 3.5 0 0 1 426 798.5 L 209 798.5  A 3.5 3.5 0 0 1 205.5 795 L 205.5 722  Z " stroke-width="1" stroke-dasharray="9,4" stroke="#ff3399" fill="none" stroke-dashoffset="0.5" />
  </g>
</svg>