<?xml version="1.0" encoding="utf-8"?>
<svg version="1.1" xmlns:xlink="http://www.w3.org/1999/xlink" width="312px" height="156px" xmlns="http://www.w3.org/2000/svg">
  <g transform="matrix(1 0 0 1 -97 -313 )">
    <path d="M 98 317  A 3 3 0 0 1 101 314 L 405 314  A 3 3 0 0 1 408 317 L 408 465  A 3 3 0 0 1 405 468 L 101 468  A 3 3 0 0 1 98 465 L 98 317  Z " fill-rule="nonzero" fill="#ff3399" stroke="none" fill-opacity="0.0980392156862745" />
    <path d="M 97.5 317  A 3.5 3.5 0 0 1 101 313.5 L 405 313.5  A 3.5 3.5 0 0 1 408.5 317 L 408.5 465  A 3.5 3.5 0 0 1 405 468.5 L 101 468.5  A 3.5 3.5 0 0 1 97.5 465 L 97.5 317  Z " stroke-width="1" stroke-dasharray="9,4" stroke="#ff3399" fill="none" stroke-dashoffset="0.5" />
  </g>
</svg>