<?xml version="1.0" encoding="utf-8"?>
<svg version="1.1" xmlns:xlink="http://www.w3.org/1999/xlink" width="78px" height="78px" xmlns="http://www.w3.org/2000/svg">
  <g transform="matrix(1 0 0 1 -567 -1764 )">
    <path d="M 568 1768  A 3 3 0 0 1 571 1765 L 641 1765  A 3 3 0 0 1 644 1768 L 644 1838  A 3 3 0 0 1 641 1841 L 571 1841  A 3 3 0 0 1 568 1838 L 568 1768  Z " fill-rule="nonzero" fill="#000000" stroke="none" fill-opacity="0.0196078431372549" />
    <path d="M 567.5 1768  A 3.5 3.5 0 0 1 571 1764.5 L 641 1764.5  A 3.5 3.5 0 0 1 644.5 1768 L 644.5 1838  A 3.5 3.5 0 0 1 641 1841.5 L 571 1841.5  A 3.5 3.5 0 0 1 567.5 1838 L 567.5 1768  Z " stroke-width="1" stroke-dasharray="9,4" stroke="#d9d9d9" fill="none" stroke-dashoffset="0.5" />
  </g>
</svg>